<?xml version="1.0" encoding="UTF-8"?>
<svg id="Layer_2" data-name="Layer 2" xmlns="http://www.w3.org/2000/svg" viewBox="0 0 96.4 40">
  <defs>
    <style>
      .cls-1 {
        fill: #16f98a;
      }
    </style>
  </defs>
  <g id="Layer_1-2" data-name="Layer 1">
    <g>
      <g>
        <path class="cls-1" d="m77.25,22.05l-13.44,13.44c-2.89,2.89-6.8,4.51-10.88,4.51h-9.16c-3.08,0-4.62-3.72-2.44-5.9l10.55-10.55c.96-.96,2.27-1.5,3.63-1.5h21.75Z"/>
        <path class="cls-1" d="m95.8,3.5l-14.45,14.45h-21.4c-.91,0-1.37-1.1-.73-1.75L74.52.9c.58-.58,1.36-.9,2.18-.9h17.65c1.83,0,2.74,2.21,1.45,3.5Z"/>
        <path class="cls-1" d="m20.6,25.55l9.94,9.94c2.89,2.89,6.8,4.51,10.88,4.51h9.26c3.04,0,4.57-3.68,2.41-5.83l-11.22-11.22c-.58-.58-1.36-.9-2.18-.9h-17.65c-1.83,0-2.74,2.21-1.45,3.5Z"/>
      </g>
      <g>
        <path class="cls-1" d="m9.33,15.75c0,.61-.22,1.12-.65,1.56-.43.43-.95.65-1.56.65h-.54c-1.81,0-3.37-.64-4.65-1.93s-1.93-2.84-1.93-4.66V2.56c0-.6.22-1.12.65-1.56.43-.43.96-.65,1.58-.65s1.12.22,1.55.65c.43.43.65.96.65,1.56v2.22h2.7c.6,0,1.12.22,1.56.65.43.43.65.95.65,1.55s-.22,1.12-.65,1.56c-.43.43-.95.65-1.56.65h-2.72v2.18c0,.59.21,1.1.63,1.53.42.43.94.65,1.54.65h.54c.6,0,1.12.22,1.56.65.43.43.65.95.65,1.55Z"/>
        <path class="cls-1" d="m16.82,2.55c0,.61-.22,1.12-.65,1.55-.43.43-.95.65-1.55.65s-1.15-.22-1.57-.65c-.42-.43-.63-.95-.63-1.55s.21-1.12.63-1.55c.42-.43.95-.65,1.57-.65s1.12.22,1.55.65.65.95.65,1.55Zm0,13.19c0,.61-.22,1.12-.65,1.56s-.95.65-1.55.65-1.15-.22-1.57-.65c-.42-.43-.63-.95-.63-1.56v-7.15c0-.61.21-1.12.63-1.56.42-.43.95-.65,1.57-.65s1.12.22,1.55.65c.43.43.65.95.65,1.56v7.15Z"/>
        <path class="cls-1" d="m32.99,15.74c0,.61-.22,1.12-.65,1.56-.43.43-.95.65-1.56.65-.76,0-1.36-.32-1.81-.96l-2.36-3.39h-2.25v2.15c0,.61-.22,1.12-.65,1.56-.43.43-.95.65-1.55.65s-1.12-.22-1.55-.65c-.43-.43-.65-.95-.65-1.56V2.56c0-.6.22-1.12.65-1.56.43-.43.95-.65,1.55-.65s1.12.22,1.55.65c.43.43.65.95.65,1.56v6.63h2.05c.92,0,1.54-.38,1.87-1.14.21-.69.42-1.38.65-2.07.33-.76.95-1.14,1.87-1.14.61,0,1.12.22,1.56.65.43.43.65.95.65,1.56,0,1.94-.73,3.57-2.18,4.88l1.79,2.54c.26.36.39.79.39,1.27Z"/>
        <path class="cls-1" d="m40.56,2.55c0,.61-.22,1.12-.65,1.55-.43.43-.95.65-1.55.65s-1.15-.22-1.57-.65c-.42-.43-.63-.95-.63-1.55s.21-1.12.63-1.55c.42-.43.95-.65,1.57-.65s1.12.22,1.55.65.65.95.65,1.55Zm0,13.19c0,.61-.22,1.12-.65,1.56s-.95.65-1.55.65-1.15-.22-1.57-.65c-.42-.43-.63-.95-.63-1.56v-7.15c0-.61.21-1.12.63-1.56.42-.43.95-.65,1.57-.65s1.12.22,1.55.65c.43.43.65.95.65,1.56v7.15Z"/>
        <path class="cls-1" d="m52.97,15.75c0,.61-.22,1.12-.65,1.56-.43.43-.95.65-1.56.65h-.54c-1.81,0-3.37-.64-4.65-1.93s-1.93-2.84-1.93-4.66V2.56c0-.6.22-1.12.65-1.56.43-.43.96-.65,1.58-.65s1.12.22,1.55.65c.43.43.65.96.65,1.56v2.22h2.7c.6,0,1.12.22,1.56.65.43.43.65.95.65,1.55s-.22,1.12-.65,1.56c-.43.43-.95.65-1.56.65h-2.72v2.18c0,.59.21,1.1.63,1.53.42.43.94.65,1.54.65h.54c.6,0,1.12.22,1.56.65.43.43.65.95.65,1.55Z"/>
      </g>
    </g>
  </g>
</svg>