<?xml version="1.0" encoding="UTF-8"?>
<svg id="Layer_2" data-name="Layer 2" xmlns="http://www.w3.org/2000/svg" viewBox="0 0 118.19 39.26">
  <defs>
    <style>
      .cls-1 {
        fill: #16f98a;
      }
    </style>
  </defs>
  <g id="Layer_1-2" data-name="Layer 1">
    <g>
      <path class="cls-1" d="m20.82,34.35c0,1.35-.48,2.51-1.45,3.47s-2.12,1.45-3.47,1.45h-1.21c-4.05,0-7.51-1.44-10.38-4.31-2.87-2.88-4.31-6.34-4.31-10.39V4.92c0-1.35.48-2.51,1.45-3.47.96-.96,2.14-1.45,3.53-1.45s2.5.49,3.47,1.45c.96.97,1.45,2.13,1.45,3.49v4.94h6.01c1.35,0,2.51.48,3.47,1.45.96.96,1.45,2.12,1.45,3.47s-.48,2.51-1.45,3.47-2.12,1.45-3.47,1.45h-6.07v4.86c0,1.31.47,2.45,1.42,3.41.94.96,2.09,1.45,3.44,1.45h1.21c1.35,0,2.51.48,3.47,1.45.96.96,1.45,2.12,1.45,3.47Z"/>
      <path class="cls-1" d="m37.53,4.92c0,1.35-.48,2.51-1.45,3.47s-2.12,1.45-3.47,1.45-2.55-.48-3.5-1.45c-.95-.96-1.42-2.12-1.42-3.47s.47-2.51,1.42-3.47c.94-.96,2.11-1.45,3.5-1.45s2.51.48,3.47,1.45c.96.96,1.45,2.12,1.45,3.47Zm0,29.43c0,1.35-.48,2.51-1.45,3.47s-2.12,1.45-3.47,1.45-2.55-.48-3.5-1.45c-.95-.96-1.42-2.12-1.42-3.47v-15.96c0-1.35.47-2.5,1.42-3.47.94-.96,2.11-1.45,3.5-1.45s2.51.48,3.47,1.45c.96.96,1.45,2.12,1.45,3.47v15.96Z"/>
      <path class="cls-1" d="m73.61,34.34c0,1.35-.48,2.51-1.45,3.48-.96.97-2.12,1.45-3.47,1.45-1.7,0-3.05-.72-4.05-2.15l-5.26-7.56h-5.03v4.8c0,1.35-.48,2.51-1.45,3.47-.96.96-2.12,1.45-3.47,1.45s-2.51-.48-3.47-1.45-1.45-2.12-1.45-3.47V4.92c0-1.35.48-2.51,1.45-3.47s2.12-1.45,3.47-1.45,2.5.48,3.47,1.45c.96.97,1.45,2.12,1.45,3.48v14.79h4.57c2.04,0,3.43-.85,4.16-2.54.46-1.54.94-3.08,1.45-4.63.73-1.7,2.12-2.54,4.16-2.54,1.35,0,2.5.48,3.47,1.45.96.97,1.45,2.12,1.45,3.48,0,4.33-1.62,7.96-4.86,10.89l3.99,5.68c.58.81.87,1.76.87,2.84Z"/>
      <path class="cls-1" d="m90.49,4.92c0,1.35-.48,2.51-1.45,3.47-.96.96-2.12,1.45-3.47,1.45s-2.55-.48-3.5-1.45c-.95-.96-1.42-2.12-1.42-3.47s.47-2.51,1.42-3.47c.94-.96,2.11-1.45,3.5-1.45s2.5.48,3.47,1.45c.96.96,1.45,2.12,1.45,3.47Zm0,29.43c0,1.35-.48,2.51-1.45,3.47-.96.96-2.12,1.45-3.47,1.45s-2.55-.48-3.5-1.45c-.95-.96-1.42-2.12-1.42-3.47v-15.96c0-1.35.47-2.5,1.42-3.47.94-.96,2.11-1.45,3.5-1.45s2.5.48,3.47,1.45c.96.96,1.45,2.12,1.45,3.47v15.96Z"/>
      <path class="cls-1" d="m118.19,34.35c0,1.35-.48,2.51-1.45,3.47s-2.12,1.45-3.47,1.45h-1.21c-4.05,0-7.51-1.44-10.38-4.31-2.87-2.88-4.31-6.34-4.31-10.39V4.92c0-1.35.48-2.51,1.45-3.47.96-.96,2.14-1.45,3.53-1.45s2.51.49,3.47,1.45c.96.97,1.45,2.13,1.45,3.49v4.94h6.01c1.35,0,2.51.48,3.47,1.45.96.96,1.45,2.12,1.45,3.47s-.48,2.51-1.45,3.47-2.12,1.45-3.47,1.45h-6.07v4.86c0,1.31.47,2.45,1.42,3.41.94.96,2.09,1.45,3.44,1.45h1.21c1.35,0,2.51.48,3.47,1.45.96.96,1.45,2.12,1.45,3.47Z"/>
    </g>
  </g>
</svg>