<?xml version="1.0" encoding="UTF-8"?>
<svg id="Layer_2" data-name="Layer 2" xmlns="http://www.w3.org/2000/svg" viewBox="0 0 76.41 40">
  <defs>
    <style>
      .cls-1 {
        fill: #16f98a;
      }
    </style>
  </defs>
  <g id="Layer_1-2" data-name="Layer 1">
    <g>
      <path class="cls-1" d="m57.26,22.05l-13.44,13.44c-2.89,2.89-6.8,4.51-10.88,4.51h-9.16c-3.08,0-4.62-3.72-2.44-5.9l10.55-10.55c.96-.96,2.27-1.5,3.63-1.5h21.75Z"/>
      <path class="cls-1" d="m75.8,3.5l-14.45,14.45h-21.4c-.91,0-1.37-1.1-.73-1.75L54.53.9c.58-.58,1.36-.9,2.18-.9h17.65c1.83,0,2.74,2.21,1.45,3.5Z"/>
      <path class="cls-1" d="m.6,25.55l9.94,9.94c2.89,2.89,6.8,4.51,10.88,4.51h9.26c3.04,0,4.57-3.68,2.41-5.83l-11.22-11.22c-.58-.58-1.36-.9-2.18-.9H2.06c-1.83,0-2.74,2.21-1.45,3.5Z"/>
    </g>
  </g>
</svg>