<?xml version="1.0" encoding="UTF-8"?>
<svg xmlns="http://www.w3.org/2000/svg" xmlns:xlink="http://www.w3.org/1999/xlink" viewBox="0 0 181.98 198.87">
  <defs>
    <style>
      .cls-1 {
        fill: url(#linear-gradient-2);
      }

      .cls-2, .cls-3, .cls-4 {
        fill: #fff;
      }

      .cls-5 {
        fill: url(#linear-gradient-17);
      }

      .cls-6 {
        fill: #0fa65c;
      }

      .cls-7 {
        fill: url(#linear-gradient-15);
      }

      .cls-8 {
        fill: url(#linear-gradient-18);
      }

      .cls-9 {
        fill: url(#linear-gradient-14);
      }

      .cls-10 {
        fill: url(#linear-gradient-20);
      }

      .cls-11 {
        fill: url(#linear-gradient-6);
      }

      .cls-12 {
        isolation: isolate;
      }

      .cls-13 {
        fill: url(#linear-gradient-11);
      }

      .cls-14 {
        fill: url(#linear-gradient-10);
      }

      .cls-3 {
        mix-blend-mode: soft-light;
      }

      .cls-15 {
        fill: url(#linear-gradient-16);
      }

      .cls-16 {
        opacity: .24;
      }

      .cls-16, .cls-17 {
        fill: #46ba81;
      }

      .cls-18 {
        fill: url(#linear-gradient-21);
      }

      .cls-19 {
        fill: url(#linear-gradient-5);
      }

      .cls-20 {
        fill: #e5fef2;
      }

      .cls-21 {
        fill: url(#linear-gradient-7);
      }

      .cls-22 {
        fill: url(#linear-gradient-9);
      }

      .cls-23 {
        fill: url(#linear-gradient-22);
      }

      .cls-24 {
        fill: url(#linear-gradient-3);
      }

      .cls-25 {
        fill: url(#linear-gradient);
      }

      .cls-4 {
        opacity: .78;
      }

      .cls-26 {
        fill: url(#linear-gradient-23);
      }

      .cls-27 {
        fill: url(#linear-gradient-19);
      }

      .cls-28 {
        fill: url(#linear-gradient-4);
      }

      .cls-29 {
        fill: url(#linear-gradient-8);
      }

      .cls-30 {
        fill: url(#linear-gradient-12);
      }

      .cls-31 {
        fill: url(#linear-gradient-13);
      }
    </style>
    <linearGradient id="linear-gradient" x1="-8367.68" y1="113.59" x2="-8146.96" y2="133.65" gradientTransform="translate(-8140.45) rotate(-180) scale(1 -1)" gradientUnits="userSpaceOnUse">
      <stop offset="0" stop-color="#021c0f"/>
      <stop offset="1" stop-color="#162e22"/>
    </linearGradient>
    <linearGradient id="linear-gradient-2" x1=".58" y1="181.44" x2="158.3" y2="82.77" gradientUnits="userSpaceOnUse">
      <stop offset="0" stop-color="#237d50"/>
      <stop offset="1" stop-color="#0a6f3d"/>
    </linearGradient>
    <linearGradient id="linear-gradient-3" x1="-8230.67" y1="124.52" x2="-8228.09" y2="217.68" xlink:href="#linear-gradient"/>
    <linearGradient id="linear-gradient-4" x1="-3387.55" y1="53.46" x2="-3471.29" y2="148.91" gradientTransform="translate(-3296.05) rotate(-180) scale(1 -1)" xlink:href="#linear-gradient"/>
    <linearGradient id="linear-gradient-5" x1="-3408.58" y1="77.34" x2="-3443.68" y2="119.71" gradientTransform="translate(-3296.05) rotate(-180) scale(1 -1)" gradientUnits="userSpaceOnUse">
      <stop offset="0" stop-color="#ff928e"/>
      <stop offset="1" stop-color="#e97971"/>
    </linearGradient>
    <linearGradient id="linear-gradient-6" x1="136.52" y1="20.3" x2="119.95" y2="102.4" gradientUnits="userSpaceOnUse">
      <stop offset="0" stop-color="#e1473d"/>
      <stop offset="1" stop-color="#e6635a"/>
    </linearGradient>
    <linearGradient id="linear-gradient-7" x1="134.36" y1="64.01" x2="143.72" y2="13.6" xlink:href="#linear-gradient-2"/>
    <linearGradient id="linear-gradient-8" x1="114.54" y1="58.17" x2="128.22" y2="-8.8" xlink:href="#linear-gradient-2"/>
    <linearGradient id="linear-gradient-9" x1="112.41" y1="86.23" x2="118.89" y2="47.1" xlink:href="#linear-gradient-2"/>
    <linearGradient id="linear-gradient-10" x1="14547.22" y1="164.62" x2="14521.98" y2="179.03" gradientTransform="translate(14588.65) rotate(-180) scale(1 -1)" gradientUnits="userSpaceOnUse">
      <stop offset="0" stop-color="#ffbab8"/>
      <stop offset="1" stop-color="#ff928e"/>
    </linearGradient>
    <linearGradient id="linear-gradient-11" x1="-9517.28" y1="-5167.59" x2="-9496.04" y2="-5227.71" gradientTransform="translate(10896.61 858.22) rotate(-26.18)" xlink:href="#linear-gradient"/>
    <linearGradient id="linear-gradient-12" x1="14544.77" y1="168.21" x2="14631.13" y2="114.15" xlink:href="#linear-gradient-10"/>
    <linearGradient id="linear-gradient-13" x1="-8069.12" y1="-6802.11" x2="-8047.88" y2="-6862.24" gradientTransform="translate(10828.09 1298.99) rotate(-37.86)" xlink:href="#linear-gradient"/>
    <linearGradient id="linear-gradient-14" x1="6183.02" y1="1179.47" x2="6201.75" y2="1141.07" gradientTransform="translate(6756.95) rotate(-180) scale(1 -1)" xlink:href="#linear-gradient-6"/>
    <linearGradient id="linear-gradient-15" x1="-13166.75" y1="-1654.6" x2="-13160.54" y2="-1639.03" gradientTransform="translate(13049.95 -2644.04) rotate(-19.17)" xlink:href="#linear-gradient"/>
    <linearGradient id="linear-gradient-16" x1="150.67" y1="136.6" x2="129.07" y2="139.48" gradientTransform="matrix(1,0,0,1,0,0)" xlink:href="#linear-gradient-5"/>
    <linearGradient id="linear-gradient-17" x1="-11465.47" y1="156.31" x2="-11440.33" y2="156.31" gradientTransform="translate(11551.11)" xlink:href="#linear-gradient-10"/>
    <linearGradient id="linear-gradient-18" x1="-13202.12" y1="-713.98" x2="-13200.89" y2="-722.97" gradientTransform="translate(13294.39 -90.17) rotate(-4.11)" xlink:href="#linear-gradient-10"/>
    <linearGradient id="linear-gradient-19" x1="-11790.11" y1="-4840.39" x2="-11778.54" y2="-4860.98" gradientTransform="translate(10567.07 -7100.42) rotate(-56.92)" xlink:href="#linear-gradient-10"/>
    <linearGradient id="linear-gradient-20" x1="-11787.63" y1="-4858.32" x2="-11781.84" y2="-4843.81" gradientTransform="translate(10567.07 -7100.42) rotate(-56.92)" xlink:href="#linear-gradient"/>
    <linearGradient id="linear-gradient-21" x1="-11787.65" y1="-4839.01" x2="-11776.08" y2="-4859.6" gradientTransform="translate(10567.07 -7100.42) rotate(-56.92)" xlink:href="#linear-gradient-10"/>
    <linearGradient id="linear-gradient-22" x1="-11482.85" y1="-222.69" x2="-11496.01" y2="-219.08" gradientTransform="translate(11564.56 -188.81) rotate(-2.83)" xlink:href="#linear-gradient"/>
    <linearGradient id="linear-gradient-23" x1="50.35" y1="153.91" x2="168.65" y2="143.95" gradientTransform="matrix(1,0,0,1,0,0)" xlink:href="#linear-gradient"/>
  </defs>
  <g class="cls-12">
    <g id="Layer_2" data-name="Layer 2">
      <g id="Layer_1-2" data-name="Layer 1">
        <g>
          <g>
            <path class="cls-6" d="m134.73,43.13c-.57-.01-1.03-.48-1.04-1.05-.11-5.86-1.94-34.98-27.57-41.06-28.54-6.77-41.61,22.25-41.61,22.25,0,0-35.32-13.55-42.09,22.74C.28,51.33-5.48,80.25,8.93,94.38c2.29,2.25,5.36,3.51,8.56,3.54l138.68,1.25c4.07.04,7.68-2.63,8.84-6.53,4.33-14.62,10.01-48.57-30.27-49.51Z"/>
            <path class="cls-17" d="m131.56,43.75c-.57-.01-1.03-.47-1.04-1.04-.11-5.62-1.92-32.62-26.07-38.28-26.99-6.33-39.34,20.78-39.34,20.78,0,0-33.39-12.65-39.8,21.23C4.57,51.36-.96,77.9,12.16,91.23c2.3,2.34,5.44,3.67,8.71,3.69l130.55,1.16c4.08.04,7.69-2.64,8.84-6.55,4.07-13.89,8.9-44.88-28.71-45.78Z"/>
          </g>
          <g>
            <path class="cls-17" d="m157.3,156.78c.55,1.45,2.4,1.87,3.53.81,6.25-5.84,22.42-23.96,20.36-53.42-1.73-24.88-.31-38.53.76-44.68.23-1.3-1.34-2.14-2.29-1.22-10.54,10.06-42.28,45.99-22.36,98.52Z"/>
            <path class="cls-3" d="m159.4,156.76s.07.04.1.05c.31.12.66-.03.79-.34.14-.35,13.98-35.62,13.13-70.31,0-.33-.29-.6-.62-.59-.33,0-.6.29-.59.62.84,34.45-12.9,69.49-13.04,69.84-.11.27,0,.58.23.73Z"/>
          </g>
          <g>
            <g>
              <path class="cls-25" d="m167.35,171.63c0,1.58-1.29,2.86-2.87,2.86H9.48c-1.58,0-2.87-1.29-2.87-2.86l-1.29-89.08c0-1.58,1.86-4.65,5.26-4.42l151.49-3.92c1.98-.05,3.89.71,5.29,2.11,1.4,1.4,2.17,3.31,2.12,5.28l-2.13,90.03Z"/>
              <path class="cls-1" d="m164.52,168.88c0,1.49-1.22,2.71-2.71,2.71H13.21c-1.49,0-2.71-1.22-2.71-2.71l-1.22-80.87c.14-4.87,4.41-6.62,7-6.51l145.19-3.9c1.39-.04,2.73.5,3.72,1.48.98.98,1.53,2.33,1.49,3.72l-2.16,86.08Z"/>
              <g>
                <path class="cls-17" d="m12.11,130.31c-.13,0-.24-.11-.24-.24l-.1-6.56c0-.13.1-.24.24-.24.14,0,.24.1.24.24l.1,6.56c0,.13-.1.24-.24.24h0Z"/>
                <path class="cls-17" d="m11.87,114.24c-.13,0-.24-.11-.24-.24l-.37-25.12c0-1.68.53-3.03,1.54-4,1.85-1.77,4.74-1.68,4.86-1.68l46.36-1.24s0,0,0,0c.13,0,.24.1.24.23,0,.13-.1.24-.23.25l-46.38,1.24c-.13,0-2.82-.09-4.52,1.54-.92.88-1.39,2.11-1.39,3.65l.37,25.11c0,.13-.1.24-.24.24h0Z"/>
              </g>
              <path class="cls-16" d="m17.05,164.4c.16-6.68.1-65.87-.29-70.98-.38-5.11,7.58-6.07,19.8-6.65,12.22-.58,115.35-2.85,118-3.07,5.97-.48,8.27,2.03,6.61,27.8-.94,14.53-1.19,38.52-1.53,49.54-.1,3.28-2.78,5.89-6.07,5.9-24.82.07-119.93.34-126.26.53-7.29.22-10.32-.42-10.26-3.07Z"/>
            </g>
            <rect class="cls-24" y="171.21" width="177.63" height="7.83" rx=".54" ry=".54"/>
            <rect class="cls-6" x="24.95" y="90.9" width="130.42" height="10.1" rx="2.16" ry="2.16"/>
            <rect class="cls-6" x="24.09" y="152.58" width="131.28" height="10.1" rx="2.76" ry="2.76"/>
            <rect class="cls-6" x="24.09" y="138.04" width="56.46" height="12.32" rx="2.79" ry="2.79"/>
            <rect class="cls-6" x="24.6" y="104.11" width="55.95" height="31.31" rx="3.38" ry="3.38"/>
            <rect class="cls-6" x="83.3" y="103.96" width="72.09" height="46.41" rx="3.38" ry="3.38"/>
          </g>
          <g>
            <polygon class="cls-2" points="69.91 46.77 62.36 42.7 66.04 35.26 61.27 36.69 57.6 44.12 65.15 48.19 69.91 46.77"/>
            <polygon class="cls-2" points="66.66 100.52 73.65 105.49 69.08 112.41 73.99 111.58 78.55 104.66 71.56 99.69 66.66 100.52"/>
            <path class="cls-2" d="m73.33,103.33c-.88.08-1.77.12-2.66.12-16.43,0-29.74-13.32-29.74-29.74,0-10.22,5.15-19.23,13-24.58.46-.32.61-.94.33-1.42-.31-.54-.6-1.07-.89-1.62-.42-.78-1.42-1.02-2.15-.52-8.86,6.16-14.67,16.42-14.67,28.03,0,18.84,15.27,34.12,34.12,34.12,1.08,0,2.15-.05,3.21-.15-.37-1.4-.51-2.81-.54-4.23Z"/>
            <path class="cls-2" d="m70.97,39.48c-3.12-.03-6.15.37-9.03,1.13.07.51.08,1.05.31,1.51.3.94.58,1.88.85,2.82,2.42-.63,4.96-.97,7.57-.97,16.39,0,29.77,13.41,29.74,29.8-.02,11.73-6.83,21.86-16.71,26.68-.6.29-.91.99-.72,1.63.14.49.28.98.42,1.47.24.82,1.15,1.23,1.92.87,11.51-5.48,19.47-17.22,19.47-30.82,0-18.77-15.05-33.95-33.82-34.11Z"/>
          </g>
          <g>
            <path class="cls-28" d="m80.96,79.03c0,17.33,14.58,31.38,32.57,31.38s33.37-14.66,33.37-32-15.39-30.77-33.37-30.77-32.57,14.05-32.57,31.38Z"/>
            <g>
              <path class="cls-17" d="m144.35,71.4s.04,0,.06,0c.12-.03.19-.15.16-.27-.35-1.27-.8-2.53-1.33-3.74-.05-.11-.18-.16-.29-.12-.11.05-.17.17-.12.28.52,1.19.97,2.43,1.31,3.68.03.1.12.16.22.16Z"/>
              <path class="cls-17" d="m139.37,61.59s.09-.01.14-.04c.1-.07.12-.21.04-.3-6.03-7.71-15.75-12.31-26-12.31-4.38,0-8.61.85-12.58,2.54-.11.05-.17.18-.12.29.05.11.18.16.3.11,3.91-1.66,8.09-2.5,12.4-2.5,10.11,0,19.69,4.54,25.64,12.14.04.06.11.09.18.09Z"/>
            </g>
            <path class="cls-19" d="m85.39,79.03c0,15,12.62,27.16,28.19,27.16s28.89-12.69,28.89-27.7-13.32-26.63-28.89-26.63-28.19,12.16-28.19,27.16Z"/>
            <path class="cls-4" d="m88.38,80.25c.07,1.15,1.1,2.03,2.29,1.97,1.2-.07,2.11-1.06,2.04-2.21-.07-1.15-1.1-2.03-2.29-1.97-1.2.07-2.11,1.06-2.04,2.21Z"/>
            <path class="cls-4" d="m117.82,99.02c-1.18.21-1.96,1.3-1.75,2.43.22,1.14,1.35,1.89,2.53,1.68,1.18-.21,1.96-1.3,1.75-2.43-.22-1.14-1.35-1.89-2.53-1.68Z"/>
            <path class="cls-4" d="m109.38,54.5c-1.18.21-1.96,1.3-1.75,2.43.22,1.14,1.35,1.89,2.53,1.68,1.18-.21,1.96-1.3,1.75-2.43-.22-1.14-1.35-1.89-2.53-1.68Z"/>
            <path class="cls-4" d="m102.39,100.21c-.22.54-.17,1.04.12,1.12.29.08.7-.28.92-.82.22-.54.17-1.04-.12-1.12-.29-.08-.7.28-.92.82Z"/>
            <path class="cls-4" d="m92.54,92.18c-.48.35-.7.8-.5,1.02.2.22.75.11,1.23-.24.48-.35.7-.8.5-1.02-.2-.22-.75-.11-1.23.24Z"/>
            <path class="cls-4" d="m91.3,68.27c-.54-.25-1.06-.23-1.17.04-.11.27.25.69.79.94.54.25,1.06.23,1.17-.04.11-.27-.25-.69-.79-.94Z"/>
            <path class="cls-4" d="m133.77,89.24c-.54-.25-1.06-.23-1.17.04-.11.27.25.69.79.94.54.25,1.06.23,1.17-.04.11-.27-.25-.69-.79-.94Z"/>
            <path class="cls-4" d="m100.27,59.34c-.33-.48-.79-.73-1.02-.55-.24.18-.16.72.17,1.2.33.48.79.73,1.02.55.24-.18.16-.72-.17-1.2Z"/>
            <path class="cls-4" d="m125.27,98.5c-.33-.48-.79-.73-1.02-.55-.24.18-.16.72.17,1.2.33.48.79.73,1.02.55.24-.18.16-.72-.17-1.2Z"/>
            <path class="cls-11" d="m112.51,51.56l.8,27.29,29.16-.35c.33-14.14-12.85-26.63-29.96-26.94Z"/>
            <path class="cls-21" d="m114.15,77.47l19.34-.55c.37-.01.61-.41.44-.73l-1.05-1.89c-.2-.37.15-.81.56-.71l16.11,3.73c.49.11.49.8,0,.94l-15.96,4.47c-.38.11-.72-.24-.59-.61l.86-2.48c.11-.31-.11-.62-.44-.63l-19.29-.58c-.27,0-.48-.22-.46-.49h0c.01-.26.23-.47.5-.48Z"/>
            <path class="cls-20" d="m147.78,78.18c.14-.07.23-.22.23-.38,0-.2-.13-.35-.33-.39l-3.46-.69c-.12-.02-.24.05-.27.17-.03.12.05.23.17.26l3.46.69c-3.64.97-12.12,3.31-12.28,3.37-.11.04-.17.17-.13.28.04.11.17.16.28.12.25-.08,6.74-1.88,12.24-3.4.03,0,.06-.02.09-.03Z"/>
            <path class="cls-29" d="m112.64,77.36l.03-16.43c0-.36-.41-.59-.74-.41l-1.96,1.05c-.38.2-.83-.13-.73-.54l4.06-15.71c.12-.48.83-.49.97-.01l4.39,15.43c.11.37-.26.7-.64.58l-2.54-.8c-.31-.1-.64.12-.65.44l-1.19,16.4c-.01.26-.24.47-.51.46h0c-.27,0-.48-.21-.49-.47Z"/>
            <path class="cls-20" d="m117.31,59.25s.06,0,.08-.01c.11-.04.17-.17.13-.28-.08-.24-1.84-6.52-3.33-11.83-.05-.19-.22-.31-.43-.31-.2,0-.37.14-.41.33l-.76,3.37c-.03.12.05.23.17.26.12.03.24-.05.27-.17l.76-3.37c.95,3.52,3.24,11.71,3.31,11.87.03.09.12.14.21.14Z"/>
            <ellipse class="cls-22" cx="113.73" cy="78.24" rx="2.32" ry="2.23"/>
            <path class="cls-4" d="m121.25,57.98c-.22.54-.17,1.04.12,1.12.29.08.7-.28.92-.82.22-.54.17-1.04-.12-1.12-.29-.08-.7.28-.92.82Z"/>
            <path class="cls-4" d="m131.42,65.53c-.48.35-.7.8-.5,1.02.2.22.75.11,1.23-.24.48-.35.7-.8.5-1.02-.2-.22-.75-.11-1.23.24Z"/>
          </g>
          <g>
            <path class="cls-14" d="m45.27,188.1s16.04-28.05,18.2-30.69c.36-.44.93-.67,1.5-.6l4.47.53,5.25,11.36-8.75-5.09c.87,5.98-10.37,14.88-14.22,18.12-.39.33-.42.92-.07,1.29l1.54,1.61c-2.53,2.56-5.44,4.2-8.73,4.96l.81-1.5Z"/>
            <path class="cls-13" d="m52.3,183.77s.98.32,1.31,1.19c.16.42-.01.89-.38,1.15-1.62,1.16-6.95,4.9-9.41,5.63-.2.06-.39-.12-.35-.33.13-.57.53-1.71,1.85-3.38l-.12.24c-.15.3.18.62.47.45,1.65-.93,5-2.96,6.61-4.95Z"/>
            <path class="cls-30" d="m51.51,194.99s2.43-5.8,2.46-5.82c2.2-13.41,7.58-24.89,9.16-27.91.27-.51.77-.84,1.34-.89l4.48-.38,7.44,10.06-9.6-3.22c2.06,5.69-7.14,16.67-10.26,20.63-.32.4-.23.99.19,1.28l1.83,1.27c-1.96,3.02-4.48,5.22-7.54,6.63l.49-1.63Z"/>
            <path class="cls-31" d="m57.51,189.32s1.03.11,1.53.9c.24.38.17.88-.14,1.21-1.35,1.46-5.81,6.2-8.08,7.42-.19.1-.41-.04-.41-.25,0-.59.18-1.79,1.13-3.69l-.07.26c-.09.33.3.57.55.35,1.42-1.24,4.3-3.91,5.48-6.19Z"/>
            <path class="cls-9" d="m89.94,157.86s4.06,6.03,4.39,8.78c.33,2.75-1.12,3.7-5.37,4.05-12.63,1.04-18.86-2.74-18.86-2.74-.86-5.51-1.48-6.91-8.7-9.91,0,0,9.13.72,10.97.01,1.84-.71,17.57-.2,17.57-.2Z"/>
            <g>
              <path class="cls-7" d="m73.76,124.06s2.83-3.34,5.83.76c.54.74,2.63.13,3.4,1.68.4.8,1.25,1.26,2.13,1.1,2.19-.4,5.77-.44,7.54,3,1.35,2.62.31,4.16-1.04,5.03-.99.64-1.34,1.95-.75,2.96.57.98.68,2.3-.8,3.89-3.33,3.57-9.91-2.26-9.91-2.26l-5.23-12.35-1.17-3.8Z"/>
              <path class="cls-15" d="m78.97,157.06s-4.72-4.5-7.05-7.48c-1.26-1.61-1.65-3.73-1.07-5.69,1.06-3.58,2.95-7.28,3.12-7.86.26-.88,5.56-.85,5.56-.85,0,0,10.42,6.76,14.52,18.22l-4.6,1.43s-2.72-4.57-5.41-7.47c0,0,4.65,6.15,4.82,8.66l-9.89,1.02Z"/>
              <path class="cls-5" d="m69.97,158.83l3.55-3.86,4.1,1.1s4.78.74,7.51,0l2.74-.74,6.18-1.92.97,2.74c.25.7,0,1.47-.6,1.9-.53.38-1.16.8-1.56.97-.81.36-18.75.11-18.75.11l-4.13-.3Z"/>
              <path class="cls-8" d="m75.89,128.82l3.56,6.62c-.24,1.44-3.87,1.49-4.44.62-.06-.09-.09-.19-.11-.29l-2.13-4.42c-.09-.43,1.09-1.88,1.48-2.09l1.41-.75c.54-.29-1.73-.31.22.32Z"/>
              <g>
                <path class="cls-27" d="m68.69,127.27s-.4,2.24,1.36,5.08c1.76,2.84,3.51,2.71,4.4,1.7.89-1.01,1.95-2.7,1.47-5.54-.48-2.84-6.62-4.09-7.22-1.24Z"/>
                <path class="cls-10" d="m73.78,128.82s-2.85-3.74-5.03-.48l.04,1.13s-2.84-.13-2.53-2.75c.31-2.62,2.63-4.41,5.84-3.51s5.1,1.91,5.46,4.15c.36,2.23-1.46,1.87-1.46,1.87,0,0-.7-1.54-1.54-1.65-.84-.11-.54,1.11-.54,1.11l-.24.14Z"/>
                <path class="cls-18" d="m74.43,128.72s-1.47-1.91-.13-2.31c1.34-.4,1.29,1.87,1.2,2.72l-1.07-.41Z"/>
              </g>
            </g>
            <g>
              <path class="cls-23" d="m81.72,160.36s-.02,0-.04,0l-16.32-.02c-.4,0-.73-.33-.73-.73,0-.4.33-.74.73-.73l16.32.02c.4,0,.73.33.73.73,0,.39-.31.71-.69.73Z"/>
              <path class="cls-26" d="m50.68,145.54h13.6c1,0,1.92.58,2.34,1.49l6.29,13.33h-16.9c-.65,0-1.23-.39-1.46-1l-4.87-12.33c-.28-.71.24-1.48,1.01-1.48Z"/>
              <path class="cls-6" d="m60.26,152.37c.29.92.08,1.8-.49,1.99-.56.18-1.26-.41-1.55-1.33-.29-.92-.08-1.8.49-1.99.56-.18,1.26.41,1.55,1.33Z"/>
            </g>
          </g>
        </g>
      </g>
    </g>
  </g>
</svg>