<?xml version="1.0" encoding="UTF-8"?>
<svg xmlns="http://www.w3.org/2000/svg" xmlns:xlink="http://www.w3.org/1999/xlink" viewBox="0 0 200 197.88">
  <defs>
    <style>
      .cls-1 {
        fill: url(#linear-gradient-119);
      }

      .cls-2 {
        fill: url(#linear-gradient-60);
      }

      .cls-2, .cls-3, .cls-4, .cls-5, .cls-6, .cls-7, .cls-8, .cls-9, .cls-10, .cls-11, .cls-12, .cls-13, .cls-14, .cls-15, .cls-16, .cls-17, .cls-18 {
        mix-blend-mode: screen;
        opacity: .16;
      }

      .cls-19 {
        fill: url(#linear-gradient-54);
      }

      .cls-19, .cls-20, .cls-21, .cls-22, .cls-23, .cls-24, .cls-25, .cls-26, .cls-27, .cls-28, .cls-29, .cls-30, .cls-31, .cls-32, .cls-33, .cls-34, .cls-35, .cls-36, .cls-37, .cls-38, .cls-39, .cls-40, .cls-41, .cls-42, .cls-43, .cls-44, .cls-45, .cls-46, .cls-47, .cls-48, .cls-49, .cls-50, .cls-51, .cls-52, .cls-53, .cls-54, .cls-55, .cls-56, .cls-57, .cls-58, .cls-59, .cls-60, .cls-61, .cls-62, .cls-63, .cls-64, .cls-65, .cls-66, .cls-67, .cls-68, .cls-69, .cls-70, .cls-71, .cls-72, .cls-73, .cls-74, .cls-75, .cls-76, .cls-77, .cls-78, .cls-79, .cls-80, .cls-81, .cls-82, .cls-83, .cls-84, .cls-85, .cls-86, .cls-87, .cls-88, .cls-89, .cls-90 {
        mix-blend-mode: multiply;
      }

      .cls-19, .cls-20, .cls-21, .cls-22, .cls-23, .cls-24, .cls-25, .cls-26, .cls-27, .cls-28, .cls-29, .cls-30, .cls-31, .cls-32, .cls-33, .cls-34, .cls-35, .cls-36, .cls-37, .cls-38, .cls-39, .cls-40, .cls-42, .cls-43, .cls-44, .cls-45, .cls-46, .cls-47, .cls-49, .cls-50, .cls-52, .cls-53, .cls-54, .cls-55, .cls-56, .cls-57, .cls-58, .cls-59, .cls-60, .cls-61, .cls-62, .cls-64, .cls-65, .cls-66, .cls-67, .cls-68, .cls-69, .cls-70, .cls-72, .cls-73, .cls-74, .cls-75, .cls-76, .cls-77, .cls-79, .cls-80, .cls-81, .cls-82, .cls-83, .cls-84, .cls-85, .cls-86, .cls-87, .cls-89, .cls-90 {
        opacity: .3;
      }

      .cls-3, .cls-91 {
        fill: #fff;
      }

      .cls-20 {
        fill: url(#linear-gradient-69);
      }

      .cls-21 {
        fill: url(#linear-gradient-38);
      }

      .cls-22 {
        fill: url(#linear-gradient-30);
      }

      .cls-92 {
        fill: url(#linear-gradient-122);
      }

      .cls-4 {
        fill: url(#linear-gradient-7);
      }

      .cls-93 {
        fill: url(#linear-gradient-87);
      }

      .cls-94 {
        fill: url(#linear-gradient-93);
      }

      .cls-23 {
        fill: url(#linear-gradient-73);
      }

      .cls-24 {
        fill: url(#linear-gradient-63);
      }

      .cls-95 {
        fill: url(#linear-gradient-109);
      }

      .cls-96 {
        fill: url(#linear-gradient-43);
      }

      .cls-25 {
        fill: url(#linear-gradient-36);
      }

      .cls-26 {
        fill: url(#linear-gradient-57);
      }

      .cls-27 {
        fill: url(#linear-gradient-9);
      }

      .cls-5 {
        fill: url(#linear-gradient-37);
      }

      .cls-28 {
        fill: url(#linear-gradient-101);
      }

      .cls-29 {
        fill: url(#linear-gradient-79);
      }

      .cls-97 {
        isolation: isolate;
      }

      .cls-30 {
        fill: url(#linear-gradient-20);
      }

      .cls-6 {
        fill: url(#linear-gradient-32);
      }

      .cls-31 {
        fill: url(#linear-gradient-81);
      }

      .cls-32 {
        fill: url(#linear-gradient-16);
      }

      .cls-33 {
        fill: url(#linear-gradient-29);
      }

      .cls-34 {
        fill: url(#linear-gradient-8);
      }

      .cls-98 {
        fill: url(#linear-gradient-108);
      }

      .cls-35 {
        fill: url(#linear-gradient-15);
      }

      .cls-7 {
        fill: url(#linear-gradient-65);
      }

      .cls-36 {
        fill: url(#linear-gradient-35);
      }

      .cls-99 {
        fill: url(#linear-gradient-104);
      }

      .cls-8 {
        fill: url(#linear-gradient-50);
      }

      .cls-100 {
        fill: url(#linear-gradient-120);
      }

      .cls-101 {
        fill: url(#linear-gradient-97);
      }

      .cls-9 {
        fill: url(#linear-gradient-22);
      }

      .cls-37 {
        fill: url(#linear-gradient-33);
      }

      .cls-102 {
        fill: url(#linear-gradient-106);
      }

      .cls-38 {
        fill: url(#linear-gradient-77);
      }

      .cls-103 {
        fill: url(#linear-gradient-95);
      }

      .cls-104 {
        fill: #e1eae6;
      }

      .cls-10 {
        fill: url(#linear-gradient-55);
      }

      .cls-105 {
        fill: url(#linear-gradient-86);
      }

      .cls-39 {
        fill: url(#linear-gradient-62);
      }

      .cls-106 {
        fill: url(#linear-gradient-110);
      }

      .cls-40 {
        fill: url(#linear-gradient-47);
      }

      .cls-41 {
        fill: url(#linear-gradient-88);
      }

      .cls-41, .cls-48, .cls-51, .cls-71, .cls-78 {
        opacity: .25;
      }

      .cls-42 {
        fill: url(#linear-gradient-78);
      }

      .cls-11 {
        fill: url(#linear-gradient-17);
      }

      .cls-12 {
        fill: url(#linear-gradient-75);
      }

      .cls-43 {
        fill: url(#linear-gradient-76);
      }

      .cls-44 {
        fill: url(#linear-gradient-84);
      }

      .cls-107 {
        fill: url(#linear-gradient-117);
      }

      .cls-45 {
        fill: url(#linear-gradient-46);
      }

      .cls-46 {
        fill: url(#linear-gradient-23);
      }

      .cls-47 {
        fill: url(#linear-gradient-48);
      }

      .cls-48 {
        fill: url(#linear-gradient-92);
      }

      .cls-108 {
        fill: url(#linear-gradient-85);
      }

      .cls-49 {
        fill: url(#linear-gradient-18);
      }

      .cls-109 {
        fill: url(#linear-gradient-112);
      }

      .cls-50 {
        fill: url(#linear-gradient-61);
      }

      .cls-51 {
        fill: url(#linear-gradient-116);
      }

      .cls-110 {
        fill: url(#linear-gradient-114);
      }

      .cls-111 {
        fill: url(#linear-gradient-103);
      }

      .cls-52 {
        fill: url(#linear-gradient-26);
      }

      .cls-53 {
        fill: url(#linear-gradient-4);
      }

      .cls-112 {
        fill: url(#linear-gradient-107);
      }

      .cls-13 {
        fill: url(#linear-gradient-80);
      }

      .cls-54 {
        fill: url(#linear-gradient-24);
      }

      .cls-14 {
        fill: url(#linear-gradient-27);
      }

      .cls-113 {
        fill: url(#linear-gradient-98);
      }

      .cls-55 {
        fill: url(#linear-gradient-25);
      }

      .cls-56 {
        fill: url(#linear-gradient-31);
      }

      .cls-57 {
        fill: url(#linear-gradient-52);
      }

      .cls-114 {
        fill: url(#linear-gradient-121);
      }

      .cls-115 {
        fill: url(#linear-gradient-89);
      }

      .cls-58 {
        fill: url(#linear-gradient-10);
      }

      .cls-116 {
        fill: url(#linear-gradient-102);
      }

      .cls-59 {
        fill: url(#linear-gradient-49);
      }

      .cls-117 {
        fill: url(#linear-gradient-113);
      }

      .cls-60 {
        fill: url(#linear-gradient-19);
      }

      .cls-118 {
        fill: url(#linear-gradient-118);
      }

      .cls-61 {
        fill: url(#linear-gradient-6);
      }

      .cls-62 {
        fill: url(#linear-gradient-40);
      }

      .cls-63 {
        fill: url(#linear-gradient-42);
      }

      .cls-63, .cls-88 {
        opacity: .5;
      }

      .cls-64 {
        fill: url(#linear-gradient-58);
      }

      .cls-65 {
        fill: url(#linear-gradient-34);
      }

      .cls-66 {
        fill: url(#linear-gradient-71);
      }

      .cls-67 {
        fill: url(#linear-gradient-28);
      }

      .cls-119 {
        fill: url(#linear-gradient-96);
      }

      .cls-68 {
        fill: url(#linear-gradient-82);
      }

      .cls-69 {
        fill: url(#linear-gradient-5);
      }

      .cls-70 {
        fill: url(#linear-gradient-21);
      }

      .cls-120 {
        fill: url(#linear-gradient-100);
      }

      .cls-71 {
        fill: url(#linear-gradient-111);
      }

      .cls-121 {
        fill: url(#linear-gradient-105);
      }

      .cls-15 {
        fill: url(#linear-gradient-12);
      }

      .cls-72 {
        fill: url(#linear-gradient-11);
      }

      .cls-73 {
        fill: url(#linear-gradient-53);
      }

      .cls-122 {
        fill: url(#linear-gradient-99);
      }

      .cls-74 {
        fill: url(#linear-gradient-14);
      }

      .cls-75 {
        fill: url(#linear-gradient-64);
      }

      .cls-76 {
        fill: url(#linear-gradient-74);
      }

      .cls-123 {
        fill: url(#linear-gradient);
      }

      .cls-77 {
        fill: url(#linear-gradient-72);
      }

      .cls-78 {
        fill: url(#linear-gradient-91);
      }

      .cls-79 {
        fill: url(#linear-gradient-59);
      }

      .cls-80 {
        fill: url(#linear-gradient-66);
      }

      .cls-81 {
        fill: url(#linear-gradient-56);
      }

      .cls-82 {
        fill: url(#linear-gradient-39);
      }

      .cls-83 {
        fill: url(#linear-gradient-68);
      }

      .cls-84 {
        fill: url(#linear-gradient-3);
      }

      .cls-85 {
        fill: url(#linear-gradient-41);
      }

      .cls-124 {
        fill: url(#linear-gradient-94);
      }

      .cls-16 {
        fill: url(#linear-gradient-70);
      }

      .cls-86 {
        fill: url(#linear-gradient-83);
      }

      .cls-17 {
        fill: url(#linear-gradient-2);
      }

      .cls-87 {
        fill: url(#linear-gradient-51);
      }

      .cls-125 {
        fill: url(#linear-gradient-115);
      }

      .cls-88 {
        fill: url(#linear-gradient-44);
      }

      .cls-89 {
        fill: url(#linear-gradient-13);
      }

      .cls-126 {
        fill: url(#linear-gradient-90);
      }

      .cls-90 {
        fill: url(#linear-gradient-67);
      }

      .cls-18 {
        fill: url(#linear-gradient-45);
      }
    </style>
    <linearGradient id="linear-gradient" x1="83.6" y1="82.1" x2="125.39" y2="82.1" gradientUnits="userSpaceOnUse">
      <stop offset="0" stop-color="#d5e2db"/>
      <stop offset="1" stop-color="#a6c1b4"/>
    </linearGradient>
    <linearGradient id="linear-gradient-2" x1="99.47" y1="-49.45" x2="203.95" y2="124.06" xlink:href="#linear-gradient"/>
    <linearGradient id="linear-gradient-3" x1="84.11" y1="-40.2" x2="188.59" y2="133.31" xlink:href="#linear-gradient"/>
    <linearGradient id="linear-gradient-4" x1="87.03" y1="-41.95" x2="191.5" y2="131.55" xlink:href="#linear-gradient"/>
    <linearGradient id="linear-gradient-5" x1="89.92" y1="-43.7" x2="194.4" y2="129.81" xlink:href="#linear-gradient"/>
    <linearGradient id="linear-gradient-6" x1="104.17" y1="-52.27" x2="208.65" y2="121.23" xlink:href="#linear-gradient"/>
    <linearGradient id="linear-gradient-7" x1="92.81" y1="-45.44" x2="197.29" y2="128.07" xlink:href="#linear-gradient"/>
    <linearGradient id="linear-gradient-8" x1="77.34" y1="-36.12" x2="181.82" y2="137.39" xlink:href="#linear-gradient"/>
    <linearGradient id="linear-gradient-9" x1="80.27" y1="-37.89" x2="184.75" y2="135.62" xlink:href="#linear-gradient"/>
    <linearGradient id="linear-gradient-10" x1="83.19" y1="-39.64" x2="187.67" y2="133.86" xlink:href="#linear-gradient"/>
    <linearGradient id="linear-gradient-11" x1="97.54" y1="-48.28" x2="202.02" y2="125.22" xlink:href="#linear-gradient"/>
    <linearGradient id="linear-gradient-12" x1="86.16" y1="-41.43" x2="190.63" y2="132.08" xlink:href="#linear-gradient"/>
    <linearGradient id="linear-gradient-13" x1="70.57" y1="-32.04" x2="175.05" y2="141.46" xlink:href="#linear-gradient"/>
    <linearGradient id="linear-gradient-14" x1="73.52" y1="-33.82" x2="178" y2="139.69" xlink:href="#linear-gradient"/>
    <linearGradient id="linear-gradient-15" x1="76.46" y1="-35.59" x2="180.93" y2="137.92" xlink:href="#linear-gradient"/>
    <linearGradient id="linear-gradient-16" x1="90.92" y1="-44.29" x2="195.39" y2="129.21" xlink:href="#linear-gradient"/>
    <linearGradient id="linear-gradient-17" x1="79.5" y1="-37.42" x2="183.97" y2="136.09" xlink:href="#linear-gradient"/>
    <linearGradient id="linear-gradient-18" x1="63.8" y1="-27.96" x2="168.27" y2="145.54" xlink:href="#linear-gradient"/>
    <linearGradient id="linear-gradient-19" x1="66.77" y1="-29.75" x2="171.25" y2="143.75" xlink:href="#linear-gradient"/>
    <linearGradient id="linear-gradient-20" x1="69.72" y1="-31.53" x2="174.2" y2="141.97" xlink:href="#linear-gradient"/>
    <linearGradient id="linear-gradient-21" x1="84.29" y1="-40.3" x2="188.77" y2="133.2" xlink:href="#linear-gradient"/>
    <linearGradient id="linear-gradient-22" x1="72.84" y1="-33.41" x2="177.32" y2="140.1" xlink:href="#linear-gradient"/>
    <linearGradient id="linear-gradient-23" x1="57.02" y1="-23.89" x2="161.5" y2="149.62" xlink:href="#linear-gradient"/>
    <linearGradient id="linear-gradient-24" x1="60.02" y1="-25.69" x2="164.49" y2="147.82" xlink:href="#linear-gradient"/>
    <linearGradient id="linear-gradient-25" x1="62.99" y1="-27.48" x2="167.47" y2="146.03" xlink:href="#linear-gradient"/>
    <linearGradient id="linear-gradient-26" x1="77.66" y1="-36.31" x2="182.14" y2="137.19" xlink:href="#linear-gradient"/>
    <linearGradient id="linear-gradient-27" x1="66.18" y1="-29.4" x2="170.66" y2="144.11" xlink:href="#linear-gradient"/>
    <linearGradient id="linear-gradient-28" x1="50.25" y1="-19.81" x2="154.73" y2="153.7" xlink:href="#linear-gradient"/>
    <linearGradient id="linear-gradient-29" x1="53.26" y1="-21.62" x2="157.74" y2="151.88" xlink:href="#linear-gradient"/>
    <linearGradient id="linear-gradient-30" x1="56.26" y1="-23.43" x2="160.74" y2="150.08" xlink:href="#linear-gradient"/>
    <linearGradient id="linear-gradient-31" x1="71.04" y1="-32.32" x2="175.51" y2="141.18" xlink:href="#linear-gradient"/>
    <linearGradient id="linear-gradient-32" x1="59.52" y1="-25.39" x2="164" y2="148.11" xlink:href="#linear-gradient"/>
    <linearGradient id="linear-gradient-33" x1="43.48" y1="-15.73" x2="147.96" y2="157.78" xlink:href="#linear-gradient"/>
    <linearGradient id="linear-gradient-34" x1="46.51" y1="-17.56" x2="150.99" y2="155.95" xlink:href="#linear-gradient"/>
    <linearGradient id="linear-gradient-35" x1="49.53" y1="-19.37" x2="154" y2="154.14" xlink:href="#linear-gradient"/>
    <linearGradient id="linear-gradient-36" x1="64.41" y1="-28.33" x2="168.89" y2="145.17" xlink:href="#linear-gradient"/>
    <linearGradient id="linear-gradient-37" x1="52.87" y1="-21.38" x2="157.34" y2="152.12" xlink:href="#linear-gradient"/>
    <linearGradient id="linear-gradient-38" x1="36.71" y1="-11.65" x2="141.18" y2="161.85" xlink:href="#linear-gradient"/>
    <linearGradient id="linear-gradient-39" x1="39.76" y1="-13.49" x2="144.24" y2="160.02" xlink:href="#linear-gradient"/>
    <linearGradient id="linear-gradient-40" x1="42.79" y1="-15.32" x2="147.27" y2="158.19" xlink:href="#linear-gradient"/>
    <linearGradient id="linear-gradient-41" x1="57.78" y1="-24.34" x2="162.26" y2="149.16" xlink:href="#linear-gradient"/>
    <linearGradient id="linear-gradient-42" x1="113.47" y1="82.09" x2="173.83" y2="82.09" xlink:href="#linear-gradient"/>
    <linearGradient id="linear-gradient-43" x1="26.99" y1="82.97" x2="-19.42" y2="228.88" xlink:href="#linear-gradient"/>
    <linearGradient id="linear-gradient-44" x1="32.29" y1="83.87" x2="-13.65" y2="228.28" xlink:href="#linear-gradient"/>
    <linearGradient id="linear-gradient-45" x1="49.45" y1="-19.33" x2="153.93" y2="154.18" xlink:href="#linear-gradient"/>
    <linearGradient id="linear-gradient-46" x1="32.43" y1="-9.08" x2="136.91" y2="164.43" xlink:href="#linear-gradient"/>
    <linearGradient id="linear-gradient-47" x1="35.65" y1="-11.02" x2="140.13" y2="162.49" xlink:href="#linear-gradient"/>
    <linearGradient id="linear-gradient-48" x1="38.85" y1="-12.94" x2="143.33" y2="160.56" xlink:href="#linear-gradient"/>
    <linearGradient id="linear-gradient-49" x1="54.65" y1="-22.45" x2="159.12" y2="151.05" xlink:href="#linear-gradient"/>
    <linearGradient id="linear-gradient-50" x1="42.46" y1="-15.12" x2="146.94" y2="158.39" xlink:href="#linear-gradient"/>
    <linearGradient id="linear-gradient-51" x1="25.31" y1="-4.79" x2="129.79" y2="168.72" xlink:href="#linear-gradient"/>
    <linearGradient id="linear-gradient-52" x1="28.55" y1="-6.74" x2="133.03" y2="166.76" xlink:href="#linear-gradient"/>
    <linearGradient id="linear-gradient-53" x1="31.77" y1="-8.68" x2="136.25" y2="164.82" xlink:href="#linear-gradient"/>
    <linearGradient id="linear-gradient-54" x1="47.69" y1="-18.26" x2="152.16" y2="155.24" xlink:href="#linear-gradient"/>
    <linearGradient id="linear-gradient-55" x1="35.47" y1="-10.91" x2="139.94" y2="162.6" xlink:href="#linear-gradient"/>
    <linearGradient id="linear-gradient-56" x1="18.19" y1="-.5" x2="122.67" y2="173" xlink:href="#linear-gradient"/>
    <linearGradient id="linear-gradient-57" x1="21.45" y1="-2.47" x2="125.93" y2="171.04" xlink:href="#linear-gradient"/>
    <linearGradient id="linear-gradient-58" x1="24.7" y1="-4.42" x2="129.18" y2="169.08" xlink:href="#linear-gradient"/>
    <linearGradient id="linear-gradient-59" x1="40.73" y1="-14.07" x2="145.21" y2="159.43" xlink:href="#linear-gradient"/>
    <linearGradient id="linear-gradient-60" x1="28.47" y1="-6.69" x2="132.95" y2="166.81" xlink:href="#linear-gradient"/>
    <linearGradient id="linear-gradient-61" x1="11.07" y1="3.78" x2="115.55" y2="177.29" xlink:href="#linear-gradient"/>
    <linearGradient id="linear-gradient-62" x1="14.36" y1="1.81" x2="118.83" y2="175.31" xlink:href="#linear-gradient"/>
    <linearGradient id="linear-gradient-63" x1="17.62" y1="-.16" x2="122.1" y2="173.35" xlink:href="#linear-gradient"/>
    <linearGradient id="linear-gradient-64" x1="33.77" y1="-9.88" x2="138.25" y2="163.62" xlink:href="#linear-gradient"/>
    <linearGradient id="linear-gradient-65" x1="21.48" y1="-2.48" x2="125.96" y2="171.02" xlink:href="#linear-gradient"/>
    <linearGradient id="linear-gradient-66" x1="3.95" y1="8.07" x2="108.43" y2="181.58" xlink:href="#linear-gradient"/>
    <linearGradient id="linear-gradient-67" x1="7.26" y1="6.08" x2="111.74" y2="179.59" xlink:href="#linear-gradient"/>
    <linearGradient id="linear-gradient-68" x1="10.55" y1="4.1" x2="115.02" y2="177.61" xlink:href="#linear-gradient"/>
    <linearGradient id="linear-gradient-69" x1="26.81" y1="-5.69" x2="131.29" y2="167.81" xlink:href="#linear-gradient"/>
    <linearGradient id="linear-gradient-70" x1="14.49" y1="1.73" x2="118.96" y2="175.23" xlink:href="#linear-gradient"/>
    <linearGradient id="linear-gradient-71" x1="-3.17" y1="12.36" x2="101.31" y2="185.86" xlink:href="#linear-gradient"/>
    <linearGradient id="linear-gradient-72" x1=".16" y1="10.35" x2="104.64" y2="183.86" xlink:href="#linear-gradient"/>
    <linearGradient id="linear-gradient-73" x1="3.47" y1="8.36" x2="107.95" y2="181.87" xlink:href="#linear-gradient"/>
    <linearGradient id="linear-gradient-74" x1="19.85" y1="-1.5" x2="124.33" y2="172" xlink:href="#linear-gradient"/>
    <linearGradient id="linear-gradient-75" x1="7.49" y1="5.94" x2="111.97" y2="179.44" xlink:href="#linear-gradient"/>
    <linearGradient id="linear-gradient-76" x1="-10.28" y1="16.64" x2="94.19" y2="190.15" xlink:href="#linear-gradient"/>
    <linearGradient id="linear-gradient-77" x1="-6.93" y1="14.63" x2="97.54" y2="188.13" xlink:href="#linear-gradient"/>
    <linearGradient id="linear-gradient-78" x1="-3.61" y1="12.62" x2="100.87" y2="186.13" xlink:href="#linear-gradient"/>
    <linearGradient id="linear-gradient-79" x1="12.89" y1="2.69" x2="117.37" y2="176.19" xlink:href="#linear-gradient"/>
    <linearGradient id="linear-gradient-80" x1=".5" y1="10.15" x2="104.98" y2="183.65" xlink:href="#linear-gradient"/>
    <linearGradient id="linear-gradient-81" x1="-17.4" y1="20.93" x2="87.07" y2="194.44" xlink:href="#linear-gradient"/>
    <linearGradient id="linear-gradient-82" x1="-14.03" y1="18.9" x2="90.44" y2="192.41" xlink:href="#linear-gradient"/>
    <linearGradient id="linear-gradient-83" x1="-10.68" y1="16.88" x2="93.8" y2="190.39" xlink:href="#linear-gradient"/>
    <linearGradient id="linear-gradient-84" x1="5.94" y1="6.88" x2="110.41" y2="180.38" xlink:href="#linear-gradient"/>
    <linearGradient id="linear-gradient-85" x1="172.87" y1="14.6" x2="164.87" y2="78.67" gradientUnits="userSpaceOnUse">
      <stop offset="0" stop-color="#4afaa4"/>
      <stop offset="1" stop-color="#0fa65c"/>
    </linearGradient>
    <linearGradient id="linear-gradient-86" x1="55.49" y1="165" x2="90.16" y2="165" gradientUnits="userSpaceOnUse">
      <stop offset="0" stop-color="#589d7b"/>
      <stop offset="1" stop-color="#237d50"/>
    </linearGradient>
    <linearGradient id="linear-gradient-87" x1="44.54" y1="150.02" x2="144.83" y2="197.3" gradientUnits="userSpaceOnUse">
      <stop offset="0" stop-color="#b1d1c1"/>
      <stop offset="1" stop-color="#7bb196"/>
    </linearGradient>
    <linearGradient id="linear-gradient-88" x1="-3082.8" y1="160.95" x2="-3053.66" y2="160.95" gradientTransform="translate(-2998.18) rotate(-180) scale(1 -1)" xlink:href="#linear-gradient-87"/>
    <linearGradient id="linear-gradient-89" x1="-3072.93" y1="147.48" x2="-3069.07" y2="147.48" gradientTransform="translate(-2998.18) rotate(-180) scale(1 -1)" gradientUnits="userSpaceOnUse">
      <stop offset="0" stop-color="#b0c8bc"/>
      <stop offset="1" stop-color="#81a794"/>
    </linearGradient>
    <linearGradient id="linear-gradient-90" x1="-3051.86" y1="143.38" x2="-3058.93" y2="134.17" gradientTransform="translate(-2998.18) rotate(-180) scale(1 -1)" gradientUnits="userSpaceOnUse">
      <stop offset="0" stop-color="#0a6f3d"/>
      <stop offset="1" stop-color="#142c20"/>
    </linearGradient>
    <linearGradient id="linear-gradient-91" x1="-3067.97" y1="122.81" x2="-3058.89" y2="98.74" gradientTransform="translate(-2998.18) rotate(-180) scale(1 -1)" xlink:href="#linear-gradient-86"/>
    <linearGradient id="linear-gradient-92" x1="-3073.05" y1="127.11" x2="-3073.19" y2="138.89" gradientTransform="translate(-2998.18) rotate(-180) scale(1 -1)" xlink:href="#linear-gradient-86"/>
    <linearGradient id="linear-gradient-93" x1="-3133.75" y1="81.49" x2="-3089.71" y2="111.4" gradientTransform="translate(-2998.18) rotate(-180) scale(1 -1)" gradientUnits="userSpaceOnUse">
      <stop offset="0" stop-color="#ec8d86"/>
      <stop offset="1" stop-color="#e97971"/>
    </linearGradient>
    <linearGradient id="linear-gradient-94" x1="-3099.56" y1="174.86" x2="-3090.58" y2="174.86" gradientTransform="translate(-2998.18) rotate(-180) scale(1 -1)" gradientUnits="userSpaceOnUse">
      <stop offset="0" stop-color="#021c0f"/>
      <stop offset="1" stop-color="#241f21"/>
    </linearGradient>
    <linearGradient id="linear-gradient-95" x1="-3095.62" y1="180.05" x2="-3080.63" y2="135.08" gradientTransform="translate(-2998.18) rotate(-180) scale(1 -1)" gradientUnits="userSpaceOnUse">
      <stop offset="0" stop-color="#cbaf85"/>
      <stop offset="1" stop-color="#ba7c44"/>
    </linearGradient>
    <linearGradient id="linear-gradient-96" x1="-3117.07" y1="168.77" x2="-3108.1" y2="168.77" xlink:href="#linear-gradient-94"/>
    <linearGradient id="linear-gradient-97" x1="-3113.14" y1="173.96" x2="-3098.15" y2="128.99" xlink:href="#linear-gradient-95"/>
    <linearGradient id="linear-gradient-98" x1="-3097.67" y1="168.46" x2="-3087.03" y2="134.77" xlink:href="#linear-gradient-94"/>
    <linearGradient id="linear-gradient-99" x1="-3096.54" y1="135.91" x2="-3070.75" y2="141.18" xlink:href="#linear-gradient-94"/>
    <linearGradient id="linear-gradient-100" x1="-3081.92" y1="92.1" x2="-3156.58" y2=".85" xlink:href="#linear-gradient-93"/>
    <linearGradient id="linear-gradient-101" x1="-3116.33" y1="84.97" x2="-3042.63" y2="135.03" xlink:href="#linear-gradient-93"/>
    <linearGradient id="linear-gradient-102" x1="89.03" y1="74.97" x2="97.78" y2="74.97" gradientTransform="matrix(1,0,0,1,0,0)" xlink:href="#linear-gradient-95"/>
    <linearGradient id="linear-gradient-103" x1="-3680.6" y1="-438.67" x2="-3687.97" y2="-457.38" gradientTransform="translate(-3551.54 -612.05) rotate(-162.42) scale(1 -1)" xlink:href="#linear-gradient-94"/>
    <linearGradient id="linear-gradient-104" x1="94.77" y1="73.96" x2="101.55" y2="73.96" gradientTransform="matrix(1,0,0,1,0,0)" xlink:href="#linear-gradient-95"/>
    <linearGradient id="linear-gradient-105" x1="134.42" y1="133.16" x2="145.28" y2="133.16" xlink:href="#linear-gradient-86"/>
    <linearGradient id="linear-gradient-106" x1="180.51" y1="137.25" x2="190.07" y2="137.25" xlink:href="#linear-gradient-86"/>
    <linearGradient id="linear-gradient-107" x1="53.39" y1="152.99" x2="66.62" y2="152.99" xlink:href="#linear-gradient-86"/>
    <linearGradient id="linear-gradient-108" x1="103.77" y1="159.51" x2="118.25" y2="159.51" xlink:href="#linear-gradient-86"/>
    <linearGradient id="linear-gradient-109" x1="138.39" y1="81.56" x2="152.69" y2="52.39" xlink:href="#linear-gradient-86"/>
    <linearGradient id="linear-gradient-110" x1="52.93" y1="117.6" x2="190.53" y2="117.6" xlink:href="#linear-gradient-86"/>
    <linearGradient id="linear-gradient-111" x1="96.87" y1="113.31" x2="116.61" y2="113.31" xlink:href="#linear-gradient-87"/>
    <linearGradient id="linear-gradient-112" x1="98.35" y1="112.98" x2="117.41" y2="112.98" gradientTransform="matrix(1,0,0,1,0,0)" xlink:href="#linear-gradient-90"/>
    <linearGradient id="linear-gradient-113" x1="98.35" y1="111.38" x2="117.41" y2="111.38" xlink:href="#linear-gradient-87"/>
    <linearGradient id="linear-gradient-114" x1="121.04" y1="86" x2="171.04" y2="138.31" xlink:href="#linear-gradient-86"/>
    <linearGradient id="linear-gradient-115" x1="-3121.84" y1="84.15" x2="-3145.49" y2="120.08" gradientTransform="translate(-2998.18) rotate(-180) scale(1 -1)" xlink:href="#linear-gradient-87"/>
    <linearGradient id="linear-gradient-116" x1="-3153" y1="108.43" x2="-3108.46" y2="108.43" gradientTransform="translate(-2998.18) rotate(-180) scale(1 -1)" xlink:href="#linear-gradient-87"/>
    <linearGradient id="linear-gradient-117" x1="122.36" y1="118.55" x2="135.79" y2="118.55" gradientTransform="matrix(1,0,0,1,0,0)" xlink:href="#linear-gradient-90"/>
    <linearGradient id="linear-gradient-118" x1="-3122.72" y1="114.44" x2="-3134.89" y2="121.74" gradientTransform="translate(-2998.18) rotate(-180) scale(1 -1)" xlink:href="#linear-gradient-86"/>
    <linearGradient id="linear-gradient-119" x1="130.15" y1="109.15" x2="143.41" y2="109.15" gradientTransform="matrix(1,0,0,1,0,0)" xlink:href="#linear-gradient-90"/>
    <linearGradient id="linear-gradient-120" x1="139" y1="124.25" x2="123.47" y2="64.1" xlink:href="#linear-gradient-86"/>
    <linearGradient id="linear-gradient-121" x1="-3241.37" y1="112.92" x2="-3191.33" y2="51.36" gradientTransform="translate(-3150.89) rotate(-180) scale(1 -1)" xlink:href="#linear-gradient-93"/>
    <linearGradient id="linear-gradient-122" x1="-3252.9" y1="109.51" x2="-3255.54" y2="118.33" gradientTransform="translate(-3150.89) rotate(-180) scale(1 -1)" xlink:href="#linear-gradient-95"/>
  </defs>
  <g class="cls-97">
    <g id="Layer_2" data-name="Layer 2">
      <g id="Layer_1-2" data-name="Layer 1">
        <g>
          <circle class="cls-104" cx="98.94" cy="98.94" r="98.94"/>
          <g>
            <g>
              <path class="cls-123" d="m83.6,21.08v119.89c0,1.25.89,2.33,2.13,2.57l31.17,6.22,8.48-79.38-8.22-55.95-31.25,4.04c-1.32.17-2.31,1.29-2.31,2.6Z"/>
              <path class="cls-91" d="m172.27,16.59l-54.88-2.17c-2.16-.09-3.92,1.43-3.92,3.39v128.62c0,1.96,1.76,3.45,3.92,3.33l54.88-3.11c1.99-.11,3.6-1.72,3.6-3.59V20.12c0-1.87-1.61-3.45-3.6-3.53Z"/>
              <g>
                <path class="cls-17" d="m117.25,29.45v-9.1c0-1.39,1.25-2.48,2.78-2.42l49.78,1.85c1.43.05,2.58,1.18,2.58,2.52v8.74c0,1.34-1.15,2.39-2.58,2.35l-49.78-1.35c-1.54-.04-2.78-1.2-2.78-2.6Z"/>
                <path class="cls-84" d="m122.44,21.37c0,.64-.57,1.14-1.28,1.12-.71-.02-1.28-.56-1.28-1.21s.58-1.14,1.28-1.12c.71.03,1.28.57,1.28,1.21Z"/>
                <path class="cls-53" d="m126.49,21.51c0,.64-.57,1.14-1.27,1.12-.7-.02-1.28-.56-1.28-1.2s.57-1.14,1.28-1.12c.7.03,1.27.56,1.27,1.2Z"/>
                <path class="cls-69" d="m130.51,21.65c0,.64-.57,1.14-1.27,1.11-.7-.02-1.27-.56-1.27-1.2s.57-1.14,1.27-1.11c.7.02,1.27.56,1.27,1.2Z"/>
                <polygon class="cls-61" points="169.58 31.2 133.04 30.15 133.04 20.58 169.58 21.88 169.58 31.2"/>
              </g>
              <g>
                <path class="cls-4" d="m117.25,44.82v-9.1c0-1.39,1.25-2.49,2.78-2.45l49.78,1.31c1.43.04,2.58,1.15,2.58,2.49v8.74c0,1.34-1.15,2.4-2.58,2.38l-49.78-.81c-1.54-.02-2.78-1.17-2.78-2.57Z"/>
                <path class="cls-34" d="m122.44,36.68c0,.64-.57,1.15-1.28,1.13-.71-.02-1.28-.55-1.28-1.19s.58-1.15,1.28-1.13c.71.02,1.28.55,1.28,1.19Z"/>
                <path class="cls-27" d="m126.49,36.77c0,.64-.57,1.15-1.27,1.13-.7-.02-1.28-.55-1.28-1.19s.57-1.15,1.28-1.13c.7.02,1.27.55,1.27,1.19Z"/>
                <path class="cls-58" d="m130.51,36.87c0,.64-.57,1.14-1.27,1.13-.7-.02-1.27-.55-1.27-1.19s.57-1.14,1.27-1.13c.7.02,1.27.55,1.27,1.19Z"/>
                <polygon class="cls-72" points="169.58 45.99 133.04 45.34 133.04 35.77 169.58 36.68 169.58 45.99"/>
              </g>
              <g>
                <path class="cls-15" d="m117.25,60.18v-9.1c0-1.39,1.25-2.5,2.78-2.48l49.78.76c1.43.02,2.58,1.12,2.58,2.46v8.74c0,1.34-1.15,2.42-2.58,2.41l-49.78-.26c-1.54,0-2.78-1.14-2.78-2.54Z"/>
                <path class="cls-89" d="m122.44,51.99c0,.64-.57,1.16-1.28,1.15-.71,0-1.28-.54-1.28-1.18s.58-1.16,1.28-1.15c.71,0,1.28.54,1.28,1.18Z"/>
                <path class="cls-74" d="m126.49,52.04c0,.64-.57,1.15-1.27,1.14-.7,0-1.28-.54-1.28-1.18s.57-1.15,1.28-1.14c.7,0,1.27.54,1.27,1.18Z"/>
                <path class="cls-35" d="m130.51,52.09c0,.64-.57,1.15-1.27,1.14-.7,0-1.27-.53-1.27-1.17s.57-1.15,1.27-1.14c.7,0,1.27.53,1.27,1.17Z"/>
                <polygon class="cls-32" points="169.58 60.79 133.04 60.54 133.04 50.97 169.58 51.47 169.58 60.79"/>
              </g>
              <g>
                <path class="cls-11" d="m117.25,75.55v-9.1c0-1.39,1.25-2.52,2.78-2.51l49.78.22c1.43,0,2.58,1.1,2.58,2.43v8.74c0,1.34-1.15,2.43-2.58,2.44l-49.78.28c-1.54,0-2.78-1.11-2.78-2.51Z"/>
                <path class="cls-49" d="m122.44,67.3c0,.64-.57,1.16-1.28,1.16-.71,0-1.28-.52-1.28-1.17s.58-1.16,1.28-1.16c.71,0,1.28.52,1.28,1.17Z"/>
                <path class="cls-60" d="m126.49,67.3c0,.64-.57,1.16-1.27,1.16-.7,0-1.28-.52-1.28-1.16s.57-1.16,1.28-1.16c.7,0,1.27.52,1.27,1.16Z"/>
                <path class="cls-30" d="m130.51,67.31c0,.64-.57,1.16-1.27,1.15-.7,0-1.27-.52-1.27-1.16s.57-1.16,1.27-1.15c.7,0,1.27.52,1.27,1.16Z"/>
                <polygon class="cls-70" points="169.58 75.58 133.04 75.73 133.04 66.16 169.58 66.27 169.58 75.58"/>
              </g>
              <g>
                <path class="cls-9" d="m117.25,90.92v-9.1c0-1.39,1.25-2.53,2.78-2.54l49.78-.32c1.43,0,2.58,1.07,2.58,2.41v8.74c0,1.34-1.15,2.44-2.58,2.47l-49.78.83c-1.54.03-2.78-1.08-2.78-2.48Z"/>
                <path class="cls-46" d="m122.44,82.61c0,.64-.57,1.17-1.28,1.17-.71,0-1.28-.51-1.28-1.15s.58-1.17,1.28-1.17c.71,0,1.28.51,1.28,1.15Z"/>
                <path class="cls-54" d="m126.49,82.57c0,.64-.57,1.16-1.27,1.17-.7,0-1.28-.51-1.28-1.15s.57-1.17,1.28-1.17c.7,0,1.27.51,1.27,1.15Z"/>
                <path class="cls-55" d="m130.51,82.53c0,.64-.57,1.16-1.27,1.17-.7,0-1.27-.51-1.27-1.15s.57-1.16,1.27-1.17c.7,0,1.27.51,1.27,1.15Z"/>
                <polygon class="cls-52" points="169.58 90.38 133.04 90.93 133.04 81.36 169.58 81.06 169.58 90.38"/>
              </g>
              <g>
                <path class="cls-14" d="m117.25,106.28v-9.1c0-1.39,1.25-2.54,2.78-2.57l49.78-.87c1.43-.02,2.58,1.04,2.58,2.38v8.74c0,1.34-1.15,2.45-2.58,2.49l-49.78,1.37c-1.54.04-2.78-1.05-2.78-2.45Z"/>
                <path class="cls-67" d="m122.44,97.92c0,.64-.57,1.17-1.28,1.19-.71.01-1.28-.49-1.28-1.14s.58-1.18,1.28-1.19c.71-.01,1.28.5,1.28,1.14Z"/>
                <path class="cls-33" d="m126.49,97.84c0,.64-.57,1.17-1.27,1.19-.7.01-1.28-.49-1.28-1.13s.57-1.17,1.28-1.19c.7-.01,1.27.49,1.27,1.13Z"/>
                <path class="cls-22" d="m130.51,97.76c0,.64-.57,1.17-1.27,1.18-.7.01-1.27-.49-1.27-1.13s.57-1.17,1.27-1.18c.7-.01,1.27.49,1.27,1.13Z"/>
                <polygon class="cls-56" points="169.58 105.17 133.04 106.12 133.04 96.55 169.58 95.86 169.58 105.17"/>
              </g>
              <g>
                <path class="cls-6" d="m117.25,121.65v-9.1c0-1.39,1.25-2.56,2.78-2.6l49.78-1.41c1.43-.04,2.58,1.01,2.58,2.35v8.74c0,1.34-1.15,2.47-2.58,2.52l-49.78,1.91c-1.54.06-2.78-1.02-2.78-2.41Z"/>
                <path class="cls-37" d="m122.44,113.23c0,.64-.57,1.18-1.28,1.2-.71.02-1.28-.48-1.28-1.12s.58-1.18,1.28-1.2c.71-.02,1.28.48,1.28,1.12Z"/>
                <path class="cls-65" d="m126.49,113.1c0,.64-.57,1.18-1.27,1.2-.7.02-1.28-.48-1.28-1.12s.57-1.18,1.28-1.2c.7-.02,1.27.48,1.27,1.12Z"/>
                <path class="cls-36" d="m130.51,112.98c0,.64-.57,1.17-1.27,1.2-.7.02-1.27-.48-1.27-1.12s.57-1.17,1.27-1.2c.7-.02,1.27.48,1.27,1.12Z"/>
                <polygon class="cls-25" points="169.58 119.97 133.04 121.31 133.04 111.75 169.58 110.65 169.58 119.97"/>
              </g>
              <g>
                <path class="cls-5" d="m117.25,137.02v-9.1c0-1.39,1.25-2.57,2.78-2.63l49.78-1.96c1.43-.06,2.58.98,2.58,2.32v8.74c0,1.34-1.15,2.48-2.58,2.55l-49.78,2.46c-1.54.08-2.78-.99-2.78-2.38Z"/>
                <path class="cls-21" d="m122.44,128.54c0,.64-.57,1.19-1.28,1.22-.71.03-1.28-.47-1.28-1.11s.58-1.19,1.28-1.22c.71-.03,1.28.47,1.28,1.11Z"/>
                <path class="cls-82" d="m126.49,128.37c0,.64-.57,1.18-1.27,1.21-.7.03-1.28-.47-1.28-1.11s.57-1.18,1.28-1.21c.7-.03,1.27.47,1.27,1.11Z"/>
                <path class="cls-62" d="m130.51,128.2c0,.64-.57,1.18-1.27,1.21-.7.03-1.27-.46-1.27-1.1s.57-1.18,1.27-1.21c.7-.03,1.27.47,1.27,1.1Z"/>
                <polygon class="cls-85" points="169.58 134.77 133.04 136.51 133.04 126.94 169.58 125.45 169.58 134.77"/>
              </g>
              <path class="cls-63" d="m167.04,129.07c-8.07-10.26-18.46-9.96-21.41-19.59-3.16-10.31,7.14-14.79,4.55-25.98-2.64-11.37-15.3-11.46-17.14-22.96-1.49-9.33,6.42-12.02,3.83-20.4-2.64-8.57-12.13-9.75-14.01-18.14-.58-2.6-.25-5.1.52-7.34l-6-.24c-2.16-.09-3.92,1.43-3.92,3.39v128.62c0,1.96,1.76,3.45,3.92,3.33l54.88-3.11c.56-.03,1.08-.18,1.55-.42-1.01-8.02-3.85-13.42-6.79-17.15Z"/>
            </g>
            <g>
              <path class="cls-96" d="m8.57,18.96v125.49c0,1.31.93,2.43,2.23,2.69l32.62,6.51,8.88-83.09-8.61-58.56-32.71,4.23c-1.38.18-2.42,1.35-2.42,2.73Z"/>
              <path class="cls-88" d="m52.3,70.57l-8.61-58.56-22.82,2.95c.63,1.68,1.47,4.08,2.3,7.01,1.43,5.07,4.77,16.91,3.1,29.78-1.5,11.59-5.49,11.82-9.16,29.83-1.15,5.61-1.72,8.42-1.83,12.16-.18,5.9.77,8.46,4.75,29.21.23,1.2.94,4.95,1.71,9.87.86,5.51,1.33,9.09,1.44,12.93.04,1.3.07,2.6.11,3.89l20.14,4.02,8.88-83.09Z"/>
              <path class="cls-91" d="m105.61,13.95l-60.55-2.4c-2.39-.09-4.34,1.5-4.34,3.56v135.24c0,2.06,1.94,3.62,4.34,3.49l60.55-3.43c2.19-.12,3.97-1.82,3.97-3.78V17.67c0-1.96-1.77-3.63-3.97-3.71Z"/>
              <g>
                <path class="cls-18" d="m44.91,27.36v-9.57c0-1.46,1.38-2.6,3.08-2.54l54.92,2.04c1.57.06,2.84,1.24,2.84,2.65v9.18c0,1.4-1.27,2.51-2.84,2.47l-54.92-1.49c-1.7-.05-3.08-1.27-3.08-2.73Z"/>
                <path class="cls-45" d="m50.65,18.87c0,.67-.63,1.2-1.42,1.17-.78-.03-1.42-.6-1.42-1.27s.64-1.2,1.42-1.17c.78.03,1.42.6,1.42,1.27Z"/>
                <path class="cls-40" d="m55.12,19.03c0,.67-.63,1.2-1.41,1.17-.78-.03-1.41-.59-1.41-1.27s.63-1.2,1.41-1.17c.78.03,1.41.6,1.41,1.27Z"/>
                <path class="cls-47" d="m59.56,19.18c0,.67-.63,1.19-1.4,1.17-.77-.03-1.4-.59-1.4-1.26s.63-1.19,1.4-1.17c.77.03,1.4.59,1.4,1.26Z"/>
                <polygon class="cls-59" points="102.65 29.27 62.36 28.12 62.36 18.07 102.65 19.5 102.65 29.27"/>
              </g>
              <g>
                <path class="cls-8" d="m44.91,43.52v-9.57c0-1.46,1.38-2.62,3.08-2.57l54.92,1.44c1.57.04,2.84,1.21,2.84,2.62v9.18c0,1.4-1.27,2.52-2.84,2.5l-54.92-.89c-1.7-.03-3.08-1.24-3.08-2.7Z"/>
                <path class="cls-87" d="m50.65,34.96c0,.67-.63,1.21-1.42,1.19-.78-.02-1.42-.58-1.42-1.26s.64-1.21,1.42-1.19c.78.02,1.42.58,1.42,1.26Z"/>
                <path class="cls-57" d="m55.12,35.07c0,.67-.63,1.2-1.41,1.19-.78-.02-1.41-.58-1.41-1.25s.63-1.2,1.41-1.19c.78.02,1.41.58,1.41,1.25Z"/>
                <path class="cls-73" d="m59.56,35.18c0,.67-.63,1.2-1.4,1.18-.77-.02-1.4-.58-1.4-1.25s.63-1.2,1.4-1.18c.77.02,1.4.58,1.4,1.25Z"/>
                <polygon class="cls-19" points="102.65 44.8 62.36 44.08 62.36 34.03 102.65 35.03 102.65 44.8"/>
              </g>
              <g>
                <path class="cls-10" d="m44.91,59.67v-9.57c0-1.46,1.38-2.63,3.08-2.6l54.92.84c1.57.02,2.84,1.18,2.84,2.59v9.18c0,1.4-1.27,2.54-2.84,2.53l-54.92-.29c-1.7,0-3.08-1.2-3.08-2.67Z"/>
                <path class="cls-81" d="m50.65,51.06c0,.67-.63,1.21-1.42,1.2-.78,0-1.42-.57-1.42-1.24s.64-1.22,1.42-1.2c.78.01,1.42.57,1.42,1.24Z"/>
                <path class="cls-26" d="m55.12,51.12c0,.67-.63,1.21-1.41,1.2-.78,0-1.41-.56-1.41-1.24s.63-1.21,1.41-1.2c.78.01,1.41.56,1.41,1.24Z"/>
                <path class="cls-64" d="m59.56,51.17c0,.67-.63,1.21-1.4,1.2-.77,0-1.4-.56-1.4-1.23s.63-1.21,1.4-1.2c.77.01,1.4.56,1.4,1.23Z"/>
                <polygon class="cls-79" points="102.65 60.33 62.36 60.05 62.36 50 102.65 50.55 102.65 60.33"/>
              </g>
              <g>
                <path class="cls-2" d="m44.91,75.83v-9.57c0-1.46,1.38-2.65,3.08-2.64l54.92.24c1.57,0,2.84,1.15,2.84,2.55v9.18c0,1.4-1.27,2.55-2.84,2.56l-54.92.31c-1.7,0-3.08-1.17-3.08-2.63Z"/>
                <path class="cls-50" d="m50.65,67.15c0,.67-.63,1.22-1.42,1.22-.78,0-1.42-.55-1.42-1.23s.64-1.22,1.42-1.22c.78,0,1.42.55,1.42,1.23Z"/>
                <path class="cls-39" d="m55.12,67.16c0,.67-.63,1.22-1.41,1.22-.78,0-1.41-.55-1.41-1.22s.63-1.22,1.41-1.22c.78,0,1.41.55,1.41,1.22Z"/>
                <path class="cls-24" d="m59.56,67.17c0,.67-.63,1.21-1.4,1.21-.77,0-1.4-.55-1.4-1.22s.63-1.22,1.4-1.21c.77,0,1.4.55,1.4,1.22Z"/>
                <polygon class="cls-75" points="102.65 75.85 62.36 76.02 62.36 65.96 102.65 66.08 102.65 75.85"/>
              </g>
              <g>
                <path class="cls-7" d="m44.91,91.99v-9.57c0-1.46,1.38-2.66,3.08-2.67l54.92-.36c1.57-.01,2.84,1.12,2.84,2.52v9.18c0,1.4-1.27,2.56-2.84,2.59l-54.92.91c-1.7.03-3.08-1.14-3.08-2.6Z"/>
                <path class="cls-80" d="m50.65,83.25c0,.67-.63,1.23-1.42,1.24-.78,0-1.42-.53-1.42-1.21s.64-1.23,1.42-1.24c.78,0,1.42.54,1.42,1.21Z"/>
                <path class="cls-90" d="m55.12,83.21c0,.67-.63,1.22-1.41,1.23-.78,0-1.41-.53-1.41-1.21s.63-1.23,1.41-1.23c.78,0,1.41.53,1.41,1.21Z"/>
                <path class="cls-83" d="m59.56,83.17c0,.67-.63,1.22-1.4,1.23-.77,0-1.4-.53-1.4-1.2s.63-1.22,1.4-1.23c.77,0,1.4.53,1.4,1.2Z"/>
                <polygon class="cls-20" points="102.65 91.38 62.36 91.98 62.36 81.93 102.65 81.6 102.65 91.38"/>
              </g>
              <g>
                <path class="cls-16" d="m44.91,108.14v-9.57c0-1.46,1.38-2.68,3.08-2.7l54.92-.96c1.57-.03,2.84,1.09,2.84,2.49v9.18c0,1.4-1.27,2.58-2.84,2.62l-54.92,1.51c-1.7.05-3.08-1.1-3.08-2.57Z"/>
                <path class="cls-66" d="m50.65,99.34c0,.67-.63,1.24-1.42,1.25-.78.02-1.42-.52-1.42-1.19s.64-1.24,1.42-1.25c.78-.01,1.42.52,1.42,1.2Z"/>
                <path class="cls-77" d="m55.12,99.25c0,.67-.63,1.23-1.41,1.25-.78.02-1.41-.52-1.41-1.19s.63-1.23,1.41-1.25c.78-.01,1.41.52,1.41,1.19Z"/>
                <path class="cls-23" d="m59.56,99.16c0,.67-.63,1.23-1.4,1.24-.77.02-1.4-.52-1.4-1.19s.63-1.23,1.4-1.24c.77-.01,1.4.52,1.4,1.19Z"/>
                <polygon class="cls-76" points="102.65 106.91 62.36 107.95 62.36 97.9 102.65 97.13 102.65 106.91"/>
              </g>
              <g>
                <path class="cls-12" d="m44.91,124.3v-9.57c0-1.46,1.38-2.69,3.08-2.74l54.92-1.56c1.57-.04,2.84,1.06,2.84,2.46v9.18c0,1.4-1.27,2.59-2.84,2.65l-54.92,2.11c-1.7.07-3.08-1.07-3.08-2.53Z"/>
                <path class="cls-43" d="m50.65,115.43c0,.67-.63,1.24-1.42,1.27-.78.02-1.42-.5-1.42-1.18s.64-1.24,1.42-1.27c.78-.02,1.42.5,1.42,1.18Z"/>
                <path class="cls-38" d="m55.12,115.3c0,.67-.63,1.24-1.41,1.26-.78.02-1.41-.5-1.41-1.18s.63-1.24,1.41-1.26c.78-.02,1.41.5,1.41,1.18Z"/>
                <path class="cls-42" d="m59.56,115.16c0,.67-.63,1.23-1.4,1.26-.77.02-1.4-.5-1.4-1.17s.63-1.24,1.4-1.26c.77-.02,1.4.5,1.4,1.17Z"/>
                <polygon class="cls-29" points="102.65 122.43 62.36 123.91 62.36 113.86 102.65 112.66 102.65 122.43"/>
              </g>
              <g>
                <path class="cls-13" d="m44.91,140.46v-9.57c0-1.46,1.38-2.71,3.08-2.77l54.92-2.16c1.57-.06,2.84,1.03,2.84,2.43v9.18c0,1.4-1.27,2.6-2.84,2.68l-54.92,2.71c-1.7.08-3.08-1.04-3.08-2.5Z"/>
                <path class="cls-31" d="m50.65,131.53c0,.67-.63,1.25-1.42,1.28-.78.03-1.42-.49-1.42-1.16s.64-1.25,1.42-1.28c.78-.03,1.42.49,1.42,1.16Z"/>
                <path class="cls-68" d="m55.12,131.34c0,.67-.63,1.25-1.41,1.28-.78.03-1.41-.49-1.41-1.16s.63-1.25,1.41-1.28c.78-.03,1.41.49,1.41,1.16Z"/>
                <path class="cls-86" d="m59.56,131.16c0,.67-.63,1.24-1.4,1.27-.77.03-1.4-.49-1.4-1.16s.63-1.24,1.4-1.27c.77-.03,1.4.49,1.4,1.16Z"/>
                <polygon class="cls-44" points="102.65 137.96 62.36 139.88 62.36 129.83 102.65 128.18 102.65 137.96"/>
              </g>
              <path class="cls-3" d="m99.85,131.99c-8.89-10.75-20.35-10.42-23.6-20.53-3.48-10.82,7.88-15.54,5.01-27.29-2.91-11.94-16.88-12.04-18.91-24.12-1.65-9.81,7.09-12.63,4.23-21.43-2.92-9.01-13.4-10.26-15.47-19.08-.64-2.74-.27-5.36.58-7.72l-6.63-.26c-2.39-.09-4.34,1.5-4.34,3.56v135.24c0,2.06,1.94,3.62,4.34,3.49l60.55-3.43c.61-.03,1.19-.2,1.71-.45-1.11-8.41-4.24-14.07-7.47-17.98Z"/>
            </g>
          </g>
          <g>
            <path class="cls-108" d="m149.59,159.36c-3.9-.03-10.47-.07-16.49-4.32-10.95-7.73-12.98-24.34-10.4-36.05,2.22-10.06,9.4-18.31,23.77-34.79,13.53-15.53,18.86-18.43,18.37-25.31-.71-9.81-12.25-13.83-11.36-25.4.11-1.39.48-6.16,3.91-8.93,5.88-4.75,16.61-.32,22.19,3.64,5.39,3.82,12.3,11.69,11.33,20-.7,6.02-4.95,7.16-4.38,12.33.57,5.21,5.04,5.63,9.31,13.21,1.7,3.03,5.12,9.11,3.92,15.58-1.56,8.36-9.44,9.8-9.04,16.24.29,4.66,4.5,5.43,5.92,10.5,1.87,6.68-3.15,13.47-7.41,19.07-5.01,6.59-18.52,24.38-39.63,24.23Z"/>
            <path class="cls-3" d="m160.78,26.61c-2.78,3.7,11.32,11.42,13.24,27.13,2.06,16.9-11.24,32.71-17.38,40.03-10.49,12.47-16.66,12.6-22.11,24.55-2.16,4.73-6.65,14.59-2.42,24.82.39.95,4.94,11.48,15,13.85,11.41,2.69,21.23-7.15,29.7-15.63,5.11-5.12,15.33-15.36,12.2-21.88-1.91-3.98-8.38-5.66-13.09-5.21-6.72.65-10.8,5.71-11.72,4.81-.83-.81,1.68-5.7,5.88-10.1,8.4-8.8,14.99-6.62,20.89-14.17.72-.92,6.28-8.25,3.93-15.86-1.36-4.39-5.38-8.99-9.2-8.72-4.32.31-6.51,6.71-7.72,6.16-1.16-.53.14-6.7,2.32-12.62,3.2-8.69,5.62-9.58,6.21-14.61.9-7.67-3.79-13.84-4.47-14.71-6.43-8.21-18.87-11.01-21.25-7.85Z"/>
          </g>
          <g>
            <g>
              <g>
                <ellipse class="cls-105" cx="72.82" cy="165" rx="17.34" ry="7.08"/>
                <path class="cls-93" d="m55.49,164.17c0,3.69,7.76,6.68,17.34,6.68s17.34-2.99,17.34-6.68-7.76-9.72-17.34-9.72-17.34,6.04-17.34,9.72Z"/>
                <path class="cls-41" d="m55.49,164.17c0-3.69,7.76-9.72,17.34-9.72,4.42,0,8.45,1.29,11.52,3.04.21.45.31.9.27,1.32-.2,2.08-3.58,3.35-5.53,3.77-4.89,1.06-7.28-1.87-11.32-1.75-2.49.07-5.95,1.32-10.05,6.63-1.42-.97-2.23-2.09-2.23-3.28Z"/>
                <path class="cls-91" d="m71.87,157.8c.69.17,1.34.17,1.95.01.55-.14.93-.65.93-1.22v-19.55h-3.85v19.52c0,.59.41,1.09.98,1.23Z"/>
                <path class="cls-115" d="m71.87,157.8c.69.17,1.34.17,1.95.01.55-.14.93-.65.93-1.22v-19.55h-3.85v19.52c0,.59.41,1.09.98,1.23Z"/>
                <g>
                  <path class="cls-126" d="m93.19,128.81l-5.89-3.72c-.24-1.39-3.02-15.94-14.29-20.51-4.58-1.86-9.51-1.64-12.22-1.52-5.4.24-9.26.41-11.11,2.99-2.38,3.31,1.61,6.31.79,15.78-.34,3.86-1.19,5.57-.13,8.13,1.28,3.06,4.25,4.76,6.55,5.72,2.76,1.6,7.56,3.88,13.9,4.44,10.68.94,18.65-3.65,21.39-5.4,1.22-.38,2.14-1.4,2.39-2.65.26-1.27-.29-2.57-1.38-3.26Z"/>
                  <path class="cls-78" d="m59.6,103.84c-4,.12-6.48.07-7.85,1.86-1.44,1.87.02,3.47.29,10.14.25,6.08-.83,8.48,1.14,11.85,0,0,1,1.71,2.57,3,5.57,4.54,19.94,4.49,25.99-5,4.82-7.57,2.81-18.73-2.86-22.42-2.78-1.81-3.41.1-19.28.57Z"/>
                  <path class="cls-48" d="m93.62,125.47l-5.89-3.72s-15.77-5.19-30.37,2.13c-1.63.82-2.65,2.51-2.65,4.34,0,1.4.84,2.67,2.14,3.21,2.55,1.74,7.52,4.61,14.37,5.36,10.89,1.19,19-3.79,21.39-5.4,1.22-.38,2.14-1.4,2.39-2.65.26-1.27-.29-2.57-1.38-3.26Z"/>
                </g>
                <g>
                  <path class="cls-94" d="m132.63,104.57s-25.1,7.88-24.47-21.03l-13.9,4.11s-1.35,33.56,33.3,21.2l5.08-4.28Z"/>
                  <path class="cls-124" d="m95.54,172.02h-2.27c-.56.91-1.18,2.19-.69,3.02.35.57.93.42,2.57.94,2.29.73,2.84,1.56,4.8,1.69.72.05,1.24.09,1.38-.17.4-.73-2.71-3.23-5.8-5.49Z"/>
                  <path class="cls-103" d="m95.19,172.77c-.19.08-.38.16-.57.23-.63.23-1.28-.26-1.29-.93,0-.02,0-.04,0-.06-.01-.99-.21-1.78-.37-2.28.83-.04,1.67-.08,2.5-.12-.19,1.11-.13,1.9.05,2.47.09.28-.06.57-.33.68Z"/>
                  <path class="cls-119" d="m113.06,165.93h-2.27c-.56.91-1.18,2.19-.69,3.02.35.57.93.42,2.57.94,2.29.73,2.84,1.56,4.8,1.69.72.05,1.24.09,1.38-.17.4-.73-2.71-3.23-5.8-5.49Z"/>
                  <path class="cls-101" d="m112.71,166.68c-.19.08-.38.16-.57.23-.63.23-1.28-.26-1.29-.93,0-.02,0-.04,0-.06-.01-.99-.21-1.78-.37-2.28.83-.04,1.67-.08,2.5-.12-.19,1.11-.13,1.9.05,2.47.09.28-.06.57-.33.68Z"/>
                  <path class="cls-113" d="m113.03,164.76c1.71-8.67,1.52-15.84,1.05-20.61-.89-9.24-1.37-14.13-5.08-18.66-3.49-4.26-6.73-4.41-14.49-11.62-2.56-2.38-4.49-4.48-5.7-5.86-11.64-3.41-22.37-2.03-27.11,4.21-.55.72-1.92,2.29-2.18,4.59-.6,5.2,4.52,11.47,10.25,12.78,7.29,1.66,11.52-5.82,17.98-3.33,1.81.7,3.34,2.42,6.4,5.88,3.9,4.39,6.09,8.45,6.92,10.07,2.47,4.83,4.34,8.4,4.61,13.02.06,1.08.1,3.25,1.36,5.6.97,1.8,2.28,3,3.26,3.74.9.07,1.81.14,2.71.2Z"/>
                  <path class="cls-122" d="m97.15,169.3c-.7,1.31-2.08,2.09-5.09,1.58-4.24-4.82-5.64-9.09-6.14-12.11-1.07-6.5,1.62-9.85-.88-15.09-1.63-3.41-4.37-5.35-6.66-6.97-5.53-3.9-7.85-2.38-12.57-5.98-1.77-1.35-6.02-4.58-6.59-9.9-.5-4.63,2.08-8.09,2.49-8.63,3.33-4.33,9.56-6.09,15.78-4.49.87,2.2,2.46,5.65,5.26,9.3,3.54,4.61,5.85,5.4,9.47,10,1.69,2.15,4.58,5.81,6.11,11,.89,3.01,1,5.49.03,17.6-.3,3.79-.7,8.41-1.23,13.68Z"/>
                  <path class="cls-120" d="m108.16,83.54c-.56-7.25-20.38-16.71-36.09-10.1-18.61,7.82-18.8,32.86-18.78,34.67.06,7.73,2.59,16.52,5.43,16.72,2.08.14,2.2-4.48,6.5-7,4.6-2.7,8.11.46,18.9.14,4.91-.14,10.48-.31,11.75-3.16,1.29-2.88-3.23-5.26-3.71-9.91-.99-9.55,16.54-14.34,16-21.36Z"/>
                  <path class="cls-28" d="m56.74,113.13c1.36-2.49,4.3-5.41,8.12-6.32,4.98-1.19,7.19,2.05,10.83.54,4.47-1.86,2.73-7.4,7.22-10.1,3.83-2.3,7.55.25,12.47.06-2.09,2.22-3.51,4.68-3.21,7.58.48,4.64,5,7.03,3.71,9.91-1.28,2.85-6.84,3.01-11.75,3.16-10.8.32-14.31-2.84-18.9-.14-4.3,2.52-4.41,7.14-6.5,7-1.2-.08-2.34-1.69-3.26-4.11-.34-2.77.08-5.4,1.28-7.58Z"/>
                  <path class="cls-116" d="m96.64,72.61l-.69.34c-1.35.66-2.87.86-4.34.59l-1.97-.37c-.43-.08-.76.39-.52.76,1.11,1.75,3.98,5.05,8.67,2.41l-1.14-3.73Z"/>
                  <path class="cls-111" d="m101.53,72.65c2.42-.88,3.24-6.6,2.05-7.23-.69-.36-1.31,1.35-3.86,2-1.98.51-3.25-.1-4.1.89-.4.47-.64,1.21-.63,1.86,0,.34.09.79.31,1.67.2.78.18.75.25.98.16.55.5,1.51,1.32,2.78.18-.29.43-.65.75-1.02.13-.14.62-.69,1.23-1.09,1.11-.72,1.99-.6,2.68-.85Z"/>
                  <path class="cls-99" d="m95.73,74.24s.52,2.17,2.78,2.74c2.02.51,3.73-3.83,2.77-5.18-.32-.45-1.12-.85-1.87-.88-.44-.02-.63.11-1.35.07-.66-.04-.82-.16-1.05-.07-.29.12-.62.54-.65,1.96-.25-.5-.66-.79-1.03-.75-.06,0-.22.06-.35.17-.44.42-.18,1.21.75,1.93Z"/>
                </g>
              </g>
              <g>
                <path class="cls-121" d="m134.54,163.7s0,0-.01,0c-.06,0-.11-.06-.11-.12v-60.84c0-.07.05-.12.12-.12s.12.05.12.12v59.53l10.38-55.78c.01-.07.08-.11.14-.1.07.01.11.08.1.14l-10.61,57.07c-.01.06-.06.1-.12.1Z"/>
                <path class="cls-102" d="m189.94,165.41c-.06,0-.11-.04-.12-.1l-9.31-56.08c-.01-.07.03-.13.1-.14.07-.01.13.03.14.1l9.07,54.64v-54.42c0-.07.05-.12.12-.12s.12.05.12.12v55.88c0,.06-.05.11-.11.12,0,0,0,0-.01,0Z"/>
                <path class="cls-112" d="m53.51,183.9s0,0-.01,0c-.06,0-.11-.06-.11-.12v-61.59c0-.07.05-.12.12-.12s.12.05.12.12v60.43l12.75-60.39c.01-.07.08-.11.14-.09.07.01.11.08.09.14l-12.99,61.52c-.01.06-.06.1-.12.1Z"/>
                <path class="cls-98" d="m118.13,194.66c-.06,0-.11-.04-.12-.1l-14.24-70.05c-.01-.07.03-.13.09-.14.07-.01.13.03.14.09l14,68.88v-60.63c0-.07.05-.12.12-.12s.12.05.12.12v61.83c0,.06-.05.11-.11.12,0,0,0,0-.01,0Z"/>
                <g>
                  <path class="cls-95" d="m52.93,121.44v1.06l65.34,10.66,72.26-23.52v-1.06c-11.32-3.34-137.6,12.86-137.6,12.86Z"/>
                  <polygon class="cls-106" points="130.53 103.09 52.93 121.44 118.28 132.1 190.53 108.59 130.53 103.09"/>
                </g>
                <polygon class="cls-71" points="112.2 110.07 96.87 112.43 96.87 113.48 103.25 116.55 116.61 113.17 112.2 110.07"/>
                <polygon class="cls-91" points="112.56 107.8 96.87 112.43 103.25 115.5 116.61 112.13 112.56 107.8"/>
                <polygon class="cls-109" points="113.15 109.85 98.35 112.14 98.35 113.14 104.51 116.11 117.41 112.85 113.15 109.85"/>
                <polygon class="cls-117" points="113.5 107.66 98.35 112.14 104.51 115.1 117.41 111.84 113.5 107.66"/>
                <g>
                  <path class="cls-110" d="m109.42,119.4l2.37-31.22c.04-.49.46-.95,1.02-1.11l40.49-11.38c.36-.1,1.06,0,1.33.17.28.17.59.13.58.45l-1.69,28.85c-.03.48-.42.93-.96,1.11l-42.26,13.73-.87-.6Z"/>
                  <path class="cls-125" d="m110.29,120l2.45-31.48c.04-.49.46-.95,1.02-1.11l40.49-11.38c.36-.1.73-.06,1.01.11.28.17.43.46.41.77l-1.22,28.56c-.02.49-.43.96-.98,1.13l-43.19,13.39Z"/>
                  <path class="cls-51" d="m110.29,120l43.19-13.39c.56-.17.96-.64.98-1.13l.37-8.61c-12.82,8.18-28.96,11.34-43.99,16.06l-.55,7.08Z"/>
                  <path class="cls-107" d="m131.78,120.96l-1.53.95s-7.27-3.23-7.71-3.42c-.07-.03-.37-.4,0-.56,1.95-.81,9.39-2.73,9.39-2.73l3.87,1.84-4.02,3.92Z"/>
                  <path class="cls-118" d="m131.78,120.4l-1.53.95s-7.27-3.23-7.71-3.42c-.44-.19,9.39-3.29,9.39-3.29l3.87,1.84-4.02,3.92Z"/>
                  <path class="cls-1" d="m139.34,96.3s3.68,19.67,4.06,20.77c.36,1.01-10.06,4.3-12.55,4.92-.21.05-.52-.04-.61-.08-.71.06,2.6-23.75,2.6-23.75l.24-.05,6.26-1.81Z"/>
                  <path class="cls-100" d="m139.34,96.3s4.32,19.74,4.71,20.84c.39,1.1-12.06,4.64-13.16,4.84-.71.06,2.19-23.87,2.19-23.87l6.26-1.81Z"/>
                </g>
              </g>
            </g>
            <path class="cls-114" d="m99.53,109.19l.39,3.41s-15.65,6.74-28.91,0c-13.26-6.74-7.96-31.79-7.96-31.79,0,0,4.25-7.72,13.97-6.64,9.72,1.08,4.33,13.32,2.61,21.42-1.71,8.1,1.37,15.66,19.9,13.59Z"/>
            <path class="cls-92" d="m99.53,109.19l2.49-.46c.49-.09,1,0,1.42.27l2.73,1.49c.62.34.45,1.28-.24,1.37-.49.06-1.08.08-1.78,0-2.4-.24-3.13.64-4.24.74-1.1.1-2.55-2.06-.39-3.41Z"/>
          </g>
        </g>
      </g>
    </g>
  </g>
</svg>