<?xml version="1.0" encoding="UTF-8"?>
<svg id="Layer_2" data-name="Layer 2" xmlns="http://www.w3.org/2000/svg" xmlns:xlink="http://www.w3.org/1999/xlink" viewBox="0 0 200 200.22">
  <defs>
    <style>
      .cls-1 {
        fill: url(#linear-gradient-2);
      }

      .cls-2 {
        fill: url(#linear-gradient-17);
      }

      .cls-3 {
        opacity: .47;
      }

      .cls-3, .cls-4, .cls-5, .cls-6 {
        fill: #fff;
      }

      .cls-4 {
        opacity: .38;
      }

      .cls-7 {
        fill: url(#linear-gradient-15);
      }

      .cls-8 {
        fill: url(#linear-gradient-18);
      }

      .cls-9 {
        fill: url(#linear-gradient-14);
      }

      .cls-10 {
        fill: url(#linear-gradient-20);
      }

      .cls-11 {
        fill: url(#linear-gradient-6);
      }

      .cls-12 {
        fill: url(#linear-gradient-11);
      }

      .cls-13 {
        fill: url(#linear-gradient-10);
      }

      .cls-5 {
        opacity: .57;
      }

      .cls-14 {
        fill: #0fa55c;
      }

      .cls-15 {
        fill: url(#linear-gradient-16);
      }

      .cls-16 {
        fill: url(#linear-gradient-21);
      }

      .cls-17 {
        fill: url(#linear-gradient-5);
      }

      .cls-6 {
        opacity: .33;
      }

      .cls-18 {
        fill: url(#linear-gradient-7);
      }

      .cls-19 {
        fill: #cbfee5;
      }

      .cls-20 {
        fill: url(#linear-gradient-9);
      }

      .cls-21 {
        fill: url(#linear-gradient-22);
      }

      .cls-22 {
        fill: url(#linear-gradient-3);
      }

      .cls-23 {
        fill: url(#linear-gradient);
      }

      .cls-24 {
        fill: #46ba81;
      }

      .cls-25 {
        fill: url(#linear-gradient-23);
      }

      .cls-26 {
        fill: url(#linear-gradient-19);
      }

      .cls-27 {
        fill: url(#linear-gradient-4);
      }

      .cls-28 {
        fill: url(#linear-gradient-8);
      }

      .cls-29 {
        fill: url(#linear-gradient-12);
      }

      .cls-30 {
        fill: url(#linear-gradient-13);
      }
    </style>
    <linearGradient id="linear-gradient" x1="210.52" y1="224.01" x2="66.17" y2="68.22" gradientUnits="userSpaceOnUse">
      <stop offset="0" stop-color="#e1fef0"/>
      <stop offset="1" stop-color="#edfff6"/>
    </linearGradient>
    <linearGradient id="linear-gradient-2" x1="35.37" y1="187.1" x2="64.45" y2="187.1" gradientUnits="userSpaceOnUse">
      <stop offset="0" stop-color="#206443"/>
      <stop offset="1" stop-color="#07532e"/>
    </linearGradient>
    <linearGradient id="linear-gradient-3" x1="-7227.57" y1="135.46" x2="-7171.55" y2="115.81" gradientTransform="translate(-7058.38) rotate(-180) scale(1 -1)" xlink:href="#linear-gradient-2"/>
    <linearGradient id="linear-gradient-4" x1="1210.24" y1="170.78" x2="1229.8" y2="170.78" gradientTransform="translate(-1104.46)" gradientUnits="userSpaceOnUse">
      <stop offset="0" stop-color="#ffbab8"/>
      <stop offset="1" stop-color="#ff928e"/>
    </linearGradient>
    <linearGradient id="linear-gradient-5" x1="1227.61" y1="153.88" x2="1220.41" y2="199.04" gradientTransform="translate(-1104.46)" gradientUnits="userSpaceOnUse">
      <stop offset="0" stop-color="#021c0f"/>
      <stop offset="1" stop-color="#162e22"/>
    </linearGradient>
    <linearGradient id="linear-gradient-6" x1="1190.18" y1="172.56" x2="1231.45" y2="172.56" xlink:href="#linear-gradient-4"/>
    <linearGradient id="linear-gradient-7" x1="180.76" y1="87.24" x2="164.43" y2="110.78" gradientUnits="userSpaceOnUse">
      <stop offset="0" stop-color="#ff928e"/>
      <stop offset="1" stop-color="#fe7062"/>
    </linearGradient>
    <linearGradient id="linear-gradient-8" x1="1203.64" y1="150.05" x2="1196.43" y2="195.21" xlink:href="#linear-gradient-5"/>
    <linearGradient id="linear-gradient-9" x1="1295.49" y1="-609.66" x2="1288.68" y2="-573.89" gradientTransform="translate(-1225.73 452) rotate(9.97)" xlink:href="#linear-gradient-5"/>
    <linearGradient id="linear-gradient-10" x1="207.85" y1="90.93" x2="174.7" y2="107.74" xlink:href="#linear-gradient-7"/>
    <linearGradient id="linear-gradient-11" x1="1284.22" y1="-564.91" x2="1281.43" y2="-582.79" gradientTransform="translate(-1225.73 452) rotate(9.97)" xlink:href="#linear-gradient-4"/>
    <linearGradient id="linear-gradient-12" x1="-890.24" y1="5736.44" x2="-872.01" y2="5748.82" gradientTransform="translate(-3123.41 -4714.08) rotate(-42.85)" xlink:href="#linear-gradient-4"/>
    <linearGradient id="linear-gradient-13" x1="-878.08" y1="5721.62" x2="-884.89" y2="5757.39" gradientTransform="translate(-3123.41 -4714.08) rotate(-42.85)" xlink:href="#linear-gradient-5"/>
    <linearGradient id="linear-gradient-14" x1="-889.15" y1="5734.83" x2="-870.91" y2="5747.21" gradientTransform="translate(-3123.41 -4714.08) rotate(-42.85)" xlink:href="#linear-gradient-4"/>
    <linearGradient id="linear-gradient-15" x1="1295.66" y1="-544.61" x2="1334.43" y2="-544.61" gradientTransform="translate(-1225.73 452) rotate(9.97)" xlink:href="#linear-gradient-4"/>
    <linearGradient id="linear-gradient-16" x1="1222.41" y1="411.28" x2="1198" y2="417.97" gradientTransform="translate(-1090.19 -212.01) rotate(-2.83)" xlink:href="#linear-gradient-5"/>
    <linearGradient id="linear-gradient-17" x1="1222.5" y1="122.61" x2="1205.18" y2="140.92" xlink:href="#linear-gradient-5"/>
    <linearGradient id="linear-gradient-18" x1="7229.47" y1="197.8" x2="7235.51" y2="159.81" gradientTransform="translate(-7084.64 368.17) scale(1 -1)" xlink:href="#linear-gradient-2"/>
    <linearGradient id="linear-gradient-19" x1="7231.8" y1="198.01" x2="7238.11" y2="158.31" gradientTransform="translate(-7084.64 397.73) scale(1 -1)" xlink:href="#linear-gradient-2"/>
    <linearGradient id="linear-gradient-20" x1="131.81" y1="188.94" x2="163.28" y2="140.66" xlink:href="#linear-gradient-2"/>
    <linearGradient id="linear-gradient-21" x1="150.2" y1="34.69" x2="152.91" y2="34.69" xlink:href="#linear-gradient"/>
    <linearGradient id="linear-gradient-22" x1="154.56" y1="27.74" x2="158.41" y2="27.74" xlink:href="#linear-gradient"/>
    <linearGradient id="linear-gradient-23" x1="155.68" y1="38.2" x2="163.97" y2="38.2" xlink:href="#linear-gradient"/>
  </defs>
  <g id="Layer_1-2" data-name="Layer 1">
    <g>
      <path class="cls-23" d="m190.05,135.36c-19.75,46.52-71.9,66.5-112.76,63.09-11.16-.93-33.6-2.8-51.13-19.5C-7.49,146.88-2.31,79.86,29.91,40.4,34.06,35.32,62.78,1.27,107.54,1.73c32.77.33,55.77,18.98,58.56,21.3,3.53,2.93,11.32,9.91,18.35,20.97,16.5,26,17.95,62.28,5.61,91.35Z"/>
      <g>
        <g>
          <path class="cls-24" d="m43.8,176.17c.39,0,.69-.35.62-.73-.64-3.81-4.42-21.25-19.63-21.39-13.48-.12-21.66,6.61-24.51,9.46-.51.51-.28,1.38.41,1.57,1.84.51,4.9,1.74,6.87,4.59,2.96,4.3,10.65,3.63,15.43-2.29,4.74-5.86,16.56-9.37,20.19,8.29.06.29.32.51.62.51h0Z"/>
          <path class="cls-14" d="m7.11,75.82c-.34-.74-1.43-.65-1.64.14-1.92,7.16-5.9,28.51,11.66,38.62,21.28,12.25,21.79,6.71,24.44,28.27,2.28,18.56,3.06,29.85,3.24,32.63.02.38.34.68.72.68h0c.41,0,.74-.34.72-.75-.2-5.84-1.66-44.46-5.84-63.35-7.43-33.6-24.83-17.6-33.31-36.25Z"/>
          <path class="cls-24" d="m20.39,22.67c-.13-.76-1.23-.74-1.34.02-.57,3.81-1.64,8.68-3.66,11.86-3.75,5.9-10.55,27.37,8.14,38.07,18.69,10.71,23.29,16.37,23.15,36.93-.13,18.79,1,58.88,1.2,65.64.02.55.46.98,1.01.98h0c.56,0,1.01-.45,1.01-1,.02-8.79.15-72.71-1.45-88.2-2.54-24.54-23.23-37.11-28.04-64.3Z"/>
          <path class="cls-14" d="m78.17,1.35c-.03-.75-1.03-.98-1.4-.33-1.78,3.15-5.79,8.53-13.81,12.43-12.03,5.84-33.62,17.92-20.75,44.31,13.39,27.44,8.63,46.6,9.56,56.2.85,8.89,1.75,54.67,1.88,61.39,0,.46.38.82.84.82h0c.47,0,.85-.39.84-.86-.19-7.41-1.51-60.28-1.54-68.74-.03-9.11-2.28-40.26,5.86-51.62,7.87-10.99,19.76-25.1,18.51-53.6Z"/>
          <path class="cls-3" d="m20.71,38.91c-.19.6-.34,1.27-.43,1.92-.06.33-.09.66-.12.99-.04.33-.05.66-.06.99-.02,1.33.04,2.66.31,3.95.51,2.6,1.65,5.04,3.19,7.19.19.27.37.55.58.81l.65.76.65.76.69.73c.94.96,1.94,1.87,2.96,2.77,2.04,1.79,4.18,3.52,6.2,5.41,2.03,1.88,3.92,3.95,5.52,6.24.79,1.15,1.51,2.35,2.16,3.58l.46.94c.16.31.3.63.44.95l.42.96.37.97c.26.64.46,1.31.69,1.97.21.66.39,1.33.58,2,.16.67.34,1.34.47,2.02.13.68.29,1.35.39,2.04.46,2.72.72,5.47.83,8.22,0,.2-.15.37-.35.38-.2,0-.36-.14-.38-.34-.41-5.42-1.29-10.85-3.28-15.87l-.38-.94-.42-.92c-.13-.31-.28-.61-.44-.91l-.46-.9c-.65-1.18-1.36-2.32-2.13-3.42-.79-1.09-1.63-2.13-2.53-3.13-.9-1-1.86-1.95-2.85-2.87-1.98-1.84-4.12-3.54-6.2-5.35-1.04-.9-2.07-1.84-3.05-2.83l-.73-.75-.68-.81-.68-.81c-.22-.28-.41-.58-.61-.86-1.62-2.31-2.8-4.97-3.24-7.77l-.14-1.05c-.04-.35-.05-.71-.07-1.06-.03-.35-.02-.71-.01-1.06,0-.35.02-.71.06-1.06.04-.35.06-.7.12-1.05.05-.35.11-.7.19-1.04.14-.69.34-1.36.62-2.04.08-.2.31-.29.51-.21.19.08.28.29.22.48v.03Z"/>
          <path class="cls-3" d="m7.54,79.74c.21,1.2.63,2.4,1.17,3.51.56,1.11,1.2,2.17,1.96,3.14,1.51,1.96,3.4,3.6,5.46,4.96,1.02.71,2.12,1.27,3.22,1.87l1.7.91c.56.31,1.11.65,1.67.97,2.2,1.34,4.32,2.83,6.27,4.53,1.93,1.73,3.7,3.63,5.24,5.72l1.1,1.6c.19.26.34.55.51.83l.49.84.49.84.43.87c.28.58.58,1.16.84,1.74.46,1.2,1,2.38,1.35,3.62.19.61.4,1.22.56,1.84l.44,1.87.22.94.16.95.32,1.89c.12.63.15,1.27.22,1.91l.18,1.91c.01.14-.09.26-.23.27-.13.01-.25-.08-.27-.21v-.02c-.2-1.25-.36-2.51-.58-3.75l-.38-1.85-.19-.93-.25-.91-.5-1.82c-.19-.6-.42-1.19-.61-1.78-.37-1.2-.92-2.33-1.4-3.49-.27-.57-.57-1.12-.85-1.67l-.43-.83-.49-.8-.49-.8c-.17-.26-.32-.54-.51-.79l-1.1-1.52c-1.53-1.97-3.24-3.8-5.12-5.45-1.91-1.62-3.95-3.07-6.1-4.36-.54-.31-1.08-.64-1.63-.94l-1.67-.88c-1.12-.62-2.29-1.23-3.35-1.99-2.15-1.47-4.09-3.29-5.58-5.44-.73-1.09-1.36-2.24-1.83-3.46-.23-.61-.43-1.23-.58-1.87-.16-.63-.25-1.27-.27-1.94,0-.12.09-.22.21-.22.11,0,.2.07.22.18v.02Z"/>
          <path class="cls-3" d="m6.55,161.53c1.04-.89,2.16-1.64,3.33-2.33.59-.34,1.18-.67,1.79-.96.61-.3,1.23-.59,1.86-.84,1.26-.52,2.56-.94,3.88-1.28,1.33-.32,2.68-.54,4.05-.65,1.37-.12,2.74-.1,4.11.05,1.36.15,2.72.42,4.02.86l.49.16.48.19c.32.13.64.25.95.39.61.3,1.24.58,1.82.94,1.19.66,2.27,1.49,3.31,2.36.08.07.09.19.02.27-.06.07-.17.09-.25.04h0c-1.11-.74-2.2-1.49-3.4-2.04-.58-.31-1.2-.53-1.8-.79-.31-.12-.62-.21-.93-.32l-.46-.16-.47-.12c-1.25-.37-2.55-.56-3.85-.68-.33-.02-.65-.06-.98-.06l-.98-.02c-.65.02-1.3.04-1.95.11-2.6.23-5.16.9-7.63,1.8-2.47.91-4.87,2.05-7.15,3.41h0c-.09.06-.21.03-.26-.06-.05-.08-.03-.18.04-.24Z"/>
          <path class="cls-6" d="m73.57,9.44c-.84,1.18-1.74,2.29-2.68,3.38-.93,1.09-1.92,2.14-2.93,3.17l-.76.77-.78.75c-.52.5-1.05.99-1.58,1.47-1.07.96-2.17,1.9-3.3,2.8-.56.45-1.14.88-1.72,1.32-.58.43-1.17.85-1.75,1.27-1.17.82-2.3,1.64-3.37,2.55-2.14,1.8-4.02,3.9-5.42,6.3-.7,1.2-1.29,2.46-1.74,3.77-.46,1.31-.78,2.67-1.02,4.05-.25,1.38-.34,2.78-.4,4.19l-.02,1.06c0,.35.02.71.02,1.06,0,.71.06,1.41.11,2.12.44,5.65,1.82,11.23,3.49,16.69.02.08-.02.16-.1.19-.08.02-.16-.02-.18-.09-1-2.69-1.88-5.42-2.61-8.2-.73-2.78-1.31-5.61-1.6-8.49-.3-2.88-.33-5.8.09-8.7.21-1.45.55-2.88,1.01-4.28.46-1.4,1.07-2.75,1.8-4.03,1.46-2.57,3.46-4.8,5.68-6.69,1.11-.95,2.29-1.82,3.47-2.64.58-.41,1.16-.81,1.73-1.23.57-.43,1.14-.84,1.7-1.28.55-.44,1.13-.86,1.67-1.31.55-.45,1.11-.89,1.64-1.36,1.09-.92,2.17-1.84,3.21-2.81,1.06-.95,2.09-1.93,3.11-2.93,1.01-1,2.03-2.01,2.99-3.06h0c.06-.06.15-.07.21-.01.06.05.06.14.02.2Z"/>
        </g>
        <path class="cls-1" d="m37.8,174.5h23.81c1.78,0,3.12,1.68,2.78,3.43-1.42,7.53-4.3,14.17-7.3,19.74-.67,1.24-1.96,2.04-3.37,2.04h-7.77c-1.43,0-2.75-.78-3.44-2.03-3.74-6.8-5.56-13.54-7.09-20.15-.35-1.52.8-3.02,2.36-3.02Z"/>
      </g>
      <g>
        <g>
          <path class="cls-22" d="m149.31,159.51c1.04-19.04,3.14-36.42,7.69-46.86,1.46-3.34,4.26-5.87,7.72-7.01,9.36-3.07,19.1-1.68,17.5,6.97l-20.74,53.83-12.18-6.92Z"/>
          <g>
            <g>
              <path class="cls-27" d="m115.5,146.38s-4.09.63-8.68,3.71c-.72.48-1.12,1.33-1.01,2.19.55,4.36,2.81,18.47,10.27,32.25.39.73.51,1.57.33,2.38l-1.3,6.03-2.4,2.25h6.19l4.12-11.16-1.76-.56c-1.37-.43-2.3-1.69-2.33-3.12l-.21-11.97c.18-5.33-3.27-9.01-3.27-9.01l9.89-.48-9.85-12.51Z"/>
              <path class="cls-17" d="m110.29,196.28c-.56.74,6.07,1.71,9.42.1,0,0,4.65-8.08,4.65-12.24,0,0-.37-.85-3.1-.66,0,0-1.56,9.57-3.21,10.64-1.65,1.07-4.61.11-4.61.11,0,0-2.32.96-3.15,2.05Z"/>
              <path class="cls-11" d="m126.99,159.98c-.05-.09-10.65-1.27-10.65-1.27,0,0,.35,3.22-.74,7.66-1.08,4.43-16.64,23.65-16.64,23.65l1.63,5.17c-5.04,1.76-10,2.04-14.88.9l10.11-6.07s9.46-32.24,15.25-37.99l10.62-3.67,5.29,11.63Z"/>
              <path class="cls-18" d="m152.62,143.02s6.1,9.08,6.6,13.22c.5,4.14-1.67,5.82-8.08,6.1-6.4.28-30.55.27-30.55.27-8.34-6.19-8.73-9.81-10.34-14.48,0,0,1.22-2.09,16.2-2.86,2.96-.15,26.17-2.26,26.17-2.26Z"/>
              <path class="cls-28" d="m99.99,193.91s1.83,1.78.6,3.75c0,0-14.53,2.58-18.48,1.41,0,0,.82-1.87,5.26-4l-.33.25c-.41.32-.17.98.35.95,2.93-.17,8.99-.7,12.6-2.37Z"/>
            </g>
            <g>
              <path class="cls-20" d="m134.93,82.26c12.66.07,16.68,11.11,15.89,13.14-.11.27.12.55.4.53,1.48-.13,4.68-.06,6.18,2.7,1.33,2.44-.3,4.23-1.53,5.15-.3.22-.16.69.21.71,2.65.13,8.3,1.04,8.3,6.48,0,5.08-3.68,5.86-5.78,5.89-.36,0-.52.44-.25.68.9.82,1.84,2.36.91,4.9-1.47,3.98-9.47,2.23-10.4,2.01-.06-.01-.11-.04-.16-.08l-11.62-9.64c-.09-.08-.14-.19-.14-.3l.04-15.51c0-.13.06-.24.16-.32l-6.33-13.36c-2.98-.99,3.98-3,4.13-2.99Z"/>
              <path class="cls-13" d="m134.95,139.51s-5.83-7.9-8.5-12.92c-1.44-2.71-1.48-5.96-.1-8.71,2.51-5.02,6.27-10.02,6.67-10.83.62-1.24,8.46.19,8.46.19,0,0,13.68,12.74,16.76,30.79l-7.19.92s-2.84-7.48-6.07-12.48c0,0,5.29,10.32,4.88,14.09l-14.92-1.06Z"/>
              <path class="cls-12" d="m133.36,99.56c.03.29.89,7.44,1.02,7.61.14.17,4.43,1.16,6.71.13l-3.32-10.79-4.42,3.05Z"/>
              <g>
                <path class="cls-29" d="m126.68,89.39s-1.67,3.72.14,9.43,4.92,6.26,6.91,4.88c1.99-1.38,4.58-3.85,4.97-9,.39-5.15-9.73-10.01-12.03-5.31Z"/>
                <path class="cls-30" d="m134.87,94.31s-3.32-7.75-8.55-3.03l-.43,1.98s-4.89-1.47-3.21-5.89c1.68-4.42,6.5-6.53,11.7-3.57,5.21,2.96,8.03,5.55,7.69,9.6-.34,4.04-3.36,2.61-3.36,2.61,0,0-.54-2.99-1.96-3.54-1.42-.55-1.42,1.7-1.42,1.7l-.48.13Z"/>
                <path class="cls-9" d="m136.05,94.42s-1.73-3.97.78-4.08c2.51-.11,1.43,3.83.91,5.26l-1.69-1.18Z"/>
              </g>
              <path class="cls-7" d="m120.6,137.49l6.02-4.05,6.59,4.26s6.89,2.34,11.14,1.96l4.25-.38,9.66-1.24.72,4.32c.18,1.1-.39,2.18-1.39,2.66-.89.42-1.93.88-2.57,1.03-1.3.32-29.67-5.6-29.67-5.6l-4.74-2.95Z"/>
            </g>
            <g>
              <path class="cls-15" d="m145.93,146.43s-.05,0-.07,0l-30.29-.03c-.75,0-1.36-.61-1.35-1.36,0-.75.61-1.37,1.36-1.35l30.29.03c.75,0,1.36.61,1.35,1.36,0,.73-.57,1.32-1.29,1.35Z"/>
              <path class="cls-2" d="m88.34,118.93h25.23c1.86,0,3.56,1.07,4.35,2.76l11.66,24.73h-31.35c-1.2,0-2.28-.73-2.72-1.85l-9.04-22.89c-.52-1.32.45-2.76,1.87-2.76Z"/>
              <path class="cls-24" d="m106.11,131.61c.55,1.7.14,3.35-.9,3.68-1.04.34-2.34-.77-2.88-2.47-.55-1.7-.14-3.35.9-3.68,1.04-.34,2.34.77,2.88,2.47Z"/>
            </g>
          </g>
          <g>
            <rect class="cls-8" x="145.61" y="168.97" width="2.79" height="30.22" transform="translate(294.02 368.17) rotate(180)"/>
            <path class="cls-26" d="m134.77,197.96h24.48v1.67c0,.08-.07.15-.15.15h-24.19c-.07,0-.14-.06-.14-.14v-1.68h0Z" transform="translate(294.02 397.73) rotate(180)"/>
            <rect class="cls-10" x="130.15" y="161.78" width="32.7" height="9.28" rx="3.19" ry="3.19"/>
          </g>
        </g>
        <g>
          <g>
            <path class="cls-14" d="m171.06,199.03c.12,0,.25-.03.37-.08.47-.22.69-.82.49-1.34l-19.63-49.81c-.2-.52-.75-.76-1.23-.53-.47.22-.69.82-.49,1.34l19.63,49.81c.15.39.5.62.86.62Z"/>
            <path class="cls-14" d="m148.95,199.03c.36,0,.71-.23.86-.62l19.63-49.81c.2-.52-.02-1.12-.49-1.34-.47-.22-1.03.02-1.23.53l-19.63,49.81c-.2.52.02,1.12.49,1.34.12.06.25.08.37.08Z"/>
            <path class="cls-14" d="m87.5,199.03c.12,0,.25-.03.37-.08.47-.22.69-.82.49-1.34l-19.63-49.81c-.2-.52-.75-.76-1.23-.53-.47.22-.69.82-.49,1.34l19.63,49.81c.15.39.5.62.86.62Z"/>
            <path class="cls-14" d="m65.39,199.03c.36,0,.71-.23.86-.62l19.63-49.81c.2-.52-.02-1.12-.49-1.34-.47-.22-1.03.02-1.23.53l-19.63,49.81c-.2.52.02,1.12.49,1.34.12.06.25.08.37.08Z"/>
          </g>
          <path class="cls-14" d="m63.09,146.36c-.06-.29.02-.59.24-.82.22-.23.54-.36.88-.36h115.12c.45,0,.86.2,1.1.52s.27.74.09,1.09l-1.25,2.34c-.29.54-.9.88-1.59.88h-112.69c-.63,0-1.18-.39-1.3-.93l-.61-2.73Z"/>
        </g>
      </g>
      <g>
        <g>
          <g>
            <g>
              <path class="cls-24" d="m152.83,52.82s-8.67-20.03-2.11-41.14c.04-.14.29-.11.3.03,1.58,12.76,2.05,26.59,1.8,41.1Z"/>
              <path class="cls-16" d="m152.79,52.4s-.09-.03-.11-.08c-1.54-5.47-2.12-14.75-2.34-21.58-.24-7.39-.11-13.58-.11-13.64,0-.06.04-.11.11-.11.06,0,.11.05.11.11,0,.06-.13,6.24.11,13.63.22,6.82.8,16.08,2.34,21.53.02.06-.02.12-.08.14-.01,0-.02,0-.03,0Z"/>
            </g>
            <g>
              <path class="cls-24" d="m154.81,49.55s-5.36-24.58,4.77-49.45c.07-.16.31-.11.3.06-.55,15.4-2.38,32.01-5.07,49.39Z"/>
              <path class="cls-21" d="m154.87,49.02c-.06,0-.11-.04-.11-.1-1.21-12.72,3.38-42.08,3.43-42.37,0-.06.07-.1.13-.09.06,0,.1.07.09.13-.05.29-4.63,29.63-3.43,42.32,0,.06-.04.12-.1.12,0,0,0,0-.01,0Z"/>
            </g>
            <g>
              <path class="cls-24" d="m155.67,56.22s-2.57-21.44,10.18-40.74c.08-.13.32-.05.29.1-2.25,12.84-5.9,26.48-10.47,40.64Z"/>
              <path class="cls-25" d="m155.79,55.8h0c-.06,0-.11-.05-.11-.11.11-5.68,2.31-14.9,4.12-21.63,1.97-7.29,3.94-13.32,3.96-13.38.02-.06.08-.09.14-.07.06.02.09.08.07.14-.02.06-1.99,6.09-3.95,13.37-1.81,6.72-4,15.92-4.12,21.58,0,.06-.05.11-.11.11Z"/>
            </g>
          </g>
          <path class="cls-14" d="m149.16,44.35h11.79c.88,0,1.54.83,1.38,1.7-.7,3.72-2.13,7.02-3.61,9.77-.33.62-.97,1.01-1.67,1.01h-3.85c-.71,0-1.36-.39-1.7-1.01-1.85-3.36-2.75-6.7-3.51-9.97-.17-.75.4-1.5,1.17-1.5Z"/>
        </g>
        <g>
          <g>
            <g>
              <path class="cls-19" d="m123.96,25.31s-.93-5.77,1.9-7.63c.13-.08.29.01.29.16v1.1c0,.26.31.4.5.22.61-.57,1.7-1.45,2.86-1.63.31-.05.55.26.42.54-.71,1.52-2.57,5.77-2.5,8.55l-3.48-1.31Z"/>
              <path class="cls-14" d="m120.95,25.31l-1.9,30.31h11.36v-29.46c0-.85-.54-1.6-1.34-1.87-1.5-.51-4.06-1.15-6.57-.71-.86.15-1.5.87-1.55,1.73Z"/>
              <path class="cls-4" d="m120.98,44.4l-.38,8.45c-.03.7.53,1.29,1.23,1.29h5.74c.68,0,1.23-.55,1.23-1.23v-8.45c0-.68-.55-1.23-1.23-1.23h-5.35c-.66,0-1.2.52-1.23,1.17Z"/>
            </g>
            <g>
              <path class="cls-24" d="m141.35,53.2v-28.9c0-.78-.51-1.48-1.25-1.71-3.34-1.02-6.25-.45-7.78.02-.68.21-1.14.83-1.14,1.54v31.46h7.75c1.34,0,2.42-1.08,2.42-2.42Z"/>
              <path class="cls-4" d="m132.19,24.81l.25,4.62c.03.58.51,1.03,1.08,1.03h5.45c.59,0,1.07-.46,1.09-1.05l.15-4.56c.02-.52-.34-.99-.85-1.1-1.32-.29-3.93-.68-6.34-.06-.5.13-.85.59-.82,1.11Z"/>
              <path class="cls-4" d="m132.61,32.46h0c.04.57.51,1.01,1.08,1.01h5.22c.61,0,1.1-.5,1.09-1.11h0c-.01-.59-.49-1.06-1.09-1.06h-5.22c-.63,0-1.13.53-1.08,1.16Z"/>
            </g>
            <path class="cls-14" d="m95.86,24.41l-.4,31.07h18.05l-1.35-30.24c-.04-.87-.6-1.63-1.43-1.93-2.24-.8-7.13-1.98-13.75-.33-.66.16-1.12.75-1.13,1.43Z"/>
            <g>
              <path class="cls-24" d="m106.73,25.17l1.26,30.42h10.76l.82-30.76c.02-.85-.52-1.61-1.33-1.85-3.5-1.05-6.97-1.15-10.41.42-.69.32-1.13,1.02-1.1,1.78Z"/>
              <path class="cls-5" d="m107.71,26.31l.13,1.65c.04.5.47.88.97.85l8.79-.51c.46-.03.83-.39.87-.85l.09-1.14c.04-.54-.38-.99-.92-.99h-9c-.54,0-.96.46-.92.99Z"/>
              <path class="cls-5" d="m108.07,30.26v.6c0,.47.39.84.85.82l8.42-.35c.44-.02.79-.38.79-.82v-.64c0-.47-.39-.84-.86-.82l-8.42.39c-.44.02-.78.38-.78.82Z"/>
            </g>
          </g>
          <rect class="cls-19" x="92.13" y="55.47" width="75.65" height="8.92" rx="2.65" ry="2.65"/>
        </g>
      </g>
      <g>
        <g>
          <path class="cls-24" d="m165.19,95.91c-.13-.24-.5-.16-.51.12-.11,4.33-.01,19.79,6.93,26.02,8.11,7.28,13.54,8.54,13.43,22.26-.11,13.57-1.83,37.82.91,44.67.05.13.17.22.31.23h0c.23.01.41-.19.37-.42-.36-2.07-1.81-11.06-1.36-19.45.51-9.56,4.72-33.71-.6-51.56-4.99-16.72-16.15-15.82-19.48-21.87Z"/>
          <path class="cls-24" d="m185.76,192.48c-.19-.02-.34-.16-.37-.35-.35-2.01-2.13-13.13.52-19.29,2.93-6.79,7.97-13.28,4.16-28.69-2.16-8.73-1.55-13.61-1.19-15.32.05-.26.4-.31.53-.08,1.61,2.88,8.32,15.02,9.51,18.83,1.35,4.34,2.65,12.89-4.03,17.32-6.57,4.36-8.9,14.17-8.67,27.03.02.91-.16.56-.45.53h0Z"/>
          <path class="cls-19" d="m183.49,183.92c.27.02.85,2.34.98,2.05,1.11-2.61,5.6-17.76-.16-28.11-6.01-10.79-11.65-13.06-12.01-18.81-.02-.35-.41-.45-.55-.13-1.94,4.48-7.77,20.22,1.31,29.66,9.02,9.36,10.01,12.72,9.81,14.46-.05.45.23.85.61.89h0Z"/>
          <path class="cls-3" d="m168.91,102.91c.66.4,1.29.84,1.9,1.31.62.46,1.21.95,1.79,1.45.58.5,1.14,1.03,1.7,1.56.28.27.54.55.81.82.27.28.53.56.79.84,1.03,1.14,2.01,2.34,2.91,3.59l.34.47.33.48c.21.32.44.63.64.96l.62.98.58,1c.75,1.35,1.43,2.73,2.02,4.16.15.35.28.72.42,1.08l.2.54c.06.18.12.37.18.55.12.37.24.73.36,1.1l.31,1.12c.11.37.19.75.27,1.12.08.38.18.75.24,1.13.13.76.27,1.52.34,2.28.2,1.53.24,3.07.22,4.6,0,.07-.06.12-.13.12-.07,0-.12-.05-.12-.12h0c-.12-3.05-.57-6.07-1.43-8.98l-.33-1.09-.37-1.07c-.06-.18-.12-.36-.19-.53l-.21-.53c-.14-.35-.27-.71-.43-1.05-.59-1.39-1.28-2.74-2.03-4.06-1.5-2.63-3.31-5.08-5.3-7.36-.25-.28-.5-.57-.75-.85-.26-.28-.51-.56-.78-.83-.52-.55-1.05-1.09-1.6-1.62-1.09-1.06-2.21-2.09-3.4-3.04h0s-.04-.08-.01-.12c.03-.03.07-.04.11-.02Z"/>
          <path class="cls-3" d="m171.65,143.17c-.02,1.66.27,3.29.75,4.87.24.79.54,1.56.89,2.31.35.75.76,1.47,1.22,2.14.46.68.97,1.33,1.53,1.92.56.59,1.17,1.13,1.8,1.63l.48.36.46.34c.15.11.3.23.45.34.15.12.3.23.44.36.58.49,1.11,1.03,1.6,1.61,1.99,2.3,3.15,5.35,3.45,8.5.33,3.16-.07,6.4-.82,9.54-.02.08.03.16.1.18.07.02.14-.02.16-.09.25-.77.48-1.55.67-2.35.19-.79.35-1.6.48-2.41.13-.81.21-1.63.25-2.46.04-.83.04-1.66-.02-2.49-.11-1.66-.43-3.32-1.02-4.88-.58-1.56-1.42-3.03-2.48-4.28-.53-.63-1.1-1.21-1.71-1.74-.15-.14-.31-.26-.46-.39-.16-.13-.31-.25-.48-.37l-.94-.68c-1.2-.91-2.27-2-3.18-3.24-.45-.62-.86-1.28-1.23-1.96-.37-.69-.69-1.4-.98-2.14-.56-1.47-.99-3.03-1.19-4.62h0c0-.07-.06-.12-.13-.11-.06,0-.1.06-.1.12Z"/>
        </g>
        <path class="cls-14" d="m175.44,183.3h15.99c1.2,0,2.09,1.13,1.87,2.3-.95,5.05-2.89,9.52-4.9,13.25-.45.83-1.32,1.37-2.27,1.37h-5.22c-.96,0-1.84-.52-2.31-1.37-2.51-4.56-3.73-9.09-4.76-13.53-.24-1.02.54-2.03,1.59-2.03Z"/>
      </g>
    </g>
  </g>
</svg>