<?xml version="1.0" encoding="UTF-8"?>
<svg id="Layer_2" data-name="Layer 2" xmlns="http://www.w3.org/2000/svg" xmlns:xlink="http://www.w3.org/1999/xlink" viewBox="0 0 200 199.21">
  <defs>
    <style>
      .cls-1 {
        fill: url(#linear-gradient-2);
      }

      .cls-2, .cls-3, .cls-4 {
        fill: #fff;
      }

      .cls-5 {
        fill: url(#linear-gradient-17);
      }

      .cls-6 {
        fill: url(#linear-gradient-43);
      }

      .cls-7 {
        fill: url(#linear-gradient-15);
      }

      .cls-8 {
        fill: url(#linear-gradient-18);
      }

      .cls-9, .cls-3 {
        opacity: .6;
      }

      .cls-10 {
        fill: url(#linear-gradient-40);
      }

      .cls-11 {
        fill: url(#linear-gradient-28);
      }

      .cls-12 {
        fill: url(#linear-gradient-14);
      }

      .cls-13 {
        fill: url(#linear-gradient-36);
      }

      .cls-14 {
        fill: url(#linear-gradient-20);
      }

      .cls-15 {
        fill: url(#linear-gradient-6);
      }

      .cls-16 {
        fill: url(#linear-gradient-35);
      }

      .cls-17 {
        fill: url(#linear-gradient-48);
      }

      .cls-18 {
        fill: url(#linear-gradient-32);
      }

      .cls-19 {
        fill: url(#linear-gradient-11);
      }

      .cls-20 {
        fill: url(#linear-gradient-39);
      }

      .cls-21 {
        fill: url(#linear-gradient-10);
      }

      .cls-22 {
        fill: url(#linear-gradient-49);
      }

      .cls-23 {
        fill: url(#linear-gradient-37);
      }

      .cls-24 {
        fill: url(#linear-gradient-16);
      }

      .cls-25 {
        fill: url(#linear-gradient-31);
      }

      .cls-26 {
        fill: #42906a;
      }

      .cls-27 {
        fill: url(#linear-gradient-41);
      }

      .cls-28 {
        fill: url(#linear-gradient-21);
      }

      .cls-29 {
        fill: url(#linear-gradient-25);
      }

      .cls-30 {
        fill: url(#linear-gradient-5);
      }

      .cls-31 {
        fill: url(#linear-gradient-45);
      }

      .cls-32 {
        fill: url(#linear-gradient-34);
      }

      .cls-33 {
        fill: #0a6f3d;
      }

      .cls-34 {
        fill: url(#linear-gradient-7);
      }

      .cls-35 {
        fill: url(#linear-gradient-24);
      }

      .cls-36 {
        fill: url(#linear-gradient-9);
      }

      .cls-37 {
        fill: url(#linear-gradient-22);
      }

      .cls-38 {
        fill: url(#linear-gradient-42);
      }

      .cls-39 {
        fill: url(#linear-gradient-3);
      }

      .cls-40 {
        fill: url(#linear-gradient);
      }

      .cls-4 {
        opacity: .78;
      }

      .cls-41 {
        fill: url(#linear-gradient-27);
      }

      .cls-42 {
        fill: #8cbba4;
      }

      .cls-43 {
        fill: url(#linear-gradient-33);
      }

      .cls-44 {
        fill: url(#linear-gradient-38);
      }

      .cls-45 {
        fill: url(#linear-gradient-29);
      }

      .cls-46 {
        fill: url(#linear-gradient-30);
      }

      .cls-47 {
        fill: url(#linear-gradient-23);
      }

      .cls-48 {
        fill: url(#linear-gradient-19);
      }

      .cls-49 {
        fill: url(#linear-gradient-4);
      }

      .cls-50 {
        fill: url(#linear-gradient-8);
      }

      .cls-51 {
        fill: url(#linear-gradient-44);
      }

      .cls-52 {
        fill: url(#linear-gradient-47);
      }

      .cls-53 {
        fill: url(#linear-gradient-46);
      }

      .cls-54 {
        fill: url(#linear-gradient-12);
      }

      .cls-55 {
        fill: url(#linear-gradient-13);
      }

      .cls-56 {
        fill: url(#linear-gradient-26);
      }
    </style>
    <linearGradient id="linear-gradient" x1="223.71" y1="255.01" x2="49.06" y2="38.12" gradientUnits="userSpaceOnUse">
      <stop offset="0" stop-color="#e1fef0"/>
      <stop offset="1" stop-color="#edfff6"/>
    </linearGradient>
    <linearGradient id="linear-gradient-2" x1="83.71" y1="142.99" x2="14.62" y2="218.04" gradientUnits="userSpaceOnUse">
      <stop offset="0" stop-color="#65c697"/>
      <stop offset="1" stop-color="#55c08b"/>
    </linearGradient>
    <linearGradient id="linear-gradient-3" x1="5.31" y1="179.04" x2="85.76" y2="179.04" gradientUnits="userSpaceOnUse">
      <stop offset="0" stop-color="#bdd8cb"/>
      <stop offset="1" stop-color="#d8e8e0"/>
    </linearGradient>
    <linearGradient id="linear-gradient-4" y1="181.58" y2="181.58" xlink:href="#linear-gradient-3"/>
    <linearGradient id="linear-gradient-5" y1="184.11" y2="184.11" xlink:href="#linear-gradient-3"/>
    <linearGradient id="linear-gradient-6" y1="186.65" y2="186.65" xlink:href="#linear-gradient-3"/>
    <linearGradient id="linear-gradient-7" y1="189.18" y2="189.18" xlink:href="#linear-gradient-3"/>
    <linearGradient id="linear-gradient-8" x1="111.9" y1="112.08" x2="41.57" y2="206.58" gradientTransform="translate(148.9 324.81) rotate(-180)" gradientUnits="userSpaceOnUse">
      <stop offset="0" stop-color="#53d8ff"/>
      <stop offset="1" stop-color="#52bf8a"/>
    </linearGradient>
    <linearGradient id="linear-gradient-9" x1="106.64" y1="108.81" x2="36.97" y2="202.42" gradientTransform="translate(133.51 324.81) rotate(-180)" xlink:href="#linear-gradient-8"/>
    <linearGradient id="linear-gradient-10" x1="26.91" y1="62.32" x2="74.15" y2="62.32" xlink:href="#linear-gradient-3"/>
    <linearGradient id="linear-gradient-11" x1="173.13" y1="-361.79" x2="251.1" y2="-273.17" gradientTransform="translate(-255.16 -184.47) rotate(96.82)" gradientUnits="userSpaceOnUse">
      <stop offset="0" stop-color="#021c0f"/>
      <stop offset="1" stop-color="#0a6f3d"/>
    </linearGradient>
    <linearGradient id="linear-gradient-12" x1="166.26" y1="-355.75" x2="244.23" y2="-267.13" gradientTransform="translate(-182.07 345.99) rotate(11.18)" xlink:href="#linear-gradient-11"/>
    <linearGradient id="linear-gradient-13" x1="-289" y1="330.91" x2="-329.35" y2="399.78" gradientTransform="translate(384.49 -239.48) rotate(-.3)" gradientUnits="userSpaceOnUse">
      <stop offset="0" stop-color="#34875e"/>
      <stop offset="1" stop-color="#41554b"/>
    </linearGradient>
    <linearGradient id="linear-gradient-14" x1="-257.49" y1="192.95" x2="-269.45" y2="234.61" gradientTransform="translate(384.49 -239.48) rotate(-.3)" gradientUnits="userSpaceOnUse">
      <stop offset="0" stop-color="#ffadaa"/>
      <stop offset="1" stop-color="#ff928e"/>
    </linearGradient>
    <linearGradient id="linear-gradient-15" x1="-263.91" y1="191.11" x2="-275.86" y2="232.77" xlink:href="#linear-gradient-14"/>
    <linearGradient id="linear-gradient-16" x1="-269.24" y1="189.58" x2="-281.19" y2="231.24" xlink:href="#linear-gradient-14"/>
    <linearGradient id="linear-gradient-17" x1="-273.93" y1="188.24" x2="-285.88" y2="229.9" xlink:href="#linear-gradient-14"/>
    <linearGradient id="linear-gradient-18" x1="274.61" y1="-172.35" x2="249.97" y2="-99.89" xlink:href="#linear-gradient-2"/>
    <linearGradient id="linear-gradient-19" x1="-1570.42" y1="-6417.41" x2="-1595.06" y2="-6344.95" gradientTransform="translate(-6388.86 -714.35) rotate(110.03)" xlink:href="#linear-gradient-2"/>
    <linearGradient id="linear-gradient-20" x1="550.36" y1="-981.35" x2="525.72" y2="-908.89" gradientTransform="translate(-771.36 547.97) rotate(27.87)" xlink:href="#linear-gradient-2"/>
    <linearGradient id="linear-gradient-21" x1="-5835.89" y1="642.56" x2="-5860.52" y2="715.03" gradientTransform="translate(-7654.43 206.22) rotate(-153.27)" xlink:href="#linear-gradient-2"/>
    <linearGradient id="linear-gradient-22" x1="-5633.79" y1="198.74" x2="-5624.02" y2="198.74" gradientTransform="translate(-5469.18) rotate(-180) scale(1 -1)" xlink:href="#linear-gradient-2"/>
    <linearGradient id="linear-gradient-23" x1="-5633.79" y1="196.82" x2="-5624.29" y2="196.82" gradientTransform="translate(-5469.18) rotate(-180) scale(1 -1)" gradientUnits="userSpaceOnUse">
      <stop offset="0" stop-color="#0fa65c"/>
      <stop offset="1" stop-color="#22ad69"/>
    </linearGradient>
    <linearGradient id="linear-gradient-24" x1="-5632.89" y1="194.15" x2="-5630.14" y2="194.15" gradientTransform="translate(-5469.18) rotate(-180) scale(1 -1)" gradientUnits="userSpaceOnUse">
      <stop offset="0" stop-color="#ffccca"/>
      <stop offset="1" stop-color="#ffadaa"/>
    </linearGradient>
    <linearGradient id="linear-gradient-25" x1="-5653.28" y1="198.53" x2="-5649.54" y2="198.53" gradientTransform="translate(-5469.18) rotate(-180) scale(1 -1)" xlink:href="#linear-gradient-2"/>
    <linearGradient id="linear-gradient-26" x1="-5653.26" y1="195.64" x2="-5647.76" y2="195.64" xlink:href="#linear-gradient-23"/>
    <linearGradient id="linear-gradient-27" x1="-5650.4" y1="191.85" x2="-5647.11" y2="191.85" xlink:href="#linear-gradient-24"/>
    <linearGradient id="linear-gradient-28" x1="-5624.95" y1="161.53" x2="-5661.38" y2="214.62" gradientTransform="translate(-5469.18) rotate(-180) scale(1 -1)" gradientUnits="userSpaceOnUse">
      <stop offset="0" stop-color="#021c0f"/>
      <stop offset="1" stop-color="#162e22"/>
    </linearGradient>
    <linearGradient id="linear-gradient-29" x1="188.15" y1="60.4" x2="178.01" y2="86.97" gradientTransform="matrix(1,0,0,1,0,0)" xlink:href="#linear-gradient-14"/>
    <linearGradient id="linear-gradient-30" x1="-5639.31" y1="179.67" x2="-5637.73" y2="176.51" gradientTransform="translate(-5469.18) rotate(-180) scale(1 -1)" xlink:href="#linear-gradient-8"/>
    <linearGradient id="linear-gradient-31" x1="-5635.32" y1="143.88" x2="-5647.04" y2="154.26" xlink:href="#linear-gradient-24"/>
    <linearGradient id="linear-gradient-32" x1="196.03" y1="63.41" x2="185.89" y2="89.97" gradientTransform="matrix(1,0,0,1,0,0)" xlink:href="#linear-gradient-14"/>
    <linearGradient id="linear-gradient-33" x1="178.52" y1="56.72" x2="168.37" y2="83.29" gradientTransform="matrix(1,0,0,1,0,0)" xlink:href="#linear-gradient-14"/>
    <linearGradient id="linear-gradient-34" x1="-5613.36" y1="144.86" x2="-5604.13" y2="144.86" xlink:href="#linear-gradient-24"/>
    <linearGradient id="linear-gradient-35" x1="-5622.33" y1="120.21" x2="-5622.43" y2="137.44" xlink:href="#linear-gradient-24"/>
    <linearGradient id="linear-gradient-36" x1="-5851.8" y1="1201.6" x2="-5860.28" y2="1212.82" gradientTransform="translate(-5472.38 -1907.49) rotate(-171.79) scale(1 -1)" xlink:href="#linear-gradient-24"/>
    <linearGradient id="linear-gradient-37" x1="-5858.27" y1="1204.31" x2="-5848.14" y2="1204.31" gradientTransform="translate(-5472.38 -1907.49) rotate(-171.79) scale(1 -1)" xlink:href="#linear-gradient-28"/>
    <linearGradient id="linear-gradient-38" x1="-5864.22" y1="1210.49" x2="-5857.41" y2="1203.51" gradientTransform="translate(-5472.38 -1907.49) rotate(-171.79) scale(1 -1)" xlink:href="#linear-gradient-24"/>
    <linearGradient id="linear-gradient-39" x1="-5605.11" y1="143.78" x2="-5601.81" y2="143.78" xlink:href="#linear-gradient-24"/>
    <linearGradient id="linear-gradient-40" x1="-5568.29" y1="118.14" x2="-5707.65" y2="219.8" xlink:href="#linear-gradient-23"/>
    <linearGradient id="linear-gradient-41" x1="-5563.4" y1="140.76" x2="-5545.05" y2="124.8" xlink:href="#linear-gradient-23"/>
    <linearGradient id="linear-gradient-42" x1="-5547.36" y1="117.34" x2="-5615.32" y2="187.19" xlink:href="#linear-gradient-24"/>
    <linearGradient id="linear-gradient-43" x1="-5588.8" y1="119.38" x2="-5650.14" y2="182.42" gradientTransform="translate(-5469.18) rotate(-180) scale(1 -1)" xlink:href="#linear-gradient-2"/>
    <linearGradient id="linear-gradient-44" x1="-5587.22" y1="124.92" x2="-5648.55" y2="187.96" gradientTransform="translate(-5469.18) rotate(-180) scale(1 -1)" xlink:href="#linear-gradient-2"/>
    <linearGradient id="linear-gradient-45" x1="-5630.69" y1="149.11" x2="-5642.41" y2="159.48" xlink:href="#linear-gradient-24"/>
    <linearGradient id="linear-gradient-46" x1="350.7" y1="-130.89" x2="256.02" y2="-46.84" gradientTransform="matrix(1,0,0,1,0,0)" xlink:href="#linear-gradient-23"/>
    <linearGradient id="linear-gradient-47" x1="997.83" y1="221.65" x2="979.95" y2="249.19" gradientTransform="translate(716.51 892.9) rotate(-107.18) scale(1 -1)" xlink:href="#linear-gradient-14"/>
    <linearGradient id="linear-gradient-48" x1="1526.77" y1="399.71" x2="1508.9" y2="427.24" gradientTransform="translate(719.5 1453.35) rotate(-91.75) scale(1 -1)" xlink:href="#linear-gradient-14"/>
    <linearGradient id="linear-gradient-49" x1="-3942.78" y1="233.01" x2="-3913.72" y2="157.35" gradientTransform="translate(-3737.31) rotate(-180) scale(1 -1)" xlink:href="#linear-gradient-23"/>
  </defs>
  <g id="Layer_1-2" data-name="Layer 1">
    <g>
      <path class="cls-40" d="m175.66,169.48c-4.01,4.22-7.81,6.95-10.81,9.1-35.25,25.29-76.96,17.92-85.83,16.12-13.09-2.66-38.39-7.8-56.69-29.31C-5.34,132.83-1.03,81.56,20.44,47.71,24.37,41.51,45.11,7.15,87.27,1.64c25.51-3.34,55.26,3.39,76.8,21.44,45.21,37.88,41.99,114.4,11.59,146.4Z"/>
      <g>
        <g>
          <path class="cls-42" d="m2.6,192.61h85.28s0-17.07,0-17.07H2.6c1.83,0,1.83,17.07,0,17.07Z"/>
          <path class="cls-1" d="m87.89,188.34v-7.81c0-2.75-1.69-4.99-3.76-4.99H2.96c-1.63,0-2.96-1.33-2.96-2.96h0c0-.5.4-.9.9-.9h88.7c2.03,0,5.26,3.2,5.26,7.14v10.91c0,3.72-3.14,6.74-5.05,6.74H1.37c-.75,0-1.37-.61-1.37-1.37,0-1.38,1.12-2.49,2.49-2.49h82.17c1.78,0,3.22-1.91,3.22-4.27Z"/>
        </g>
        <path class="cls-39" d="m85.52,179.29H5.55c-.13,0-.24-.11-.24-.24s.11-.24.24-.24h79.97c.13,0,.24.11.24.24s-.11.24-.24.24Z"/>
        <path class="cls-49" d="m85.52,181.82H5.55c-.13,0-.24-.11-.24-.24s.11-.24.24-.24h79.97c.13,0,.24.11.24.24s-.11.24-.24.24Z"/>
        <path class="cls-30" d="m85.52,184.35H5.55c-.13,0-.24-.11-.24-.24s.11-.24.24-.24h79.97c.13,0,.24.11.24.24s-.11.24-.24.24Z"/>
        <path class="cls-15" d="m85.52,186.89H5.55c-.13,0-.24-.11-.24-.24s.11-.24.24-.24h79.97c.13,0,.24.11.24.24s-.11.24-.24.24Z"/>
        <path class="cls-34" d="m85.52,189.42H5.55c-.13,0-.24-.11-.24-.24s.11-.24.24-.24h79.97c.13,0,.24.11.24.24s-.11.24-.24.24Z"/>
      </g>
      <g>
        <rect class="cls-33" x="9.44" y="152.93" width="78.49" height="18.95" rx="4.85" ry="4.85"/>
        <rect class="cls-50" x="69.84" y="155.11" width="9.22" height="14.59" rx=".52" ry=".52" transform="translate(148.9 324.81) rotate(180)"/>
        <rect class="cls-36" x="65.02" y="155.11" width="3.46" height="14.59" rx=".26" ry=".26" transform="translate(133.51 324.81) rotate(180)"/>
      </g>
      <g>
        <path class="cls-42" d="m81.07,105.34S61.83,37.99,26.71,2.38c-2.36-2.39-6.43-1.24-7.17,2.04-4.94,21.93-13.31,88.16,61.53,100.92Z"/>
        <path class="cls-21" d="m74.09,101.26c.17.15-.03.42-.23.29-7.11-4.8-34.84-28.71-46.95-78.33-.04-.16.19-.23.25-.08,3.87,11.45,19.47,53.63,46.93,78.12Z"/>
      </g>
      <g>
        <path class="cls-26" d="m96.43,155.59S58.71,79.08,8.88,44.05c-3.35-2.35-7.98-.09-8.15,4-1.14,27.36,3.24,108.53,95.7,107.54Z"/>
        <path class="cls-42" d="m87.17,152.22c.24.15.05.51-.21.4-9.56-4.2-48-26.82-73.31-83.64-.08-.18.18-.32.28-.14,7.13,12.88,35.01,60.02,73.24,83.39Z"/>
      </g>
      <g>
        <path class="cls-33" d="m31.24,13.59c-.03-2.3,1.99-4.09,4.27-3.8,15.14,1.97,67.21,8.05,110.21,4.52,1.96-.16,3.67,1.32,3.79,3.28l9.42,161.32c.13,2.21-1.55,4.11-3.76,4.26-18.09,1.16-92.58,5.69-119.18,3.05-1.62-.16-2.85-1.52-2.87-3.14l-1.88-169.49Z"/>
        <path class="cls-42" d="m33.04,17.62c-.02-2.22,1.92-3.94,4.11-3.65,14.57,1.9,64.68,7.75,106.06,4.35,1.89-.15,3.53,1.27,3.64,3.16l9.06,155.25c.12,2.13-1.49,3.96-3.62,4.1-17.41,1.12-89.1,5.48-114.69,2.93-1.56-.15-2.75-1.46-2.76-3.02l-1.81-163.1Z"/>
        <path class="cls-4" d="m46.58,29.52l1.72,33.28c.06,1.11.96,1.98,2.06,2.01,6.17.14,25.38.51,36.23-.11,1.23-.07,2.19-1.07,2.23-2.3.17-6.24.53-24.42-.93-32.01-.24-1.23-1.3-2.12-2.54-2.16l-36.45-1.08c-1.31-.04-2.38,1.05-2.31,2.37Z"/>
        <circle class="cls-19" cx="67.62" cy="41.32" r="7.16" transform="translate(21.27 105.6) rotate(-85.64)"/>
        <path class="cls-54" d="m56.85,62.39l22.8-.12c1.4,0,2.23-1.56,1.47-2.73-1.95-3.02-6.03-7.45-13.04-7.21-6.76.23-10.75,4.27-12.75,7.17-.85,1.23.03,2.9,1.53,2.9Z"/>
        <g class="cls-9">
          <path class="cls-2" d="m137.94,31.95c.63,0,1.12-.51,1.1-1.12s-.55-1.12-1.18-1.13l-40.29-.51c-.63,0-.97.47-.76,1.06l.3.84c.21.59.9,1.07,1.52,1.07l39.29-.2Z"/>
        </g>
        <g class="cls-9">
          <path class="cls-2" d="m97.61,35.39c-.63,0-.97.47-.76,1.06l.3.84c.21.59.9,1.07,1.52,1.07l39.29-.2c.63,0,1.12-.51,1.1-1.12s-.55-1.12-1.18-1.13l-40.29-.51Z"/>
        </g>
        <g class="cls-9">
          <path class="cls-2" d="m97.64,41.69c-.63,0-.97.47-.76,1.06l.3.84c.21.59.9,1.07,1.52,1.07l39.29-.2c.63,0,1.12-.51,1.1-1.12s-.55-1.12-1.18-1.13l-40.29-.51Z"/>
        </g>
        <g class="cls-9">
          <path class="cls-2" d="m142.04,74.8c.63,0,1.1-.51,1.06-1.12-.04-.61-.59-1.12-1.22-1.12l-93.95-.25c-.63,0-.82.4-.43.88l.97,1.2c.39.49,1.23.89,1.85.88l91.71-.48Z"/>
        </g>
        <g class="cls-9">
          <path class="cls-2" d="m47.97,78.51c-.63,0-.82.4-.43.88l.97,1.2c.39.49,1.23.89,1.85.88l91.71-.48c.63,0,1.1-.51,1.06-1.12-.04-.61-.59-1.12-1.22-1.12l-93.95-.25Z"/>
        </g>
        <path class="cls-3" d="m47.76,88.87c2.25-.18,6.47-.29,8.79-.33.98-.02,1.85.64,2.08,1.6.46,1.85,1.09,5.07,1.03,8.49-.02,1.02-.85,1.84-1.87,1.84l-8.56-.05c-1.05,0-1.93-.81-2.04-1.85l-.79-8.05c-.08-.83.53-1.57,1.37-1.64Z"/>
        <g class="cls-9">
          <path class="cls-2" d="m63.45,92.09c-.63-.02-1.06.47-.96,1.08l.26,1.69c.1.62.69,1.12,1.31,1.12l21.11-.11c.63,0,1.13-.52,1.12-1.15v-.67c-.02-.63-.54-1.16-1.17-1.18l-21.68-.79Z"/>
        </g>
        <path class="cls-3" d="m94.41,88.63c2.25-.18,6.47-.29,8.79-.33.98-.02,1.85.64,2.08,1.6.46,1.85,1.09,5.07,1.03,8.49-.02,1.02-.85,1.84-1.87,1.84l-8.56-.05c-1.05,0-1.93-.81-2.04-1.85l-.79-8.05c-.08-.83.53-1.57,1.37-1.64Z"/>
        <g class="cls-9">
          <path class="cls-2" d="m110.1,91.85c-.63-.02-1.06.47-.96,1.08l.26,1.69c.1.62.69,1.12,1.31,1.12l21.11-.11c.63,0,1.13-.52,1.12-1.15v-.67c-.02-.63-.54-1.16-1.17-1.18l-21.68-.79Z"/>
        </g>
        <g>
          <path class="cls-2" d="m60.01,120.77s-.01,0-.02,0l-7.9-.03c-1.13,0-2.06-.78-2.18-1.8l-.73-6.63c-.04-.39.08-.77.33-1.09.29-.35.73-.57,1.21-.6h0c.67-.05,1.6-.13,2.59-.22,2.09-.19,4.69-.42,6.15-.45,1.06-.01,1.97.61,2.22,1.54.42,1.52.4,4.4.34,7.47-.02,1-.92,1.81-2.01,1.81Zm-9.24-9.54c-.31.02-.6.16-.78.39-.15.18-.22.41-.2.63l.73,6.63c.08.71.76,1.25,1.58,1.26l7.9.03s.01,0,.02,0c.77,0,1.4-.55,1.41-1.22.06-3.02.08-5.86-.31-7.3-.18-.65-.85-1.09-1.62-1.09-1.44.03-4.03.26-6.11.45-.99.09-1.93.17-2.6.22h0Z"/>
          <path class="cls-3" d="m51.61,111.91c1.66-.12,5.27-.51,6.98-.54.73-.01,1.36.42,1.54,1.05.34,1.22.31,3.65.26,5.9-.01.67-.63,1.21-1.38,1.21l-6.31-.03c-.78,0-1.42-.53-1.5-1.22l-.58-5.3c-.06-.55.39-1.04,1.01-1.08Z"/>
          <g class="cls-9">
            <path class="cls-2" d="m66.92,116.34c.23.87,1.02,1.46,1.92,1.45l73.11-1c.83-.01,1.49-.7,1.46-1.52-.02-.8-.68-1.44-1.48-1.44l-73.11.05c-1.29,0-2.23,1.23-1.89,2.47Z"/>
          </g>
          <path class="cls-2" d="m60.09,137.71s-.01,0-.02,0l-7.9-.03c-1.13,0-2.06-.78-2.18-1.8l-.73-6.63c-.04-.39.08-.77.33-1.09.29-.35.73-.57,1.21-.6h0c.67-.05,1.6-.13,2.59-.22,2.09-.19,4.69-.42,6.15-.45.01,0,.02,0,.03,0,1.04,0,1.94.62,2.19,1.54.42,1.52.4,4.4.34,7.47-.02,1-.92,1.81-2.01,1.81Zm-9.24-9.54c-.31.02-.6.16-.78.39-.15.18-.22.41-.2.63l.73,6.63c.08.71.76,1.25,1.58,1.26l7.9.03s.01,0,.02,0c.77,0,1.4-.55,1.41-1.22.06-3.02.08-5.86-.31-7.3-.18-.65-.86-1.11-1.63-1.09-1.44.03-4.03.26-6.11.45-.99.09-1.93.17-2.6.22h0Z"/>
          <path class="cls-3" d="m51.7,128.85c1.66-.12,5.27-.51,6.98-.54.73-.01,1.36.42,1.54,1.05.34,1.22.31,3.65.26,5.9-.01.67-.63,1.21-1.38,1.21l-6.31-.03c-.78,0-1.42-.53-1.5-1.22l-.58-5.3c-.06-.55.39-1.04,1.01-1.08Z"/>
          <g class="cls-9">
            <path class="cls-2" d="m67.01,133.27c.23.87,1.02,1.46,1.92,1.45l73.11-1c.83-.01,1.49-.7,1.46-1.52-.02-.8-.68-1.44-1.48-1.44l-73.11.05c-1.29,0-2.23,1.23-1.89,2.47Z"/>
          </g>
          <path class="cls-2" d="m60.18,154.64s-.01,0-.02,0l-7.9-.03c-1.13,0-2.06-.78-2.18-1.8l-.73-6.63c-.04-.39.08-.77.33-1.09.29-.35.73-.57,1.21-.6h0c.67-.05,1.6-.13,2.59-.22,2.09-.19,4.69-.42,6.15-.45.01,0,.02,0,.03,0,1.04,0,1.94.62,2.19,1.54.42,1.52.4,4.4.34,7.47-.02,1-.92,1.81-2.01,1.81Zm-9.24-9.54c-.31.02-.6.16-.78.39-.15.18-.22.41-.2.63l.73,6.63c.08.71.76,1.25,1.58,1.25l7.9.03s.01,0,.02,0c.77,0,1.4-.55,1.41-1.22.06-3.02.08-5.86-.31-7.3-.18-.65-.86-1.11-1.63-1.09-1.44.03-4.03.26-6.11.45-.99.09-1.93.17-2.6.22h0Z"/>
          <path class="cls-3" d="m51.79,145.79c1.66-.12,5.27-.51,6.98-.54.73-.01,1.36.42,1.54,1.05.34,1.22.31,3.65.26,5.9-.01.67-.63,1.21-1.38,1.21l-6.31-.03c-.78,0-1.42-.53-1.5-1.22l-.58-5.3c-.06-.55.39-1.04,1.01-1.08Z"/>
          <g class="cls-9">
            <path class="cls-2" d="m67.1,150.21c.23.87,1.02,1.46,1.92,1.45l73.11-1c.83-.01,1.49-.7,1.46-1.52-.02-.8-.68-1.44-1.48-1.44l-73.11.05c-1.29,0-2.23,1.23-1.89,2.47Z"/>
          </g>
          <path class="cls-2" d="m60.27,171.58s-.01,0-.02,0l-7.9-.03c-1.13,0-2.06-.78-2.18-1.8l-.73-6.63c-.04-.39.08-.77.33-1.09.29-.35.73-.57,1.21-.6h0c.67-.05,1.6-.13,2.59-.22,2.09-.19,4.69-.42,6.15-.45.01,0,.02,0,.03,0,1.04,0,1.94.62,2.19,1.54.42,1.52.4,4.4.34,7.47-.02,1-.92,1.81-2.01,1.81Zm-9.24-9.54c-.31.02-.6.16-.78.39-.15.18-.22.41-.2.63l.73,6.63c.08.71.76,1.25,1.58,1.25l7.9.03s.01,0,.02,0c.77,0,1.4-.55,1.41-1.22.06-3.02.08-5.86-.31-7.3-.18-.65-.86-1.11-1.63-1.09-1.44.03-4.03.26-6.11.45-.99.09-1.93.17-2.6.22h0Z"/>
          <path class="cls-3" d="m51.88,162.72c1.66-.12,5.27-.51,6.98-.54.73-.01,1.36.42,1.54,1.05.34,1.22.31,3.65.26,5.9-.01.67-.63,1.21-1.38,1.21l-6.31-.03c-.78,0-1.42-.53-1.5-1.22l-.58-5.3c-.06-.55.39-1.04,1.01-1.08Z"/>
          <g class="cls-9">
            <path class="cls-2" d="m67.19,167.14h0c.23.87,1.02,1.46,1.92,1.45l73.11-1c.83-.01,1.49-.7,1.46-1.52-.02-.8-.68-1.44-1.48-1.44l-73.11.05c-1.29,0-2.23,1.23-1.89,2.47Z"/>
          </g>
          <path class="cls-55" d="m52.22,163.76h0c.58-.35,1.34-.15,1.68.45l1.57,2.79c.16.28.57.26.7-.03l3.82-8.63c.19-.43.83-.29.83.18-.03,2.63-.7,7.64-4.88,11.85,0,0-2.32-.89-4.21-4.98-.27-.59-.06-1.29.5-1.63Z"/>
        </g>
      </g>
      <g>
        <path class="cls-33" d="m40.78,23.64c-.03-2.3,1.99-4.09,4.27-3.8,15.14,1.97,67.21,8.05,110.21,4.52,1.96-.16,3.67,1.32,3.79,3.28l9.42,161.32c.13,2.21-1.55,4.11-3.76,4.26-18.09,1.16-92.58,5.69-119.18,3.05-1.62-.16-2.85-1.52-2.87-3.14l-1.88-169.49Z"/>
        <path class="cls-42" d="m42.59,27.67c-.02-2.22,1.92-3.94,4.11-3.65,14.57,1.9,64.68,7.75,106.06,4.35,1.89-.15,3.53,1.27,3.64,3.16l9.06,155.25c.12,2.13-1.49,3.96-3.62,4.1-17.41,1.12-89.1,5.48-114.69,2.93-1.56-.15-2.75-1.46-2.76-3.02l-1.81-163.1Z"/>
        <g>
          <path class="cls-2" d="m69,124.22s-.01,0-.02,0l-7.9-.03c-1.13,0-2.06-.78-2.18-1.8l-.73-6.63c-.04-.39.08-.77.33-1.09.29-.35.73-.57,1.21-.6h0c.67-.05,1.6-.13,2.59-.22,2.09-.19,4.69-.42,6.15-.45,1.06-.01,1.97.61,2.22,1.54.42,1.52.4,4.4.34,7.47-.02,1-.92,1.81-2.01,1.81Zm-9.24-9.54c-.31.02-.6.16-.78.39-.15.18-.22.41-.2.63l.73,6.63c.08.71.76,1.25,1.58,1.26l7.9.03s.01,0,.02,0c.77,0,1.4-.55,1.41-1.22.06-3.02.08-5.86-.31-7.3-.18-.65-.85-1.09-1.62-1.09-1.44.03-4.03.26-6.11.45-.99.09-1.93.17-2.6.22h0Z"/>
          <path class="cls-3" d="m60.61,115.36c1.66-.12,5.27-.51,6.98-.54.73-.01,1.36.42,1.54,1.05.34,1.22.31,3.65.26,5.9-.01.67-.63,1.21-1.38,1.21l-6.31-.03c-.78,0-1.42-.53-1.5-1.22l-.58-5.3c-.06-.55.39-1.04,1.01-1.08Z"/>
          <g class="cls-9">
            <path class="cls-2" d="m75.92,119.78c.23.87,1.02,1.46,1.92,1.45l73.11-1c.83-.01,1.49-.7,1.46-1.52-.02-.8-.68-1.44-1.48-1.44l-73.11.05c-1.29,0-2.23,1.23-1.89,2.47Z"/>
          </g>
          <path class="cls-2" d="m69.09,143.91s-.01,0-.02,0l-7.9-.03c-1.13,0-2.06-.78-2.18-1.8l-.73-6.63c-.04-.39.08-.77.33-1.09.29-.35.73-.57,1.21-.6h0c.67-.05,1.6-.13,2.59-.22,2.09-.19,4.69-.42,6.15-.45.01,0,.02,0,.03,0,1.04,0,1.94.62,2.19,1.54.42,1.52.4,4.4.34,7.47-.02,1-.92,1.81-2.01,1.81Zm-9.24-9.54c-.31.02-.6.16-.78.39-.15.18-.22.41-.2.63l.73,6.63c.08.71.76,1.25,1.58,1.26l7.9.03s.01,0,.02,0c.77,0,1.4-.55,1.41-1.22.06-3.02.08-5.86-.31-7.3-.18-.65-.86-1.11-1.63-1.09-1.44.03-4.03.26-6.11.45-.99.09-1.93.17-2.6.22h0Z"/>
          <path class="cls-3" d="m60.7,135.05c1.66-.12,5.27-.51,6.98-.54.73-.01,1.36.42,1.54,1.05.34,1.22.31,3.65.26,5.9-.01.67-.63,1.21-1.38,1.21l-6.31-.03c-.78,0-1.42-.53-1.5-1.22l-.58-5.3c-.06-.55.39-1.04,1.01-1.08Z"/>
          <g class="cls-9">
            <path class="cls-2" d="m76.01,139.47c.23.87,1.02,1.46,1.92,1.45l73.11-1c.83-.01,1.49-.7,1.46-1.52-.02-.8-.68-1.44-1.48-1.44l-73.11.05c-1.29,0-2.23,1.23-1.89,2.47Z"/>
          </g>
          <path class="cls-2" d="m69.18,164.42s-.01,0-.02,0l-7.9-.03c-1.13,0-2.06-.78-2.18-1.8l-.73-6.63c-.04-.39.08-.77.33-1.09.29-.35.73-.57,1.21-.6h0c.67-.05,1.6-.13,2.59-.22,2.09-.19,4.69-.42,6.15-.45.01,0,.02,0,.03,0,1.04,0,1.94.62,2.19,1.54.42,1.52.4,4.4.34,7.47-.02,1-.92,1.81-2.01,1.81Zm-9.24-9.54c-.31.02-.6.16-.78.39-.15.18-.22.41-.2.63l.73,6.63c.08.71.76,1.25,1.58,1.25l7.9.03s.01,0,.02,0c.77,0,1.4-.55,1.41-1.22.06-3.02.08-5.86-.31-7.3-.18-.65-.86-1.11-1.63-1.09-1.44.03-4.03.26-6.11.45-.99.09-1.93.17-2.6.22h0Z"/>
          <path class="cls-3" d="m60.79,155.56c1.66-.12,5.27-.51,6.98-.54.73-.01,1.36.42,1.54,1.05.34,1.22.31,3.65.26,5.9-.01.67-.63,1.21-1.38,1.21l-6.31-.03c-.78,0-1.42-.53-1.5-1.22l-.58-5.3c-.06-.55.39-1.04,1.01-1.08Z"/>
          <g class="cls-9">
            <path class="cls-2" d="m76.1,159.98c.23.87,1.02,1.46,1.92,1.45l73.11-1c.83-.01,1.49-.7,1.46-1.52-.02-.8-.68-1.44-1.48-1.44l-73.11.05c-1.29,0-2.23,1.23-1.89,2.47Z"/>
          </g>
          <path class="cls-2" d="m69.82,184.93s-.01,0-.02,0l-7.9-.03c-1.13,0-2.06-.78-2.18-1.8l-.73-6.63c-.04-.39.08-.77.33-1.09.29-.35.73-.57,1.21-.6h0c.67-.05,1.6-.13,2.59-.22,2.09-.19,4.69-.42,6.15-.45.01,0,.02,0,.03,0,1.04,0,1.94.62,2.19,1.54.42,1.52.4,4.4.34,7.47-.02,1-.92,1.81-2.01,1.81Zm-9.24-9.54c-.31.02-.6.16-.78.39-.15.18-.22.41-.2.63l.73,6.63c.08.71.76,1.25,1.58,1.25l7.9.03s.01,0,.02,0c.77,0,1.4-.55,1.41-1.22.06-3.02.08-5.86-.31-7.3-.18-.65-.86-1.11-1.63-1.09-1.44.03-4.03.26-6.11.45-.99.09-1.93.17-2.6.22h0Z"/>
          <path class="cls-3" d="m61.42,176.07c1.66-.12,5.27-.51,6.98-.54.73-.01,1.36.42,1.54,1.05.34,1.22.31,3.65.26,5.9-.01.67-.63,1.21-1.38,1.21l-6.31-.03c-.78,0-1.42-.53-1.5-1.22l-.58-5.3c-.06-.55.39-1.04,1.01-1.08Z"/>
          <g class="cls-9">
            <path class="cls-2" d="m76.73,180.49h0c.23.87,1.02,1.46,1.92,1.45l73.11-1c.83-.01,1.49-.7,1.46-1.52-.02-.8-.68-1.44-1.48-1.44l-73.11.05c-1.29,0-2.23,1.23-1.89,2.47Z"/>
          </g>
          <path class="cls-12" d="m61.77,177.11h0c.58-.35,1.34-.15,1.68.45l1.57,2.79c.16.28.57.26.7-.03l3.82-8.63c.19-.43.83-.29.83.18-.03,2.63-.7,7.64-4.88,11.85,0,0-2.32-.89-4.21-4.98-.27-.59-.06-1.29.5-1.63Z"/>
          <path class="cls-7" d="m60.8,155.92h0c.58-.35,1.34-.15,1.68.45l1.57,2.79c.16.28.57.26.7-.03l3.82-8.63c.19-.43.83-.29.83.18-.03,2.63-.7,7.64-4.88,11.85,0,0-2.32-.89-4.21-4.98-.27-.59-.06-1.29.5-1.63Z"/>
          <path class="cls-24" d="m60.8,135.45h0c.58-.35,1.34-.15,1.68.45l1.57,2.79c.16.28.57.26.7-.03l3.82-8.63c.19-.43.83-.29.83.18-.03,2.63-.7,7.64-4.88,11.85,0,0-2.32-.89-4.21-4.98-.27-.59-.06-1.29.5-1.63Z"/>
          <path class="cls-5" d="m68.98,110.51c.19-.43.83-.29.83.18-.03,2.63-.7,7.64-4.88,11.85,0,0-2.32-.89-4.21-4.98-.27-.59-.06-1.29.5-1.63h0c.58-.35,1.34-.15,1.68.45l1.57,2.79c.16.28.57.26.7-.03l3.82-8.63Z"/>
        </g>
        <g>
          <path class="cls-2" d="m67.43,63.38s-.01,0-.02,0l-7.9-.03c-1.13,0-2.06-.78-2.18-1.8l-.73-6.63c-.04-.39.08-.77.33-1.09.29-.35.73-.57,1.21-.6h0c.67-.05,1.6-.13,2.59-.22,2.09-.19,4.69-.42,6.15-.45.01,0,.02,0,.03,0,1.04,0,1.94.62,2.19,1.54.42,1.52.4,4.4.34,7.47-.02,1-.92,1.81-2.01,1.81Zm-9.24-9.54c-.31.02-.6.16-.78.39-.15.18-.22.41-.2.63l.73,6.63c.08.71.76,1.25,1.58,1.26l7.9.03s.01,0,.02,0c.77,0,1.4-.55,1.41-1.22.06-3.02.08-5.86-.31-7.3-.18-.65-.86-1.11-1.63-1.09-1.44.03-4.03.26-6.11.45-.99.09-1.93.17-2.6.22h0Z"/>
          <path class="cls-3" d="m59.03,54.52c1.66-.12,5.27-.51,6.98-.54.73-.01,1.36.42,1.54,1.05.34,1.22.31,3.65.26,5.9-.01.67-.63,1.21-1.38,1.21l-6.31-.03c-.78,0-1.42-.53-1.5-1.22l-.58-5.3c-.06-.55.39-1.04,1.01-1.08Z"/>
          <g class="cls-9">
            <path class="cls-2" d="m74.34,58.94c.23.87,1.02,1.46,1.92,1.45l73.11-1c.83-.01,1.49-.7,1.46-1.52-.02-.8-.68-1.44-1.48-1.44l-73.11.05c-1.29,0-2.23,1.23-1.89,2.47Z"/>
          </g>
          <g class="cls-9">
            <path class="cls-2" d="m63.66,41.29c.21,1.32.99,2.25,1.89,2.25l73.12-.05c.83,0,1.5-1.03,1.5-2.29,0-1.22-.65-2.21-1.45-2.23l-73.1-1.4c-1.29-.02-2.26,1.82-1.95,3.72Z"/>
          </g>
          <path class="cls-2" d="m67.51,83.89s-.01,0-.02,0l-7.9-.03c-1.13,0-2.06-.78-2.18-1.8l-.73-6.63c-.04-.39.08-.77.33-1.09.29-.35.73-.57,1.21-.6h0c.67-.05,1.6-.13,2.59-.22,2.09-.19,4.69-.42,6.15-.45.01,0,.02,0,.03,0,1.04,0,1.94.62,2.19,1.54.42,1.52.4,4.4.34,7.47-.02,1-.92,1.81-2.01,1.81Zm-9.24-9.54c-.31.02-.6.16-.78.39-.15.18-.22.41-.2.63l.73,6.63c.08.71.76,1.25,1.58,1.25l7.9.03s.01,0,.02,0c.77,0,1.4-.55,1.41-1.22.06-3.02.08-5.86-.31-7.3-.18-.65-.86-1.11-1.63-1.09-1.44.03-4.03.26-6.11.45-.99.09-1.93.17-2.6.22h0Z"/>
          <path class="cls-3" d="m59.12,75.03c1.66-.12,5.27-.51,6.98-.54.73-.01,1.36.42,1.54,1.05.34,1.22.31,3.65.26,5.9-.01.67-.63,1.21-1.38,1.21l-6.31-.03c-.78,0-1.42-.53-1.5-1.22l-.58-5.3c-.06-.55.39-1.04,1.01-1.08Z"/>
          <g class="cls-9">
            <path class="cls-2" d="m74.43,79.45c.23.87,1.02,1.46,1.92,1.45l73.11-1c.83-.01,1.49-.7,1.46-1.52-.02-.8-.68-1.44-1.48-1.44l-73.11.05c-1.29,0-2.23,1.23-1.89,2.47Z"/>
          </g>
          <path class="cls-2" d="m68.15,104.4s-.01,0-.02,0l-7.9-.03c-1.13,0-2.06-.78-2.18-1.8l-.73-6.63c-.04-.39.08-.77.33-1.09.29-.35.73-.57,1.21-.6h0c.67-.05,1.6-.13,2.59-.22,2.09-.19,4.69-.42,6.15-.45.01,0,.02,0,.03,0,1.04,0,1.94.62,2.19,1.54.42,1.52.4,4.4.34,7.47-.02,1-.92,1.81-2.01,1.81Zm-9.24-9.54c-.31.02-.6.16-.78.39-.15.18-.22.41-.2.63l.73,6.63c.08.71.76,1.25,1.58,1.25l7.9.03s.01,0,.02,0c.77,0,1.4-.55,1.41-1.22.06-3.02.08-5.86-.31-7.3-.18-.65-.86-1.11-1.63-1.09-1.44.03-4.03.26-6.11.45-.99.09-1.93.17-2.6.22h0Z"/>
          <path class="cls-3" d="m59.76,95.55c1.66-.12,5.27-.51,6.98-.54.73-.01,1.36.42,1.54,1.05.34,1.22.31,3.65.26,5.9-.01.67-.63,1.21-1.38,1.21l-6.31-.03c-.78,0-1.42-.53-1.5-1.22l-.58-5.3c-.06-.55.39-1.04,1.01-1.08Z"/>
          <g class="cls-9">
            <path class="cls-2" d="m75.07,99.97h0c.23.87,1.02,1.46,1.92,1.45l73.11-1c.83-.01,1.49-.7,1.46-1.52-.02-.8-.68-1.44-1.48-1.44l-73.11.05c-1.29,0-2.23,1.23-1.89,2.47Z"/>
          </g>
        </g>
      </g>
      <path class="cls-8" d="m180.23,129.06c.11.31,4.66-8.69,4.66-8.69l-10.18-6.48,4.89-11.9-12.03-6.92,15.23,6.71-4.47,10.6s13.04,7.87,12.87,7.98-10.97,8.69-10.97,8.69Z"/>
      <path class="cls-48" d="m196.91,0c-.42.28-8.83,15.05-8.83,15.05l-8.59-7.83s-14.07,16.01-13.86,15.17c.21-.83,12.34-20.59,12.34-20.59l9.99,10.7,8.95-12.5Z"/>
      <path class="cls-14" d="m80.38.14c.23.46,13.94,10.99,13.94,10.99l-9.08,7.57s14.18,16.39,13.37,16.07-19.03-15.29-19.03-15.29l12.17-8.58L80.38.14Z"/>
      <path class="cls-28" d="m54.22,81.76c.92.52,16.82-.98,16.82-.98l-1.87-11.1s19.02-2.48,18.88-2.22c-.13.27-23.19-1.32-23.19-1.32l3,11.91-13.64,3.7Z"/>
      <g>
        <g>
          <g>
            <path class="cls-37" d="m155.12,198.27c1.67.14,4.58.38,6.87.48,1.38.06,2.17-.07,2.63-.26,0,.05,0,.1,0,.15-.01.24-.21.43-.45.45-4.33.24-7.77.08-9,0-.25-.02-.4-.29-.27-.51.06-.11.14-.21.23-.32Z"/>
            <path class="cls-47" d="m161.99,198.75c-2.29-.1-5.2-.34-6.87-.48,1.65-2.02,6.87-3.38,6.87-3.38h1.48c1.02,1.46,1.16,2.86,1.15,3.61-.46.18-1.25.32-2.63.26Z"/>
            <path class="cls-35" d="m163.71,192.48l-.14,2.73c-.01.3-.24.54-.53.59-.29.04-.69.05-1.11-.09-.26-.09-.45-.3-.5-.57l-.48-2.66h2.75Z"/>
          </g>
          <g>
            <g>
              <path class="cls-29" d="m182.89,198.73c.73-.1,1.05-.48,1.19-.88,0,0,0,0,0,.01.11.43-.14.87-.64,1.08-.6.25-1.25.3-1.76.28-.55-.02-1.05-.25-1.32-.61h0c.55.27,1.32.3,2.53.13Z"/>
              <path class="cls-56" d="m179.46,192.46h1.22c1.85-.04,3.02,3.87,3.4,5.39-.14.4-.47.78-1.19.88-1.21.17-1.98.14-2.53-.13-1-1.32-1.5-3.25-1.74-4.38-.27-1.28.84-1.76.84-1.76Z"/>
            </g>
            <path class="cls-41" d="m180.52,189.92l.68,2.69c.08.33-.07.67-.38.83-.38.19-.91.4-1.4.34-.23-.03-.42-.19-.5-.41l-.99-2.83,2.59-.62Z"/>
          </g>
          <path class="cls-11" d="m181.33,190.7c-.84.75-3.58.84-3.58.84-9.85-23.65-13.88-27.01-13.88-27.01,1.42,8.93.23,28.69.23,28.69-1.63.72-3.72,0-3.72,0-.13-14.61-2.38-27.36-5.03-37.41,6.66-.15,10.2-2.43,11.36-3.34,5.55,8.95,14.63,38.23,14.63,38.23Z"/>
          <path class="cls-45" d="m165.01,125.28c1.26,6.29.81,17.54.51,22.67-.08,1.44.92,3.44,1.74,4.81.13.21.05.49-.17.6-1.36.7-5.98,2.87-11.33,3.14-.36.02-.68-.23-.77-.57-3.97-14.82-8.58-24.29-8.58-24.29,5.09-8.13,18.6-6.36,18.6-6.36Z"/>
          <path class="cls-46" d="m163.2,163.97c.06,0,.11-.02.16-.05.15-.09.2-.28.11-.43-.05-.09-1.33-2.15-3.91-3.39-.16-.08-.35-.01-.42.15-.08.16,0,.35.15.42,2.4,1.16,3.63,3.13,3.64,3.15.06.1.16.15.27.15Z"/>
          <g>
            <path class="cls-25" d="m172.92,143.32c-.4,2.93-1.6,6.12-3.99,9.52l-.91-.74s1.05-4.26.45-9.1c1.48-.29,3.22,0,4.45.32Z"/>
            <path class="cls-18" d="m163.6,133.03l1.41-7.76s9.41,7.19,7.91,18.05c-1.23-.31-2.97-.61-4.45-.32-.43-3.48-1.71-7.26-4.86-9.97Z"/>
          </g>
          <g>
            <path class="cls-43" d="m146.41,131.64l3.63,7.82c-.59,4.72-3.12,6.76-5.86,7.55-.17-2.15-.71-3.89-1.22-5.09,3.49-3.61,3.45-10.27,3.45-10.27Z"/>
            <path class="cls-32" d="m142.96,141.91c.5,1.2,1.05,2.94,1.22,5.09-7.3,2.83-9.23-2.66-9.23-2.66l1.35-.24c3.05.32,5.17-.66,6.66-2.2Z"/>
          </g>
          <path class="cls-16" d="m149.75,121.98l1.75,6.44c.2.72.98,1.11,1.68.83.75-.3,1.71-.71,2.53-1.15.88-.47,1.15-1.6.6-2.43l-3.64-5.43-2.91,1.74Z"/>
        </g>
        <g>
          <path class="cls-13" d="m145.92,117.09c-.02.11,1.46,7.35,1.46,7.35l4.12-.93-.38-7.07s-4.93-1.2-5.2.65Z"/>
          <path class="cls-23" d="m150.19,118.01l.49,3.71s0,.09,0,.14c-.04.29-.26,1.28-1.26,1-.91-.26-1.74-.48-2.31-.3-.26.08-.41.34-.36.6.13.66.46,2.14.95,3.38.1.25.37.38.63.31.78-.23,2.41-.75,3.63-1.49.16-.1.26-.28.25-.47-.04-.94-.15-3.78-.06-4.58.09-.75,1.01-1.2,1.4-1.36.13-.05.23-.16.29-.29.18-.46.44-1.54-.91-1.97-.28-.09-.43-.4-.33-.68.2-.56.28-1.41-.76-1.88-1.06-.48-1.86.09-2.28.55-.17.19-.45.21-.67.08-.12-.08-.28-.1-.47.02-.26.16-.6.05-.73-.22-.25-.52-.77-1.08-1.81-.9-1.85.32-2.05,2.36-1.57,3.56.49,1.2,2.47.74,3.46.14.76-.46,1.74.02,2.16.28.14.08.22.22.25.38Z"/>
          <path class="cls-44" d="m152.33,121.66s-.76-2.12.02-2.64c.78-.52,1.93-.25,1.68,1.29-.32,1.91-1.7,1.36-1.7,1.36Z"/>
        </g>
        <path class="cls-20" d="m135.49,145.35c-.37.29-1.63-.31-2.4-.73-.38-.2-.56-.64-.43-1.05.19-.58.49-1.34.87-1.43.63-.16,3.46,2.02,1.95,3.21Z"/>
        <g>
          <g>
            <path class="cls-10" d="m197.45,163.09l-96.08-34.17-5.08,14.12,96.05,35.13c2.04.75,4.32-.08,5.41-1.96,1.12-1.93,2.2-4.94,2.26-9.45.02-1.64-1.01-3.11-2.55-3.66Z"/>
            <g>
              <path class="cls-27" d="m71.64,125.27l13.27,1.63c-.01,1.83-.61,4.19-2.64,6.9l-11.08-7.31c-.59-.39-.25-1.3.45-1.22Z"/>
              <path class="cls-38" d="m101.37,128.92c.61,8.85-5.08,14.12-5.08,14.12l-14.01-9.24c2.02-2.71,2.62-5.07,2.64-6.9l16.45,2.02Z"/>
            </g>
          </g>
          <path class="cls-6" d="m196.25,167.42c.12,0,.23-.07.27-.19.05-.15-.03-.31-.17-.36l-91.92-32.49c-.15-.05-.31.03-.36.17-.05.15.03.31.17.36l91.92,32.49s.06.02.09.02Z"/>
          <path class="cls-51" d="m194.67,172.96c.12,0,.23-.07.27-.19.05-.15-.03-.31-.17-.36l-91.92-32.49c-.15-.05-.31.02-.36.17-.05.15.03.31.17.36l91.92,32.49s.06.02.09.02Z"/>
        </g>
        <path class="cls-31" d="m168.39,151.97l-4.25-.35-1.84,1.7s.44.6,1.8.26c1.36-.35,3.22-.43,3.22-.43,0,0,1.88.85,1.9-.74l-.83-.44Z"/>
      </g>
      <g>
        <path class="cls-53" d="m92.41,58.23c0,24.07,20.25,43.58,45.23,43.58s46.35-20.36,46.35-44.43-21.37-42.73-46.35-42.73-45.23,19.51-45.23,43.58Z"/>
        <g>
          <path class="cls-42" d="m180.43,47.63s.05,0,.08,0c.17-.04.27-.21.22-.37-.49-1.76-1.11-3.51-1.85-5.19-.07-.15-.25-.22-.41-.16-.16.07-.23.24-.17.39.73,1.66,1.34,3.38,1.82,5.11.04.13.16.22.3.22Z"/>
          <path class="cls-42" d="m173.52,34.01c.07,0,.13-.02.19-.06.14-.1.17-.29.06-.42-8.38-10.71-21.88-17.1-36.11-17.1-6.08,0-11.95,1.19-17.47,3.53-.16.07-.23.25-.16.4.07.15.25.22.41.15,5.44-2.31,11.23-3.48,17.22-3.48,14.03,0,27.35,6.3,35.61,16.86.06.08.15.12.25.12Z"/>
        </g>
        <path class="cls-26" d="m98.56,58.23c0,20.83,17.53,37.72,39.15,37.72s40.12-17.63,40.12-38.46-18.5-36.99-40.12-36.99-39.15,16.89-39.15,37.72Z"/>
        <path class="cls-4" d="m167.82,56.27c.1,1.6,1.52,2.82,3.18,2.73,1.66-.09,2.93-1.47,2.83-3.07-.1-1.6-1.52-2.82-3.18-2.73-1.66.09-2.93,1.47-2.83,3.07Z"/>
        <path class="cls-4" d="m102.7,59.92c.1,1.6,1.52,2.82,3.18,2.73,1.66-.09,2.93-1.47,2.83-3.07-.1-1.6-1.52-2.82-3.18-2.73-1.66.09-2.93,1.47-2.83,3.07Z"/>
        <path class="cls-4" d="m143.59,85.99c-1.64.29-2.72,1.8-2.42,3.38s1.87,2.62,3.51,2.34c1.64-.29,2.72-1.8,2.42-3.38-.3-1.58-1.87-2.62-3.51-2.34Z"/>
        <path class="cls-4" d="m131.87,24.16c-1.64.29-2.72,1.8-2.42,3.38.3,1.58,1.87,2.62,3.51,2.34,1.64-.29,2.72-1.8,2.42-3.38-.3-1.58-1.87-2.62-3.51-2.34Z"/>
        <path class="cls-4" d="m122.16,87.65c-.31.74-.23,1.44.17,1.56.4.12.97-.39,1.28-1.14.31-.74.23-1.44-.17-1.56-.4-.12-.97.39-1.28,1.14Z"/>
        <path class="cls-4" d="m148.36,29c-.31.74-.23,1.44.17,1.56.4.12.97-.39,1.28-1.14.31-.74.23-1.44-.17-1.56-.4-.12-.97.39-1.28,1.14Z"/>
        <path class="cls-4" d="m108.48,76.5c-.66.48-.97,1.12-.69,1.42.28.3,1.04.15,1.71-.33.66-.48.97-1.12.69-1.42-.28-.3-1.04-.15-1.71.33Z"/>
        <path class="cls-4" d="m162.47,39.48c-.66.48-.97,1.12-.69,1.42.28.3,1.04.15,1.71-.33.66-.48.97-1.12.69-1.42-.28-.3-1.04-.15-1.71.33Z"/>
        <path class="cls-4" d="m106.77,43.29c-.75-.34-1.48-.32-1.62.06-.15.38.34.96,1.09,1.31.75.34,1.48.32,1.62-.06.15-.38-.34-.96-1.09-1.31Z"/>
        <path class="cls-4" d="m165.74,72.41c-.75-.34-1.48-.32-1.62.06-.15.38.34.96,1.09,1.31.75.34,1.48.32,1.62-.06.15-.38-.34-.96-1.09-1.31Z"/>
        <path class="cls-4" d="m119.23,30.89c-.46-.67-1.09-1.01-1.42-.76-.33.25-.23.99.23,1.66.46.67,1.09,1.01,1.42.76.33-.25.23-.99-.23-1.66Z"/>
        <path class="cls-4" d="m153.94,85.27c-.46-.67-1.09-1.01-1.42-.76-.33.25-.23.99.23,1.66.46.67,1.09,1.01,1.42.76.33-.25.23-.99-.23-1.66Z"/>
        <path class="cls-52" d="m137.83,57.52l26.44,4.77c.51.09.95-.38.8-.86l-.89-2.87c-.17-.56.43-1.06.97-.81l20.83,9.66c.64.3.44,1.23-.27,1.27l-22.97,1.53c-.55.04-.91-.53-.63-1l1.88-3.12c.23-.39.02-.87-.42-.98l-26.05-6.29c-.36-.09-.58-.44-.49-.8h0c.09-.35.45-.58.81-.51Z"/>
        <path class="cls-2" d="m183.33,68.07c.22-.06.38-.23.43-.45.05-.27-.08-.52-.34-.63l-4.51-1.92c-.16-.07-.34,0-.41.16-.07.15,0,.33.15.4l4.51,1.92c-5.22.28-17.41,1.04-17.66,1.08-.17.03-.29.19-.26.35.03.16.18.27.35.24.36-.04,9.7-.63,17.61-1.12.05,0,.09-.01.13-.02Z"/>
        <path class="cls-17" d="m136.4,55.91l.05-22.81c0-.51-.57-.82-1.03-.57l-2.72,1.46c-.53.28-1.16-.18-1.01-.74l5.63-21.81c.17-.67,1.15-.68,1.34-.02l6.1,21.43c.15.51-.36.98-.88.81l-3.53-1.1c-.44-.14-.89.16-.91.61l-1.65,22.77c-.02.36-.33.65-.71.64h0c-.37,0-.67-.3-.68-.66Z"/>
        <path class="cls-2" d="m142.89,30.75s.08,0,.11-.02c.16-.06.24-.23.18-.38-.11-.33-2.56-9.05-4.62-16.43-.07-.26-.3-.43-.59-.43-.28,0-.51.19-.57.45l-1.05,4.68c-.04.16.07.32.24.36.17.04.33-.07.37-.23l1.05-4.68c1.31,4.88,4.5,16.27,4.59,16.49.05.12.17.19.29.19Z"/>
        <ellipse class="cls-22" cx="137.91" cy="57.14" rx="3.22" ry="3.1"/>
      </g>
    </g>
  </g>
</svg>