<?xml version="1.0" encoding="UTF-8"?>
<svg id="Layer_2" data-name="Layer 2" xmlns="http://www.w3.org/2000/svg" xmlns:xlink="http://www.w3.org/1999/xlink" viewBox="0 0 200 200.91">
  <defs>
    <style>
      .cls-1 {
        fill: url(#linear-gradient-2);
      }

      .cls-2 {
        fill: url(#linear-gradient-17);
      }

      .cls-3 {
        fill: url(#linear-gradient-43);
      }

      .cls-4 {
        fill: url(#linear-gradient-15);
      }

      .cls-5 {
        fill: url(#linear-gradient-18);
      }

      .cls-6 {
        fill: url(#linear-gradient-40);
      }

      .cls-7 {
        fill: url(#linear-gradient-28);
      }

      .cls-8 {
        fill: url(#linear-gradient-14);
      }

      .cls-9 {
        fill: url(#linear-gradient-36);
      }

      .cls-10 {
        fill: url(#linear-gradient-20);
      }

      .cls-11 {
        fill: url(#linear-gradient-6);
      }

      .cls-12 {
        fill: url(#linear-gradient-35);
      }

      .cls-13 {
        fill: url(#linear-gradient-32);
      }

      .cls-14 {
        fill: url(#linear-gradient-11);
      }

      .cls-15 {
        fill: url(#linear-gradient-39);
      }

      .cls-16 {
        fill: url(#linear-gradient-10);
      }

      .cls-17 {
        fill: #0fa55c;
      }

      .cls-18 {
        fill: url(#linear-gradient-37);
      }

      .cls-19 {
        fill: url(#linear-gradient-16);
      }

      .cls-20 {
        opacity: .3;
      }

      .cls-21 {
        fill: url(#linear-gradient-31);
      }

      .cls-22 {
        opacity: .43;
      }

      .cls-22, .cls-23, .cls-24, .cls-25 {
        fill: #fff;
      }

      .cls-26 {
        fill: url(#linear-gradient-41);
      }

      .cls-23 {
        opacity: .71;
      }

      .cls-27 {
        fill: url(#linear-gradient-21);
      }

      .cls-28 {
        fill: url(#linear-gradient-25);
      }

      .cls-29 {
        fill: url(#linear-gradient-5);
      }

      .cls-30 {
        fill: #e5fef2;
      }

      .cls-31 {
        fill: url(#linear-gradient-45);
      }

      .cls-32 {
        fill: #6aa789;
      }

      .cls-33 {
        fill: url(#linear-gradient-34);
      }

      .cls-34 {
        fill: #0a6f3d;
      }

      .cls-35 {
        fill: url(#linear-gradient-7);
      }

      .cls-36 {
        fill: url(#linear-gradient-24);
      }

      .cls-37 {
        fill: url(#linear-gradient-9);
      }

      .cls-38 {
        fill: url(#linear-gradient-22);
      }

      .cls-39 {
        fill: url(#linear-gradient-42);
      }

      .cls-40 {
        fill: url(#linear-gradient-3);
      }

      .cls-41 {
        fill: url(#linear-gradient);
      }

      .cls-24 {
        opacity: .69;
      }

      .cls-42 {
        fill: url(#linear-gradient-27);
      }

      .cls-43 {
        fill: url(#linear-gradient-33);
      }

      .cls-44 {
        fill: url(#linear-gradient-38);
      }

      .cls-45 {
        fill: url(#linear-gradient-29);
      }

      .cls-46 {
        fill: url(#linear-gradient-30);
      }

      .cls-47 {
        fill: url(#linear-gradient-23);
      }

      .cls-48 {
        fill: url(#linear-gradient-19);
      }

      .cls-49 {
        fill: url(#linear-gradient-4);
      }

      .cls-50 {
        fill: url(#linear-gradient-8);
      }

      .cls-51 {
        fill: url(#linear-gradient-44);
      }

      .cls-25 {
        opacity: .65;
      }

      .cls-52 {
        fill: url(#linear-gradient-46);
      }

      .cls-53 {
        fill: url(#linear-gradient-12);
      }

      .cls-54 {
        fill: url(#linear-gradient-13);
      }

      .cls-55 {
        fill: url(#linear-gradient-26);
      }
    </style>
    <linearGradient id="linear-gradient" x1="218.22" y1="231.18" x2="77.24" y2="81.1" gradientUnits="userSpaceOnUse">
      <stop offset="0" stop-color="#e1fef0"/>
      <stop offset="1" stop-color="#edfff6"/>
    </linearGradient>
    <linearGradient id="linear-gradient-2" x1="22.81" y1="120.18" x2="60.48" y2="120.18" gradientUnits="userSpaceOnUse">
      <stop offset="0" stop-color="#206443"/>
      <stop offset="1" stop-color="#07532e"/>
    </linearGradient>
    <linearGradient id="linear-gradient-3" x1="29.26" y1="23.57" x2="65.12" y2="23.57" xlink:href="#linear-gradient-2"/>
    <linearGradient id="linear-gradient-4" x1="6.73" y1="37.6" x2="30.73" y2="37.6" xlink:href="#linear-gradient-2"/>
    <linearGradient id="linear-gradient-5" x1="89.12" y1="62.54" x2="187.49" y2="62.54" gradientUnits="userSpaceOnUse">
      <stop offset="0" stop-color="#a9cdbb"/>
      <stop offset="1" stop-color="#cce1d6"/>
    </linearGradient>
    <linearGradient id="linear-gradient-6" x1="107.8" y1="62.54" x2="168.8" y2="62.54" xlink:href="#linear-gradient-5"/>
    <linearGradient id="linear-gradient-7" x1="220.39" y1="-46.44" x2="112.63" y2="96.62" gradientTransform="translate(167.39 -86.43) rotate(76.72)" gradientUnits="userSpaceOnUse">
      <stop offset="0" stop-color="#5d6e65"/>
      <stop offset="1" stop-color="#4b5e55"/>
    </linearGradient>
    <linearGradient id="linear-gradient-8" x1="125.67" y1="62.54" x2="150.93" y2="62.54" xlink:href="#linear-gradient-5"/>
    <linearGradient id="linear-gradient-9" x1="-4364.62" y1="4516.29" x2="-4378.93" y2="4574.42" gradientTransform="translate(4546.81 -4537.84)" gradientUnits="userSpaceOnUse">
      <stop offset="0" stop-color="#021c0f"/>
      <stop offset="1" stop-color="#162e22"/>
    </linearGradient>
    <linearGradient id="linear-gradient-10" x1="150.38" y1="236.99" x2="143.98" y2="101.1" gradientUnits="userSpaceOnUse">
      <stop offset="0" stop-color="#ff928e"/>
      <stop offset="1" stop-color="#f79e6d"/>
    </linearGradient>
    <linearGradient id="linear-gradient-11" x1="180.14" y1="15.18" x2="200" y2="15.18" xlink:href="#linear-gradient-2"/>
    <linearGradient id="linear-gradient-12" x1="178.8" y1="10.67" x2="192.29" y2="10.67" xlink:href="#linear-gradient-2"/>
    <linearGradient id="linear-gradient-13" x1="138.43" y1="3.58" x2="125.92" y2="48.15" xlink:href="#linear-gradient-10"/>
    <linearGradient id="linear-gradient-14" x1="113.9" y1="18.42" x2="110.78" y2="61.03" xlink:href="#linear-gradient-10"/>
    <linearGradient id="linear-gradient-15" x1="131.96" y1="195.68" x2="198.12" y2="68.79" xlink:href="#linear-gradient-10"/>
    <linearGradient id="linear-gradient-16" x1="141.85" y1="204.46" x2="99.91" y2="133.61" xlink:href="#linear-gradient-10"/>
    <linearGradient id="linear-gradient-17" x1="105.13" y1="121.51" x2="48.74" y2="195.98" xlink:href="#linear-gradient-10"/>
    <linearGradient id="linear-gradient-18" x1="64.19" y1="200.39" x2="-16.79" y2="130.98" xlink:href="#linear-gradient-10"/>
    <linearGradient id="linear-gradient-19" x1="72.31" y1="85.43" x2="36.52" y2="111.46" gradientTransform="matrix(1,0,0,1,0,0)" xlink:href="#linear-gradient-7"/>
    <linearGradient id="linear-gradient-20" x1="92.5" y1="83.77" x2="54.68" y2="102.09" gradientUnits="userSpaceOnUse">
      <stop offset="0" stop-color="#ffbab8"/>
      <stop offset="1" stop-color="#ff928e"/>
    </linearGradient>
    <linearGradient id="linear-gradient-21" x1="92.69" y1="84.14" x2="54.86" y2="102.46" xlink:href="#linear-gradient-20"/>
    <linearGradient id="linear-gradient-22" x1="15.2" y1="143.66" x2="21.12" y2="143.66" gradientTransform="matrix(1,0,0,1,0,0)" xlink:href="#linear-gradient-7"/>
    <linearGradient id="linear-gradient-23" x1="15.79" y1="143.28" x2="22.09" y2="143.28" gradientTransform="matrix(1,0,0,1,0,0)" xlink:href="#linear-gradient-9"/>
    <linearGradient id="linear-gradient-24" x1="18.93" y1="136.91" x2="23.57" y2="136.91" xlink:href="#linear-gradient-20"/>
    <linearGradient id="linear-gradient-25" x1="-387.59" y1="-689.45" x2="-378.71" y2="-689.45" gradientTransform="translate(285.45 887.83) rotate(14.82)" xlink:href="#linear-gradient-7"/>
    <linearGradient id="linear-gradient-26" x1="-389.8" y1="-689.53" x2="-379.1" y2="-689.53" gradientTransform="translate(285.45 887.83) rotate(14.82)" xlink:href="#linear-gradient-9"/>
    <linearGradient id="linear-gradient-27" x1="81.56" y1="122" x2="86.65" y2="122" xlink:href="#linear-gradient-20"/>
    <linearGradient id="linear-gradient-28" x1="52.02" y1="105.36" x2="19.73" y2="133.56" gradientTransform="matrix(1,0,0,1,0,0)" xlink:href="#linear-gradient-9"/>
    <linearGradient id="linear-gradient-29" x1="120.92" y1="71.13" x2="56.33" y2="116.21" gradientTransform="matrix(1,0,0,1,0,0)" xlink:href="#linear-gradient-9"/>
    <linearGradient id="linear-gradient-30" x1="66.55" y1="77.51" x2="30.76" y2="103.54" gradientTransform="matrix(1,0,0,1,0,0)" xlink:href="#linear-gradient-7"/>
    <linearGradient id="linear-gradient-31" x1="45.57" y1="96.13" x2="23.06" y2="56.35" xlink:href="#linear-gradient-20"/>
    <linearGradient id="linear-gradient-32" x1="62.56" y1="42.96" x2="46.65" y2="97.91" gradientUnits="userSpaceOnUse">
      <stop offset="0" stop-color="#0fa65c"/>
      <stop offset="1" stop-color="#495c52"/>
    </linearGradient>
    <linearGradient id="linear-gradient-33" x1="59.8" y1="79.11" x2="62.15" y2="72.39" xlink:href="#linear-gradient-20"/>
    <linearGradient id="linear-gradient-34" x1="66.51" y1="65.26" x2="56.17" y2="73.17" xlink:href="#linear-gradient-20"/>
    <linearGradient id="linear-gradient-35" x1="59.23" y1="59" x2="68.86" y2="71.39" gradientTransform="matrix(1,0,0,1,0,0)" xlink:href="#linear-gradient-9"/>
    <linearGradient id="linear-gradient-36" x1="65.22" y1="63.58" x2="54.89" y2="71.49" xlink:href="#linear-gradient-20"/>
    <linearGradient id="linear-gradient-37" x1="56.6" y1="124.92" x2="84.45" y2="86.77" xlink:href="#linear-gradient-10"/>
    <linearGradient id="linear-gradient-38" x1="91.47" y1="74.99" x2="91.47" y2="48" xlink:href="#linear-gradient-10"/>
    <linearGradient id="linear-gradient-39" x1="92.22" y1="79.34" x2="91.18" y2="96.36" xlink:href="#linear-gradient-10"/>
    <linearGradient id="linear-gradient-40" x1="112.65" y1="65.55" x2="91.23" y2="88.94" xlink:href="#linear-gradient-10"/>
    <linearGradient id="linear-gradient-41" x1="92.18" y1="49.4" x2="89.29" y2="23.85" xlink:href="#linear-gradient-10"/>
    <linearGradient id="linear-gradient-42" x1="88.93" y1="83.66" x2="112.31" y2="61.72" xlink:href="#linear-gradient-10"/>
    <linearGradient id="linear-gradient-43" x1="93.1" y1="82.33" x2="74.3" y2="64.74" xlink:href="#linear-gradient-10"/>
    <linearGradient id="linear-gradient-44" x1="95.84" y1="82.78" x2="86.57" y2="87.27" xlink:href="#linear-gradient-20"/>
    <linearGradient id="linear-gradient-45" x1="143.4" y1="183.31" x2="185.97" y2="183.31" xlink:href="#linear-gradient-5"/>
    <linearGradient id="linear-gradient-46" x1="142.22" y1="159.47" x2="168.27" y2="159.47" xlink:href="#linear-gradient-2"/>
  </defs>
  <g id="Layer_1-2" data-name="Layer 1">
    <g>
      <path class="cls-41" d="m175.89,170.97c-5.2,5.36-9.86,8.52-13.43,10.9-34.77,23.22-74.52,16.53-86.81,14.24-19.83-3.69-36.56-6.29-50.94-19.29C-7.97,147.3-6.38,85.72,18.59,47.57,21.55,43.05,46.48,6.09,86.32.88c.97-.13,1.7-.2,2.34-.27,6.16-.65,44.35-4.1,75.49,21.99,4.46,3.73,11.63,10.47,18.28,20.74,24.32,37.56,24.4,95.74-6.53,127.62Z"/>
      <g>
        <g>
          <path class="cls-32" d="m12.98,67.5c.29-.95,1.66-.89,1.86.09,1.86,9.45,7.53,34.06,18.16,47.73,17.3,22.25,27.25,56.94,13.74,73.45,0,0-64.88-17.3-33.76-121.26Z"/>
          <path class="cls-22" d="m13.77,80.83c0,.3.02.55.04.83l.06.8.13,1.59c.1,1.06.21,2.12.32,3.18.23,2.12.49,4.23.77,6.34.56,4.22,1.24,8.43,1.99,12.62.74,4.2,1.59,8.37,2.53,12.53.95,4.15,1.95,8.3,3.09,12.4,2.26,8.22,4.98,16.32,8.25,24.2,1.68,3.92,3.46,7.8,5.46,11.57,2.03,3.75,4.22,7.42,6.67,10.91.05.08.16.09.23.04.07-.05.09-.15.04-.23h0c-2.3-3.57-4.41-7.26-6.33-11.04-1.93-3.78-3.64-7.67-5.25-11.59-1.6-3.93-3.05-7.92-4.4-11.94-1.35-4.02-2.54-8.1-3.7-12.18-2.29-8.18-4.15-16.47-5.77-24.81-.8-4.17-1.52-8.36-2.17-12.56-.33-2.1-.63-4.2-.91-6.31l-.4-3.16-.18-1.58-.08-.79c-.02-.26-.05-.54-.06-.77v-.04c0-.09-.08-.16-.18-.16-.09,0-.16.08-.16.17Z"/>
        </g>
        <g>
          <path class="cls-1" d="m48.66,60.19c.52-.8,1.77-.36,1.68.59-.87,9.17-2.39,33.29,3.63,48.72,9.8,25.12,9.45,59.65-7.43,71.1,0,0-54.78-33.57,2.12-120.41Z"/>
          <path class="cls-32" d="m45.74,72.63c-.08.28-.13.52-.19.77l-.16.75-.31,1.5c-.2,1-.39,2-.57,3-.36,2-.7,4.01-1.02,6.03-.63,4.03-1.16,8.07-1.62,12.12-.47,4.05-.83,8.11-1.1,12.18-.27,4.07-.48,8.14-.55,12.22-.17,8.15.11,16.32.97,24.44.47,4.05,1.05,8.1,1.86,12.1.84,3.99,1.85,7.95,3.14,11.82.03.09.12.13.21.1.08-.03.13-.12.11-.2h0c-1.14-3.9-2.06-7.86-2.79-11.85-.74-3.99-1.25-8.02-1.65-12.06-.4-4.04-.64-8.09-.78-12.15-.14-4.06-.12-8.12-.07-12.18.13-8.12.69-16.24,1.48-24.33.4-4.05.88-8.08,1.44-12.11.27-2.01.57-4.03.88-6.03l.5-3.01.26-1.5.14-.75c.05-.24.1-.51.15-.72v-.04c.03-.09-.02-.17-.11-.2-.08-.02-.17.03-.19.11Z"/>
        </g>
      </g>
      <g>
        <g>
          <g class="cls-20">
            <path class="cls-34" d="m24.14,26.78c-.3,0-.56-.23-.59-.53-.07-.67-.11-1.35-.12-2.02,0-.33.25-.6.58-.61h.01c.32,0,.59.26.59.58.01.64.05,1.29.12,1.92.03.33-.2.62-.53.65-.02,0-.04,0-.06,0Zm.04-5.18s-.05,0-.07,0c-.33-.04-.56-.33-.52-.66.08-.67.19-1.34.32-2,.07-.32.38-.53.7-.46.32.07.53.38.46.7-.13.63-.23,1.26-.31,1.9-.04.3-.29.52-.59.52Zm1.18-5.04c-.07,0-.13-.01-.2-.03-.31-.11-.47-.45-.36-.76.23-.63.48-1.27.76-1.88.14-.3.49-.43.79-.29.3.14.43.49.29.79-.27.58-.51,1.18-.72,1.78-.09.24-.32.4-.56.4Zm2.28-4.65c-.11,0-.22-.03-.32-.09-.28-.18-.36-.54-.18-.82.36-.57.75-1.13,1.16-1.66.2-.26.57-.31.83-.11.26.2.31.57.11.83-.39.51-.76,1.04-1.1,1.58-.11.18-.31.27-.5.27Zm3.26-4.03c-.15,0-.31-.06-.42-.18-.23-.23-.23-.61,0-.84.48-.47.98-.93,1.5-1.36.25-.21.63-.18.84.08.21.25.18.63-.08.84-.49.41-.97.85-1.43,1.29-.12.11-.27.17-.42.17Zm4.07-3.21c-.2,0-.39-.1-.51-.28-.17-.28-.09-.65.19-.82.57-.36,1.17-.69,1.77-1,.29-.15.65-.03.8.26.15.29.03.65-.26.8-.57.29-1.13.61-1.68.95-.1.06-.21.09-.31.09Zm21.79-1.42c-.08,0-.17-.02-.25-.05-.58-.26-1.18-.51-1.79-.72-.31-.11-.47-.45-.36-.76.11-.31.45-.47.76-.36.64.23,1.27.48,1.88.76.3.14.43.49.3.79-.1.22-.32.35-.54.35Zm-17.12-.81c-.25,0-.48-.15-.56-.4-.11-.31.06-.65.37-.76.64-.22,1.29-.41,1.94-.58.32-.08.64.11.72.43.08.32-.11.64-.43.72-.62.16-1.24.34-1.85.55-.06.02-.13.03-.19.03Zm12.19-.79s-.08,0-.12-.01c-.63-.13-1.27-.23-1.9-.3-.33-.04-.56-.33-.52-.66.04-.33.33-.56.66-.52.67.08,1.34.19,2,.32.32.07.53.38.46.7-.06.28-.31.48-.58.48Zm-7.14-.34c-.3,0-.56-.23-.59-.53-.03-.33.2-.62.53-.65.67-.07,1.35-.11,2.02-.13,0,0,0,0,.01,0,.32,0,.59.26.59.58,0,.33-.25.6-.58.61-.64.01-1.29.05-1.92.12-.02,0-.04,0-.06,0Z"/>
            <path class="cls-34" d="m60.38,5.32c-.12,0-.24-.03-.34-.11-.25-.18-.51-.35-.77-.51-.28-.18-.36-.54-.18-.82.18-.28.54-.36.82-.18.27.17.55.36.81.54.27.19.34.56.15.83-.12.17-.3.26-.49.26Z"/>
          </g>
          <g class="cls-20">
            <path class="cls-34" d="m70.04,20.66c-.29,0-.54-.21-.59-.5-.05-.3-.1-.61-.17-.91-.07-.32.14-.64.46-.7.32-.07.64.14.7.46.06.32.12.64.17.96.05.32-.17.63-.49.68-.03,0-.06,0-.09,0Z"/>
            <path class="cls-34" d="m47.2,47.5c-.27,0-.55,0-.82-.01-.33-.01-.59-.29-.57-.61.01-.33.29-.59.61-.57.64.02,1.27.02,1.9-.01.33-.02.61.24.62.56.02.33-.24.61-.56.62-.39.02-.78.03-1.17.03Zm-3.95-.33s-.07,0-.1,0c-.65-.11-1.31-.25-1.95-.42-.32-.08-.51-.41-.43-.72.08-.32.41-.51.72-.43.61.16,1.23.29,1.85.4.32.06.54.36.49.69-.05.29-.3.49-.59.49Zm8.23-.06c-.28,0-.53-.2-.58-.48-.06-.32.15-.63.47-.69.62-.12,1.24-.26,1.85-.43.32-.09.64.1.73.41.09.32-.1.64-.41.73-.64.18-1.29.33-1.94.45-.04,0-.07.01-.11.01Zm-13.13-1.34c-.08,0-.15-.01-.23-.05-.61-.25-1.22-.53-1.81-.84-.29-.15-.41-.51-.26-.8.15-.29.51-.41.8-.26.56.29,1.14.56,1.72.8.3.12.45.47.32.78-.09.23-.32.37-.55.37Zm18-.15c-.23,0-.45-.13-.55-.36-.13-.3,0-.65.31-.78.58-.25,1.15-.53,1.71-.82.29-.16.65-.05.81.24.16.29.05.65-.24.8-.58.31-1.19.61-1.8.87-.08.03-.16.05-.24.05Zm4.43-2.52c-.18,0-.37-.09-.48-.25-.19-.27-.13-.64.13-.83.51-.37,1.01-.77,1.49-1.18.25-.21.62-.19.84.06.21.25.19.62-.06.84-.5.43-1.03.85-1.56,1.24-.11.08-.23.11-.35.11Zm3.77-3.43c-.14,0-.28-.05-.39-.15-.25-.22-.27-.59-.05-.84.42-.47.82-.97,1.19-1.47.2-.26.57-.32.83-.12.26.2.32.57.12.83-.39.53-.82,1.05-1.26,1.55-.12.13-.28.2-.45.2Zm2.93-4.17c-.1,0-.2-.02-.29-.07-.29-.16-.39-.52-.23-.81.3-.55.59-1.12.84-1.7.13-.3.49-.44.78-.3.3.13.44.48.3.78-.27.61-.57,1.21-.89,1.79-.11.2-.31.31-.52.31Zm1.95-4.71c-.05,0-.11,0-.16-.02-.32-.09-.5-.42-.41-.74.17-.6.32-1.22.45-1.84.06-.32.38-.53.7-.47.32.06.53.38.47.7-.13.65-.29,1.3-.47,1.94-.08.26-.31.43-.57.43Zm.86-5.02s-.02,0-.04,0c-.33-.02-.58-.3-.56-.63.03-.46.04-.93.04-1.39,0-.17,0-.33,0-.5,0-.33.25-.6.58-.61.33-.01.6.25.61.58,0,.18,0,.35,0,.53,0,.49-.02.98-.04,1.47-.02.32-.28.56-.59.56Z"/>
            <path class="cls-34" d="m33.86,43.3c-.12,0-.24-.04-.34-.11-.26-.19-.53-.38-.79-.58-.26-.2-.31-.57-.11-.83.2-.26.57-.31.83-.11.25.19.5.37.75.55.27.19.33.56.14.83-.12.16-.3.25-.49.25Z"/>
          </g>
          <g>
            <path class="cls-40" d="m34.67,36.4c.07.09.2.13.31.09l3.18-1.17c1.25.96,2.67,1.74,4.2,2.26l.77,3.29c.03.12.12.2.24.21l4.04.41c.12.01.23-.05.28-.16l1.42-3.07c1.61-.21,3.15-.68,4.57-1.37l2.88,1.78c.1.06.23.05.32-.02l3.14-2.57c.09-.08.13-.2.09-.31l-1.17-3.18c.96-1.25,1.74-2.67,2.26-4.2l3.29-.77c.12-.03.2-.12.21-.24l.41-4.04c.01-.12-.05-.23-.16-.28l-3.07-1.42c-.21-1.61-.68-3.15-1.37-4.57l1.78-2.88c.06-.1.05-.23-.02-.32l-2.57-3.14c-.07-.09-.2-.13-.31-.09l-3.18,1.17c-1.25-.96-2.67-1.74-4.2-2.26l-.77-3.29c-.03-.12-.12-.2-.24-.21l-4.04-.41c-.12-.01-.23.05-.28.16l-1.42,3.07c-1.61.21-3.15.68-4.57,1.37l-2.88-1.78c-.1-.06-.23-.05-.32.02l-3.14,2.57c-.09.07-.13.2-.09.31l1.17,3.18c-.96,1.25-1.74,2.67-2.26,4.2l-3.29.77c-.12.03-.2.12-.21.24l-.41,4.04c-.01.12.05.23.16.28l3.07,1.42c.21,1.61.68,3.15,1.37,4.57l-1.78,2.88c-.06.1-.05.23.02.32l2.57,3.14Z"/>
            <path class="cls-32" d="m47.19,27.65c-1.99,0-3.73-1.46-4.03-3.48-.33-2.23,1.22-4.3,3.44-4.63,1.08-.16,2.15.11,3.03.76.87.65,1.44,1.6,1.6,2.68.33,2.23-1.22,4.3-3.44,4.63-.2.03-.4.04-.6.04Zm0-7.21c-.15,0-.31.01-.46.03-1.71.25-2.89,1.84-2.64,3.55.25,1.71,1.84,2.89,3.55,2.64,1.71-.25,2.89-1.84,2.64-3.55-.12-.83-.56-1.56-1.23-2.05-.54-.4-1.19-.62-1.86-.62Z"/>
            <path class="cls-32" d="m47.27,33.54c-.34,0-.68-.02-1.03-.05h0c-.11-.01-.22-.02-.32-.04-.53-.07-1.06-.18-1.57-.34,0,0-.01,0-.02,0-.02,0-.04-.01-.06-.02-.04-.01-.08-.02-.11-.04-.1-.03-.16-.13-.16-.23,0-.02,0-.05.01-.07.04-.12.17-.19.3-.15.64.21,1.31.35,1.99.42,3.37.34,6.51-1.12,8.47-3.6,1.09-1.38,1.81-3.07,2-4.94.03-.33.05-.66.05-.98,0-2.19-.75-4.3-2.15-6.02-1.61-1.98-3.9-3.21-6.44-3.46-5.24-.53-9.94,3.3-10.47,8.54-.03.32-.05.65-.05.97,0,1.4.31,2.78.9,4.05.02.03.02.07.02.1,0,.09-.05.17-.14.22-.12.06-.26,0-.32-.11-.62-1.33-.95-2.78-.95-4.25,0-.34.02-.68.05-1.02.56-5.5,5.49-9.52,10.99-8.97,2.67.27,5.07,1.56,6.76,3.64,1.47,1.81,2.26,4.02,2.26,6.32,0,.34-.02.69-.05,1.03-.27,2.67-1.56,5.07-3.64,6.76-1.81,1.47-4.02,2.26-6.32,2.26Z"/>
          </g>
        </g>
        <g>
          <g class="cls-20">
            <path class="cls-34" d="m3.84,42.46c-.16,0-.31-.1-.35-.26-.09-.3-.17-.61-.24-.91-.05-.2.08-.39.28-.44.2-.05.39.08.44.28.07.29.14.58.23.87.06.19-.05.4-.25.46-.03.01-.07.01-.1.01Z"/>
            <path class="cls-34" d="m3.3,39.68c-.19,0-.35-.14-.36-.33-.05-.53-.08-1.08-.08-1.61,0-.11,0-.23,0-.34,0-.2.18-.36.38-.36.2,0,.36.17.36.37,0,.11,0,.22,0,.33,0,.51.03,1.03.08,1.54.02.2-.13.38-.33.4-.01,0-.03,0-.04,0Zm.08-3.81s-.04,0-.05,0c-.2-.03-.34-.22-.31-.42.09-.64.23-1.29.4-1.91.05-.2.26-.31.45-.26.2.05.31.26.26.45-.16.6-.29,1.21-.38,1.83-.03.18-.18.31-.36.31Zm1-3.68s-.09,0-.14-.03c-.19-.08-.28-.29-.2-.48.25-.6.54-1.19.86-1.76.1-.18.32-.24.5-.14.18.1.24.32.14.5-.31.54-.58,1.1-.82,1.68-.06.14-.2.23-.34.23Zm1.88-3.32c-.08,0-.15-.02-.22-.07-.16-.12-.2-.35-.08-.51.39-.52.81-1.03,1.26-1.5.14-.15.37-.15.52-.01.15.14.15.37.01.52-.43.45-.83.93-1.2,1.43-.07.1-.18.15-.3.15Zm2.63-2.76c-.11,0-.21-.05-.28-.13-.13-.16-.11-.39.05-.52.5-.41,1.04-.8,1.58-1.14.17-.11.4-.06.51.11.11.17.06.4-.11.51-.52.33-1.03.7-1.51,1.09-.07.06-.15.08-.23.08Zm3.22-2.04c-.14,0-.27-.08-.33-.21-.09-.18,0-.4.18-.49.59-.28,1.2-.52,1.82-.72.19-.06.4.04.46.23.06.19-.04.4-.23.46-.59.19-1.17.43-1.73.69-.05.02-.1.04-.16.04Zm3.62-1.19c-.17,0-.33-.12-.36-.3-.04-.2.09-.39.29-.43.64-.12,1.29-.21,1.94-.26.2-.01.38.14.39.34.01.2-.14.38-.34.39-.62.04-1.24.13-1.85.24-.02,0-.05,0-.07,0Zm5.7-.05s-.04,0-.06,0c-.53-.09-1.07-.16-1.61-.2-.08,0-.16-.01-.24-.02-.2-.01-.36-.18-.35-.39.01-.2.18-.36.39-.35.09,0,.17,0,.26.02.57.04,1.13.11,1.69.21.2.04.33.23.3.43-.03.18-.19.3-.36.3Z"/>
          </g>
          <g class="cls-20">
            <path class="cls-34" d="m18.93,53.59c-.2,0-.36-.16-.37-.36,0-.2.16-.37.36-.37.61,0,1.23-.05,1.83-.13.2-.03.39.11.41.31.03.2-.11.39-.31.41-.63.08-1.28.13-1.92.14h0Zm-1.88-.09s-.03,0-.04,0c-.64-.07-1.27-.18-1.9-.32-.2-.05-.32-.24-.28-.44.05-.2.24-.32.44-.28.59.14,1.2.24,1.81.31.2.02.35.2.33.4-.02.19-.18.33-.36.33Zm5.59-.41c-.16,0-.31-.11-.36-.27-.05-.2.07-.4.26-.45.59-.16,1.18-.35,1.74-.57.19-.07.4.02.48.21.07.19-.02.4-.21.48-.59.24-1.21.44-1.83.6-.03,0-.06.01-.09.01Zm-9.25-.43s-.08,0-.13-.02c-.6-.22-1.19-.48-1.76-.77-.18-.09-.25-.31-.16-.49.09-.18.31-.25.49-.16.54.28,1.11.52,1.68.73.19.07.29.28.22.47-.05.15-.2.24-.35.24Zm12.73-.95c-.13,0-.26-.07-.32-.19-.1-.18-.03-.4.15-.5.54-.29,1.06-.62,1.55-.97.17-.12.39-.08.51.09.12.16.08.39-.09.51-.52.37-1.07.72-1.63,1.02-.06.03-.12.04-.18.04Zm3.05-2.18c-.1,0-.2-.04-.27-.12-.14-.15-.13-.38.02-.52.45-.41.88-.86,1.28-1.32.13-.15.36-.17.52-.04.15.13.17.36.04.52-.42.48-.87.95-1.34,1.38-.07.06-.16.1-.25.1Zm2.44-2.85c-.07,0-.14-.02-.2-.06-.17-.11-.21-.34-.1-.51.34-.51.65-1.04.92-1.59.09-.18.31-.25.49-.16.18.09.25.31.16.49-.29.57-.61,1.13-.97,1.66-.07.11-.19.16-.31.16Z"/>
            <path class="cls-34" d="m10.04,50.94c-.07,0-.14-.02-.21-.06-.26-.18-.52-.36-.76-.55-.16-.12-.19-.35-.07-.52.12-.16.35-.19.52-.07.23.18.48.36.73.52.17.11.21.34.1.51-.07.1-.19.16-.3.16Z"/>
          </g>
          <g>
            <path class="cls-49" d="m10.35,46.19c.05.06.13.08.21.06l2.12-.78c.84.65,1.78,1.16,2.81,1.51l.52,2.2c.02.08.08.13.16.14l2.7.27c.08,0,.15-.04.19-.11l.95-2.05c1.08-.14,2.11-.46,3.06-.92l1.92,1.19c.07.04.15.04.22-.01l2.1-1.72c.06-.05.08-.13.06-.21l-.78-2.12c.65-.84,1.16-1.78,1.51-2.81l2.2-.52c.08-.02.13-.08.14-.16l.27-2.7c0-.08-.03-.15-.11-.19l-2.05-.95c-.14-1.08-.46-2.11-.92-3.06l1.19-1.92c.04-.07.04-.15-.01-.22l-1.72-2.1c-.05-.06-.13-.08-.21-.06l-2.12.78c-.84-.65-1.78-1.16-2.81-1.51l-.52-2.2c-.02-.08-.08-.13-.16-.14l-2.7-.27c-.08,0-.15.03-.19.11l-.95,2.05c-1.08.14-2.11.46-3.06.92l-1.92-1.19c-.07-.04-.15-.04-.22.01l-2.1,1.72c-.06.05-.08.13-.06.21l.78,2.12c-.65.84-1.16,1.78-1.51,2.81l-2.2.52c-.08.02-.13.08-.14.16l-.27,2.7c0,.08.03.15.11.19l2.05.95c.14,1.08.46,2.11.92,3.06l-1.19,1.92c-.04.07-.04.15.01.22l1.72,2.1Z"/>
            <path class="cls-32" d="m18.72,40.38c-.59,0-1.17-.19-1.65-.55-.6-.44-.98-1.09-1.09-1.83-.22-1.52.83-2.93,2.34-3.15,1.52-.22,2.93.83,3.15,2.34.11.73-.08,1.47-.52,2.06-.44.6-1.09.98-1.83,1.09-.14.02-.27.03-.41.03Zm0-4.82c-.1,0-.2,0-.3.02-1.11.16-1.89,1.21-1.72,2.32.08.54.36,1.02.8,1.34.44.33.98.46,1.52.38h0c.54-.08,1.02-.36,1.34-.8.33-.44.46-.98.38-1.52-.15-1.01-1.02-1.75-2.02-1.75Z"/>
            <path class="cls-32" d="m18.78,44.48c-.23,0-.47-.01-.7-.04-.47-.05-.93-.14-1.38-.28-.02,0-.04-.01-.06-.02-.16-.05-.25-.19-.25-.35,0-.04,0-.08.02-.11.06-.19.27-.3.46-.24.42.14.85.23,1.29.27h0s.05,0,.07,0c1.04.1,2.06-.07,2.99-.47.51-.22.99-.51,1.43-.86,0,0,0,0,.01,0,.01,0,.02-.02.03-.03,1.28-1.04,2.08-2.52,2.24-4.17.02-.21.03-.42.03-.64,0-1.42-.48-2.78-1.39-3.9-1.04-1.28-2.53-2.08-4.17-2.24-1.64-.17-3.25.32-4.53,1.36-1.28,1.04-2.08,2.52-2.24,4.17-.02.21-.03.42-.03.63,0,.91.2,1.8.58,2.62.02.05.04.1.03.16,0,.14-.08.27-.21.33-.18.09-.4,0-.49-.18-.43-.92-.65-1.92-.65-2.93,0-.23.01-.47.04-.7.19-1.84,1.08-3.5,2.51-4.66,1.43-1.17,3.23-1.71,5.07-1.52,1.84.19,3.5,1.08,4.66,2.51,1.02,1.25,1.56,2.77,1.56,4.36,0,.24-.01.47-.04.71-.36,3.56-3.37,6.22-6.88,6.22Z"/>
          </g>
        </g>
      </g>
      <g>
        <g>
          <circle class="cls-17" cx="138.3" cy="62.54" r="56.07" transform="translate(-3.71 116.11) rotate(-45)"/>
          <g>
            <circle class="cls-17" cx="138.3" cy="62.54" r="47.86"/>
            <path class="cls-29" d="m138.3,111.72c-27.12,0-49.18-22.06-49.18-49.18s22.06-49.18,49.18-49.18,49.18,22.06,49.18,49.18-22.06,49.18-49.18,49.18Zm0-95.71c-25.66,0-46.53,20.87-46.53,46.53s20.87,46.53,46.53,46.53,46.53-20.87,46.53-46.53-20.87-46.53-46.53-46.53Z"/>
          </g>
          <g>
            <circle class="cls-17" cx="138.3" cy="62.54" r="29.18" transform="translate(45.66 182.77) rotate(-76.72)"/>
            <path class="cls-11" d="m138.3,93.04c-16.82,0-30.5-13.68-30.5-30.5s13.68-30.5,30.5-30.5,30.5,13.68,30.5,30.5-13.68,30.5-30.5,30.5Zm0-58.35c-15.36,0-27.85,12.49-27.85,27.85s12.49,27.85,27.85,27.85,27.85-12.49,27.85-27.85-12.49-27.85-27.85-27.85Z"/>
          </g>
          <g>
            <circle class="cls-35" cx="138.3" cy="62.54" r="11.3" transform="translate(45.66 182.77) rotate(-76.72)"/>
            <path class="cls-50" d="m138.3,75.17c-6.96,0-12.63-5.67-12.63-12.63s5.67-12.63,12.63-12.63,12.63,5.67,12.63,12.63-5.67,12.63-12.63,12.63Zm0-22.61c-5.5,0-9.98,4.48-9.98,9.98s4.48,9.98,9.98,9.98,9.98-4.48,9.98-9.98-4.48-9.98-9.98-9.98Z"/>
          </g>
        </g>
        <g>
          <rect class="cls-37" x="168.11" y="-2.14" width="1.79" height="67.72" transform="translate(266.09 173.66) rotate(-135)"/>
          <path class="cls-16" d="m145.33,51.98c.73-.73,4.15,2.69,3.42,3.42l-12.69,9.97c-.47.37-1.08-.24-.71-.71l9.97-12.69Z"/>
          <path class="cls-14" d="m193.56,8.44l6.44.64-8.84,8.84c-2.9,2.9-6.94,4.34-11.02,3.94h0l13.42-13.42Z"/>
          <path class="cls-53" d="m192.29,7.18l-.64-6.44-8.84,8.84c-2.9,2.9-4.34,6.94-3.94,11.02h0l13.42-13.42Z"/>
        </g>
      </g>
      <g>
        <path class="cls-54" d="m142.38,28.17l-5.68-2.46c-.44-.19-.95-.15-1.36.1l-5.25,3.29c-1.03.64-2.35-.17-2.23-1.38l.58-6.16c.05-.48-.15-.95-.52-1.26l-4.75-3.97c-.93-.78-.56-2.28.62-2.55l6.04-1.35c.47-.11.86-.44,1.04-.88l2.31-5.75c.45-1.13,2-1.24,2.62-.2l3.16,5.33c.25.41.68.68,1.16.71l6.18.42c1.21.08,1.8,1.52,1,2.43l-4.09,4.65c-.32.36-.44.86-.32,1.32l1.51,6.01c.3,1.18-.89,2.18-2,1.7Z"/>
        <path class="cls-25" d="m129.45,19.95c-.17-.28-.38-.52-.62-.73l-3.1-2.59c-.33-.27-.47-.7-.37-1.11.1-.41.42-.73.83-.82l3.95-.88c.92-.21,1.69-.86,2.04-1.73l1.51-3.75c.16-.39.52-.66.94-.69.42-.03.82.18,1.04.54l1.05,1.78-.27.16-1.05-1.78c-.16-.27-.44-.41-.74-.39-.31.02-.56.21-.68.5l-1.51,3.75c-.39.98-1.24,1.69-2.26,1.92l-3.95.88c-.3.07-.52.29-.6.59-.07.3.03.6.26.8l3.1,2.59c.28.23.51.5.69.81l-.27.16Z"/>
        <path class="cls-25" d="m130.57,26.94c-.2,0-.4-.06-.58-.17-.36-.22-.56-.62-.52-1.05l.29-3.08.31.03-.29,3.08c-.03.31.11.59.37.75.26.16.58.16.84,0l3.43-2.15c.88-.55,2.01-.64,2.96-.23l3.71,1.6c.28.12.59.08.83-.12.24-.2.33-.5.26-.8l-.99-3.92c-.26-1.02,0-2.1.7-2.89l2.67-3.04c.2-.23.26-.54.14-.83-.12-.29-.37-.47-.68-.49l-4.03-.27c-.42-.03-.82-.14-1.19-.32l.14-.28c.34.17.7.26,1.08.29l4.03.27c.42.03.79.29.95.68.16.39.09.84-.19,1.15l-2.67,3.04c-.63.71-.86,1.68-.63,2.6l.99,3.92c.1.41-.03.84-.36,1.11-.32.28-.77.34-1.16.17l-3.71-1.6c-.86-.37-1.88-.29-2.67.2l-3.43,2.15c-.18.11-.39.17-.59.17Z"/>
        <rect class="cls-25" x="136.74" y="9.94" width=".31" height="1.22" transform="translate(13.73 71.24) rotate(-30.64)"/>
      </g>
      <g>
        <path class="cls-8" d="m118.44,38.68l-4.15-1.79c-.32-.14-.69-.11-.99.08l-3.83,2.4c-.75.47-1.72-.12-1.63-1.01l.42-4.51c.03-.35-.11-.69-.38-.92l-3.47-2.9c-.68-.57-.41-1.67.45-1.86l4.42-.99c.34-.08.63-.32.76-.64l1.69-4.2c.33-.82,1.46-.91,1.91-.15l2.31,3.89c.18.3.5.5.85.52l4.51.31c.88.06,1.32,1.11.73,1.77l-2.99,3.4c-.23.26-.32.63-.23.97l1.1,4.39c.22.86-.65,1.59-1.46,1.24Z"/>
        <path class="cls-25" d="m108.99,32.68c-.12-.2-.27-.38-.46-.53l-2.27-1.9c-.24-.2-.34-.51-.27-.81.07-.3.31-.53.61-.6l2.88-.65c.68-.15,1.23-.63,1.49-1.27l1.1-2.74c.12-.29.38-.48.69-.51.31-.02.6.13.76.39l.77,1.3-.2.12-.77-1.3c-.12-.19-.32-.3-.54-.28-.23.02-.41.15-.49.36l-1.1,2.74c-.29.71-.9,1.24-1.65,1.41l-2.88.65c-.22.05-.38.21-.44.43-.05.22.02.44.19.58l2.27,1.9c.2.17.37.37.51.59l-.2.12Z"/>
        <path class="cls-25" d="m109.81,37.78c-.15,0-.29-.04-.42-.12-.26-.16-.41-.46-.38-.77l.21-2.25.23.02-.21,2.25c-.02.22.08.43.27.55.19.12.42.12.61,0l2.5-1.57c.64-.4,1.47-.47,2.17-.17l2.71,1.17c.21.09.43.06.61-.09.17-.15.24-.36.19-.58l-.72-2.87c-.19-.74,0-1.53.51-2.11l1.95-2.22c.15-.17.19-.4.1-.6-.09-.21-.27-.34-.5-.36l-2.95-.2c-.3-.02-.6-.1-.87-.24l.1-.21c.25.12.51.19.79.21l2.95.2c.31.02.58.21.69.5.12.29.06.61-.14.84l-1.95,2.22c-.46.52-.63,1.23-.46,1.9l.72,2.87c.08.3-.02.61-.26.81-.24.2-.56.25-.85.13l-2.71-1.17c-.63-.27-1.37-.21-1.95.15l-2.5,1.57c-.13.08-.28.12-.43.12Z"/>
        <rect class="cls-25" x="114.32" y="25.36" width=".23" height=".89" transform="translate(2.82 61.92) rotate(-30.64)"/>
      </g>
      <g>
        <path class="cls-4" d="m125.84,186.09l37.4-71.66h-7.66c-1.41,0-2.19-1.64-1.29-2.74l39.86-48.59c1.73-2.11,5.14-.77,4.98,1.95l-2.8,47.51c-.16,2.72-2.57,4.75-5.28,4.44l-5.34-.61-37.11,80.37c-.97,2.09-3.06,3.43-5.36,3.43h-12.86l-4.53-14.11Z"/>
        <path class="cls-19" d="m94.91,135.83l26.41,58.66c1.56,3.47,5.02,5.71,8.83,5.71h13.61c1.81,0,3.47-.98,4.35-2.56l.48-.87h0c-1.46,0-2.8-.82-3.47-2.12l-35.18-68.94-15.03,10.12Z"/>
        <path class="cls-2" d="m113.5,132.67h0c-2.65-2.09-6.52-1.48-8.39,1.33l-38.82,58.33c-3.11,4.67-8.35,7.48-13.96,7.48h-5.46l-4.45-12.81s36.09-55.34,45.4-63.71c0,0,9.26-8.35,18.4-2.04,2.41,1.67,4.25,4.05,5.36,6.76l1.92,4.66Z"/>
        <path class="cls-5" d="m.19,152.56s6.5-8.12,19.09-9.39c0,0,5.98,2.04,17.9,23.39,11.92,21.35,19.83,31.09,29.11,25.77l-.77,1.28c-2.53,4.2-7.08,6.78-11.99,6.78h-5.13c-5.65,0-10.96-2.72-14.26-7.31C24.86,180.19,5.89,154.56.19,152.56Z"/>
        <path class="cls-24" d="m194.63,80.08s-.03,0-.04,0c-.2-.02-.34-.2-.32-.4l.26-2.32c.02-.2.2-.34.4-.32.2.02.34.2.32.4l-.26,2.32c-.02.18-.18.32-.36.32Z"/>
        <path class="cls-24" d="m161.35,109.36c-.08,0-.15-.02-.22-.08-.16-.12-.19-.35-.07-.51l32.92-42.77c.39-.5,1.02-.67,1.6-.43.59.24.92.8.85,1.43l-.58,5.13c-.02.2-.2.34-.4.32-.2-.02-.34-.2-.32-.4l.58-5.13c.04-.36-.18-.58-.4-.67-.22-.09-.54-.08-.76.21l-32.92,42.77c-.07.09-.18.14-.29.14Z"/>
        <path class="cls-24" d="m86.67,154.2c-.07,0-.14-.02-.2-.06-.17-.11-.21-.34-.1-.5l17.02-25.23c.61-.9,1.62-1.39,2.71-1.31,1.09.08,2.01.72,2.48,1.7.09.18,0,.4-.17.48-.18.09-.4,0-.48-.17-.35-.75-1.06-1.23-1.88-1.29-.83-.06-1.59.31-2.05.99l-17.02,25.23c-.07.1-.18.16-.3.16Z"/>
        <path class="cls-24" d="m82.25,160.76c-.07,0-.14-.02-.2-.06-.17-.11-.21-.34-.1-.5l1.09-1.62c.11-.17.34-.21.5-.1.17.11.21.34.1.5l-1.09,1.62c-.07.1-.18.16-.3.16Z"/>
      </g>
      <g>
        <g>
          <path class="cls-48" d="m71.44,77.14l-5.03,7.74c2.34,4.56,4.94,7.08,7.55,8.28.46-2.84,2.12-5.2,3.34-6.6-4.64-2.64-5.85-9.42-5.85-9.42Z"/>
          <path class="cls-10" d="m88.74,85.17c-5.15,3.05-8.84,2.87-11.44,1.39-1.22,1.4-2.88,3.76-3.34,6.6,8.27,3.81,16.56-5.77,16.56-5.77l-1.77-2.22Z"/>
          <path class="cls-27" d="m89.02,86.49s-1.39-2.43.61-4.29c0,0,.65-.74,1.35.35,0,0,2.15-1.95,2.74-1.17.59.79,2.15,2.74.63,4.96-1.54,2.25-4.65,1.25-5.33.15Z"/>
          <path class="cls-30" d="m91.13,85.13c-.2,0-.42-.04-.62-.15-.27-.16-.44-.44-.49-.82-.02-.13.08-.25.21-.27.13-.02.25.08.27.21.03.23.11.38.25.47.2.12.49.09.7.04l-.49-1.56c-.04-.13.03-.26.16-.3.13-.04.26.03.3.16l.56,1.79c.04.12-.02.25-.14.3-.05.02-.37.14-.73.14Z"/>
          <path class="cls-38" d="m15.79,137.18c-.45.27-.68.84-.57,1.39.42,2.19,1.8,7.97,5.16,11.4.22.23.54.21.74,0-.85-.89-1.9-2.4-3.13-4.97-1.89-3.95-2.24-6.38-2.19-7.83Z"/>
          <path class="cls-47" d="m20.12,137.1s-2.16-1.18-4.32.07c0,0,0,0-.02.01-.05,1.44.3,3.88,2.19,7.83,1.23,2.57,2.28,4.08,3.13,4.97.06-.06.11-.15.14-.25.63-2.19,1.96-8.27-1.13-12.63Z"/>
          <path class="cls-36" d="m23.25,137.23l-1.96,1.88c-.35.33-.88.39-1.28.12-.35-.23-.74-.61-1-1.23-.16-.37-.08-.8.19-1.09l1.96-2.15c.47-.51,1.3-.43,1.65.17l.61,1.03c.24.41.17.94-.17,1.27Z"/>
          <path class="cls-28" d="m85.67,127.46c.38.36.98.44,1.49.2,2.01-.97,7.25-3.78,9.7-7.9.16-.27.06-.58-.19-.71-.64,1.05-1.83,2.45-4,4.3-3.33,2.84-5.6,3.8-7.01,4.12Z"/>
          <path class="cls-55" d="m84.49,123.29s-.58,2.39,1.17,4.16c0,0,0,0,.01.01,1.41-.32,3.67-1.28,7.01-4.12,2.17-1.85,3.36-3.25,4-4.3-.08-.04-.17-.07-.27-.07-2.28-.05-8.5.22-11.92,4.32Z"/>
          <path class="cls-42" d="m84.24,120l2.05,1.78c.36.32.46.84.23,1.26-.2.37-.54.79-1.13,1.1-.35.19-.79.15-1.11-.09l-2.32-1.76c-.55-.42-.54-1.25.02-1.66l.98-.7c.39-.28.92-.25,1.28.06Z"/>
          <path class="cls-7" d="m43.15,101.94s-4,13.62-6.58,19.6c0,0-4.52.69-7.31,2.32-2.8,1.63-8.82,10.69-8.82,10.69,0,0,1.57,2.99,3.47,3.44l17.14-11.88,13.68-15.91-.65-7.38-10.93-.89Z"/>
          <path class="cls-45" d="m43.39,100.82l-1.17,3.73s1.07,9.78,13.39,8.13c12.32-1.65,13.87-3.66,13.87-3.66,0,0-1.07,6.24,12.41,13.75,0,0,2.05-1.55,2.5-3.3l-9.44-15.57c-1.31-2.04-2.53-2.58-4.93-2.2-5.3.83-15.23,1.91-16.74,1.65l-9.89-2.53Z"/>
          <path class="cls-46" d="m53.02,73.1c-3.59.18-9.27,1.89-12.94,5.27,1.13,1.24,2.86,3.27,4.15,5.27,1.16-1.08,2.81-1.99,5.15-2.57-2.02,7.55-4.41,14.73-7.31,21.42-.18.42.03.9.46,1.05,2.25.78,8.89,2.65,14.21-.36l11.8-16.9c1.27-1.82,2.1-3.9,2.44-6.09l.47-3.05s-10.6-4.44-18.42-4.04Z"/>
          <path class="cls-21" d="m46.58,98.67c-.51-1.13-2.27-2.19-3.11-2.65-.73-1.5-3.64-8.26.76-12.39-1.29-2-3.03-4.02-4.15-5.27-4.23,3.9-5.78,10.01,1.64,18.58-.41,2.11.92,4.57,1.63,4.91.33.16,3.91-1.69,3.23-3.19Z"/>
          <path class="cls-13" d="m50.07,80.8l3.28-.71-3.28.71Z"/>
          <path class="cls-43" d="m60.99,68.61l-3.08,6.03c-.19.37-.13.81.14,1.12.75.83,2.51,2.18,5.58,1.21.34-.11.58-.4.63-.75l.8-5.48-4.07-2.13Z"/>
          <g>
            <path class="cls-33" d="m66.13,61.6s1.81,4.15,1.93,6.33c.12,2.18.59,3.59-1.93,4.03-2.52.44-4.64-.82-5.79-2.99,0,0-1.8-3.35-1.4-4.72.4-1.37,7.19-2.66,7.19-2.66Z"/>
            <path class="cls-12" d="m61.19,67.42l.14-.06c.18-.08.26-.3.17-.48-.36-.69-1.05-2.26-.15-2.63,1.15-.47,5.72-1.41,6.71-3.03.95-1.56.11-3.57-1.15-4.14-.08-.04-.18,0-.23.07l-.11.2c-.07.14-.27.12-.32-.03h0c-.04-.14-.23-.17-.31-.04-.3.49-1.12,1.27-3.31,1.68-3.11.57-5.17,1.83-5.22,3.98,0,.14-.15.21-.27.14-.23-.14-.6-.21-1.09.21-.85.72-.5,2.58,1.37,4.11.09.07.09.21,0,.27-.34.22-.85.75.47,1.45,1.36.72,2.37.67,2.76.6.1-.02.16-.11.14-.21l-.42-1.89c-.02-.11.06-.21.17-.21h.65Z"/>
            <path class="cls-9" d="m61.27,67.82s-.69-2.65-1.88-1.91c-1.19.74.62,2.97,1.57,3.07l.31-1.16Z"/>
          </g>
        </g>
        <g>
          <polygon class="cls-18" points="93.01 86.57 90.18 86.57 85.74 73.5 98.09 72.75 93.01 86.57"/>
          <path class="cls-44" d="m78.22,49.22c-.01,1.1-.01,22.7,10.95,26.2,10.96,3.51,15.91-14.76,15.52-27.78l-26.47,1.57Z"/>
          <rect class="cls-15" x="82.83" y="88.55" width="17.53" height="2.13"/>
          <polygon class="cls-6" points="100.36 88.55 82.83 88.55 87.27 86.17 95.92 86.17 100.36 88.55"/>
          <path class="cls-26" d="m76.95,46.15c-.96.06-1.75.77-1.75,1.58v1.66c0,.81.79,1.43,1.75,1.38l30.04-1.62c.96-.05,1.75-.76,1.75-1.57v-1.9c0-.81-.79-1.43-1.75-1.37l-30.05,1.83Z"/>
          <path class="cls-39" d="m96.93,77.14c-.7,0-1.3-.44-1.39-1.04-.09-.64.46-1.23,1.23-1.3.15-.01,10.23-1.08,11.18-6.6.16-.93.14-2.15-.86-2.65-.83-.42-2.18-.29-3.14.31-.55.34-1.15.93-.9,1.83.18.63-.28,1.27-1.03,1.42-.75.15-1.5-.24-1.68-.87-.46-1.64.27-3.23,1.96-4.28,1.88-1.16,4.44-1.33,6.23-.43,1.05.53,2.72,1.89,2.18,5.01-.53,3.09-3.11,5.56-7.45,7.15-3.12,1.14-6.06,1.43-6.18,1.45-.05,0-.11,0-.16,0Z"/>
          <path class="cls-3" d="m86.48,77.14c.7,0,1.3-.44,1.39-1.04.09-.64-.46-1.23-1.23-1.3-.15-.01-10.23-1.08-11.18-6.6-.16-.93-.14-2.15.86-2.65.83-.42,2.18-.29,3.14.31.55.34,1.15.93.9,1.83-.18.63.28,1.27,1.03,1.42.75.15,1.5-.24,1.68-.87.46-1.64-.27-3.23-1.96-4.28-1.88-1.16-4.44-1.33-6.23-.43-1.05.53-2.72,1.89-2.18,5.01.53,3.09,3.11,5.56,7.45,7.15,3.12,1.14,6.06,1.43,6.18,1.45.05,0,.11,0,.16,0Z"/>
          <path class="cls-23" d="m98.74,47.54c-.13,0-.23-.1-.24-.23,0-.13.09-.25.23-.25l2.68-.14c.13,0,.25.09.25.23,0,.13-.09.25-.23.25l-2.68.14s0,0-.01,0Z"/>
          <path class="cls-23" d="m78.22,48.64c-.13,0-.23-.1-.24-.23,0-.13.09-.25.23-.25l16.03-.86c.13,0,.25.09.25.23,0,.13-.09.25-.23.25l-16.03.86s0,0-.01,0Z"/>
          <path class="cls-23" d="m90.63,72.99s-.02,0-.03,0c-2.91-.33-5.23-2.7-6.91-7.03-1.38-3.58-2.04-7.76-2.34-10.64-.01-.13.08-.25.21-.26.13-.01.25.08.26.21.52,4.94,2.42,16.51,8.82,17.24.13.02.23.13.21.27-.01.12-.12.21-.24.21Z"/>
          <path class="cls-23" d="m81.4,53.27c-.13,0-.23-.1-.24-.23-.04-.66-.05-1.04-.05-1.05,0-.13.1-.24.23-.25.14,0,.24.1.25.23,0,0,.01.39.05,1.04,0,.13-.09.25-.23.26,0,0-.01,0-.02,0Z"/>
        </g>
        <path class="cls-51" d="m95,82.98s-1.13-3.2-3.02-1.43c-1.9,1.77-.99,4.16,1.03,5.02,2.02.86,2.99-1.02,1.99-3.58Z"/>
      </g>
      <g>
        <path class="cls-32" d="m144.85,200.25c9.76,1.88,38.6,3.05,49.23-44.8.3-1.36-1.39-2.24-2.32-1.21-4.37,4.84-12.15,13.06-18.76,15.59-20.48,7.84-27.89,20.45-30.34,26.35-.72,1.75.33,3.72,2.19,4.07Z"/>
        <path class="cls-31" d="m143.91,198.99c-.22,0-.42-.14-.48-.36-.08-.27.08-.55.34-.62,14.25-4.14,24.71-12.11,30.97-18.06,6.8-6.46,10.27-12.01,10.3-12.06.15-.24.46-.31.69-.16.24.15.31.46.16.69-.03.06-3.56,5.7-10.44,12.24-6.35,6.04-16.96,14.12-31.41,18.32-.05.01-.09.02-.14.02Z"/>
      </g>
      <g>
        <path class="cls-52" d="m167.13,118.69c1.11,8.94,6.67,64.03-22.64,81.61-.89.53-2.03-.06-2.1-1.09-.48-6.57-.77-27.44,11.28-52.07,8.7-17.77,11.88-25.78,12.89-28.52.11-.29.53-.24.57.07Z"/>
        <path class="cls-32" d="m142.39,199.72c-.08,0-.16-.02-.24-.06-.24-.13-.33-.44-.2-.68,14.56-26.77,20.98-59.43,21-60.94-.04-.24.11-.48.35-.56.27-.08.55.06.63.33.36,1.14-6.38,34.61-21.09,61.65-.09.17-.26.26-.44.26Zm20.57-61.61s0,0,0,0c0,0,0,0,0,0Z"/>
      </g>
    </g>
  </g>
</svg>