<svg width="102" height="61" viewBox="0 0 102 61" fill="none" xmlns="http://www.w3.org/2000/svg">
<path d="M77.5 28.4998L77.0584 28.7344L77.5 28.4998ZM42.5 59.0001L42.3896 59.4878L42.5 59.0001ZM102 6.00014L98.178 1.67287L96.3414 7.14649L102 6.00014ZM1 37.4998L1.31388 37.889C1.55954 37.6909 1.81397 37.491 2.07692 37.2894L1.77269 36.8926L1.46846 36.4958C1.19935 36.7021 0.938469 36.9071 0.686124 37.1106L1 37.4998ZM3.39337 35.7042L3.68101 36.1132C4.20649 35.7436 4.75707 35.3703 5.33112 34.9943L5.05716 34.576L4.78321 34.1578C4.20054 34.5394 3.64081 34.9189 3.10573 35.2953L3.39337 35.7042ZM6.75618 33.4976L7.01838 33.9233C7.57411 33.5811 8.14751 33.2376 8.73737 32.8939L8.4856 32.4619L8.23383 32.0299C7.63725 32.3776 7.05689 32.7252 6.49399 33.0718L6.75618 33.4976ZM10.2324 31.4695L10.4747 31.9068C11.046 31.5903 11.6303 31.2741 12.2265 30.9591L11.9929 30.517L11.7593 30.0749C11.1574 30.393 10.5673 30.7123 9.99007 31.0321L10.2324 31.4695ZM13.7777 29.5952L14.003 30.0415C14.5928 29.7438 15.1926 29.4475 15.8016 29.1535L15.5842 28.7032L15.3667 28.253C14.7525 28.5496 14.1474 28.8484 13.5523 29.1489L13.7777 29.5952ZM17.3995 27.8455L17.6093 28.2994C18.2084 28.0225 18.8152 27.748 19.4289 27.4765L19.2266 27.0192L19.0243 26.562C18.4056 26.8357 17.7938 27.1124 17.1897 27.3917L17.3995 27.8455ZM21.0728 26.2203L21.2677 26.6808C21.8788 26.4222 22.4958 26.1669 23.1181 25.9153L22.9307 25.4517L22.7432 24.9882C22.116 25.2418 21.494 25.4992 20.878 25.7599L21.0728 26.2203ZM24.7962 24.7147L24.9762 25.1812C25.5967 24.9419 26.2215 24.7065 26.8501 24.4756L26.6777 24.0063L26.5054 23.537C25.8716 23.7697 25.2417 24.0069 24.6163 24.2482L24.7962 24.7147ZM28.5696 23.329L28.7342 23.8012C29.3625 23.5821 29.9939 23.3678 30.6277 23.1587L30.471 22.6838L30.3144 22.209C29.6752 22.4199 29.0385 22.636 28.405 22.8569L28.5696 23.329ZM32.3848 22.0707L32.5332 22.5482C33.1698 22.3503 33.8081 22.1581 34.4477 21.9718L34.3079 21.4918L34.1681 21.0117C33.5227 21.1997 32.8786 21.3936 32.2364 21.5932L32.3848 22.0707ZM36.2427 20.9478L36.3735 21.4304C37.0177 21.2558 37.6626 21.0877 38.3074 20.9265L38.1861 20.4415L38.0648 19.9564C37.4136 20.1192 36.7624 20.289 36.1119 20.4652L36.2427 20.9478ZM40.1391 19.9744L40.2503 20.4619C40.9028 20.3131 41.5547 20.1717 42.2051 20.0384L42.1047 19.5486L42.0042 19.0588C41.3464 19.1936 40.6874 19.3365 40.0279 19.487L40.1391 19.9744ZM44.0755 19.1682L44.1644 19.6603C44.8225 19.5413 45.4784 19.4311 46.1316 19.33L46.0551 18.8359L45.9786 18.3418C45.3169 18.4442 44.6526 18.5558 43.9865 18.6762L44.0755 19.1682ZM48.048 18.5549L48.111 19.0509C48.775 18.9666 49.4353 18.8924 50.0912 18.8289L50.0429 18.3312L49.9947 17.8335C49.3287 17.8981 48.6585 17.9734 47.9851 18.0588L48.048 18.5549ZM52.0394 18.1697L52.0715 18.6687C52.7424 18.6255 53.4077 18.5943 54.0665 18.5756L54.0523 18.0758L54.0381 17.576C53.3668 17.5951 52.6896 17.6268 52.0072 17.6708L52.0394 18.1697ZM56.0623 18.0578L56.0567 18.5577C56.7254 18.5652 57.3863 18.5868 58.0383 18.6229L58.0659 18.1237L58.0936 17.6244C57.4262 17.5874 56.7507 17.5655 56.0679 17.5578L56.0623 18.0578ZM60.0636 18.283L60.0113 18.7803C60.6788 18.8505 61.3355 18.9377 61.9801 19.0424L62.0602 18.5488L62.1404 18.0553C61.4764 17.9475 60.8012 17.8579 60.1159 17.7858L60.0636 18.283ZM64.0335 18.9326L63.9222 19.42C64.5722 19.5684 65.2076 19.7369 65.8274 19.9262L65.9734 19.448L66.1194 18.9698C65.4756 18.7732 64.817 18.5986 64.1448 18.4451L64.0335 18.9326ZM67.8665 20.1096L67.6821 20.5744C68.2968 20.8183 68.8929 21.0858 69.4691 21.3779L69.6952 20.9319L69.9212 20.4859C69.3166 20.1795 68.6926 19.8995 68.0509 19.6449L67.8665 20.1096ZM71.4372 21.9271L71.1672 22.3479C71.7183 22.7015 72.247 23.0821 72.7519 23.4907L73.0664 23.1021L73.381 22.7134C72.8467 22.281 72.2882 21.879 71.7073 21.5062L71.4372 21.9271ZM74.551 24.4518L74.1938 24.8016C74.6443 25.2618 75.0707 25.7506 75.4714 26.2692L75.867 25.9635L76.2627 25.6577C75.838 25.1081 75.3859 24.5899 74.9083 24.102L74.551 24.4518ZM76.9987 27.616L76.5708 27.8747C76.7397 28.1539 76.9023 28.4405 77.0584 28.7344L77.5 28.4998L77.9416 28.2653C77.7768 27.9551 77.6051 27.6525 77.4266 27.3573L76.9987 27.616ZM77.5 28.4998L77.0584 28.7344C77.209 29.0177 77.3512 29.3024 77.4854 29.5883L77.938 29.3759L78.3907 29.1635C78.2495 28.8626 78.0998 28.5631 77.9416 28.2653L77.5 28.4998ZM78.6743 31.1772L78.2024 31.3424C78.4133 31.9448 78.59 32.5509 78.7334 33.1591L79.2201 33.0444L79.7067 32.9296C79.5553 32.2873 79.3687 31.6475 79.1462 31.012L78.6743 31.1772ZM79.5652 34.9622L79.0691 35.0242C79.1478 35.6539 79.1921 36.2843 79.203 36.9136L79.7029 36.905L80.2028 36.8964C80.1914 36.2316 80.1446 35.5656 80.0613 34.9001L79.5652 34.9622ZM79.6329 38.8509L79.1348 38.8066C79.0788 39.4357 78.9898 40.062 78.8687 40.6838L79.3595 40.7794L79.8502 40.875C79.9779 40.2197 80.0718 39.5592 80.1309 38.8953L79.6329 38.8509ZM78.8912 42.6695L78.4124 42.5251C78.2306 43.1282 78.0184 43.7251 77.7765 44.3142L78.2391 44.5041L78.7016 44.694C78.9555 44.0755 79.1786 43.4482 79.3699 42.8138L78.8912 42.6695ZM77.4157 46.2693L76.9728 46.0373C76.6804 46.5953 76.3605 47.1443 76.0141 47.6825L76.4345 47.9531L76.8549 48.2238C77.2173 47.6609 77.5521 47.0862 77.8586 46.5014L77.4157 46.2693ZM75.3098 49.5447L74.9141 49.239C74.5292 49.7372 74.1202 50.2237 73.6878 50.6972L74.057 51.0344L74.4262 51.3715C74.8769 50.878 75.3036 50.3705 75.7055 49.8504L75.3098 49.5447ZM72.6876 52.4185L72.3463 52.0531C71.8857 52.4833 71.4041 52.9 70.9019 53.3019L71.2143 53.6922L71.5267 54.0826C72.0486 53.665 72.5496 53.2317 73.029 52.7839L72.6876 52.4185ZM69.6492 54.852L69.3665 54.4396C68.8461 54.7964 68.3075 55.1382 67.7512 55.4638L68.0038 55.8953L68.2564 56.3268C68.8331 55.9892 69.3918 55.6347 69.9319 55.2644L69.6492 54.852ZM66.2892 56.8206L66.067 56.3727C65.5015 56.6532 64.9204 56.9178 64.324 57.1655L64.5158 57.6273L64.7076 58.089C65.3244 57.8328 65.9259 57.559 66.5114 57.2685L66.2892 56.8206ZM62.6933 58.3156L62.5318 57.8424C61.9343 58.0464 61.3233 58.234 60.6995 58.4043L60.8311 58.8867L60.9628 59.369C61.6067 59.1933 62.2375 58.9996 62.8549 58.7888L62.6933 58.3156ZM58.9376 59.3422L58.8353 58.8528C58.2171 58.9821 57.5876 59.0948 56.947 59.1902L57.0207 59.6847L57.0943 60.1793C57.754 60.081 58.4026 59.9649 59.0399 59.8317L58.9376 59.3422ZM55.0873 59.9171L55.0415 59.4192C54.4121 59.4771 53.7731 59.5186 53.1249 59.543L53.1437 60.0427L53.1625 60.5423C53.8287 60.5172 54.4856 60.4745 55.1331 60.415L55.0873 59.9171ZM51.1952 60.0651L51.2024 59.5652C50.5691 59.5562 49.9277 59.5311 49.2785 59.4894L49.2464 59.9884L49.2143 60.4873C49.88 60.5301 50.538 60.5558 51.1881 60.5651L51.1952 60.0651ZM47.3008 59.8162L47.3567 59.3193C46.7289 59.2487 46.0945 59.1627 45.4535 59.0608L45.375 59.5546L45.2965 60.0484C45.9523 60.1526 46.6019 60.2407 47.2449 60.313L47.3008 59.8162ZM43.4624 59.2072L43.5623 58.7173C43.2465 58.6529 42.9292 58.5846 42.6104 58.5124L42.5 59.0001L42.3896 59.4878C42.7153 59.5615 43.0395 59.6313 43.3624 59.6972L43.4624 59.2072ZM42.5 59.0001L42.6104 58.5124C42.2851 58.4388 41.9657 58.3555 41.6523 58.2629L41.5106 58.7424L41.3689 59.2219C41.7032 59.3207 42.0434 59.4094 42.3896 59.4878L42.5 59.0001ZM39.6257 58.0484L39.8292 57.5916C39.2309 57.3251 38.6575 57.0211 38.1094 56.6822L37.8465 57.1075L37.5836 57.5328C38.1695 57.8951 38.7826 58.2201 39.4223 58.5051L39.6257 58.0484ZM36.2051 55.9347L36.522 55.5479C36.0206 55.1371 35.5449 54.693 35.0954 54.2183L34.7323 54.562L34.3692 54.9058C34.8469 55.4103 35.3534 55.8832 35.8882 56.3214L36.2051 55.9347ZM33.4374 53.02L33.8383 52.7212C33.4513 52.2019 33.0895 51.6558 32.7535 51.0852L32.3226 51.339L31.8918 51.5927C32.2455 52.1933 32.6272 52.7696 33.0365 53.3188L33.4374 53.02ZM31.3852 49.547L31.839 49.3371C31.5672 48.7496 31.3193 48.142 31.0956 47.5165L30.6248 47.6849L30.154 47.8532C30.3874 48.506 30.6466 49.1413 30.9314 49.7569L31.3852 49.547ZM30.0269 45.7629L30.51 45.6339C30.3417 45.0036 30.196 44.3589 30.0733 43.7017L29.5818 43.7934L29.0903 43.8852C29.2175 44.5668 29.3688 45.2364 29.5438 45.8919L30.0269 45.7629ZM29.2822 41.7911L29.779 41.7346C29.7054 41.0874 29.6529 40.4306 29.6219 39.7658L29.1224 39.7891L28.623 39.8125C28.6551 40.499 28.7093 41.1779 28.7854 41.8476L29.2822 41.7911ZM29.0928 37.7725L29.5927 37.7809C29.6038 37.1222 29.6352 36.4576 29.6874 35.7887L29.1889 35.7498L28.6904 35.711C28.6367 36.4 28.6043 37.0849 28.5929 37.7641L29.0928 37.7725ZM29.4039 33.7516L29.8992 33.8195C29.9886 33.1679 30.0973 32.5136 30.2257 31.858L29.735 31.762L29.2443 31.6659C29.1123 32.34 29.0004 33.0131 28.9085 33.6836L29.4039 33.7516ZM30.1797 29.7875L30.6642 29.911C30.8263 29.275 31.0069 28.6391 31.2063 28.0045L30.7293 27.8546L30.2523 27.7047C30.0474 28.3568 29.8618 29.0103 29.6952 29.6641L30.1797 29.7875ZM31.3871 25.9456L31.8552 26.1214C32.0871 25.5038 32.3371 24.8886 32.6054 24.2771L32.1475 24.0762L31.6897 23.8753C31.414 24.5035 31.1572 25.1354 30.919 25.7699L31.3871 25.9456ZM33.0059 22.2553L33.4522 22.4806C33.7504 21.8901 34.0662 21.3041 34.3999 20.7237L33.9664 20.4745L33.533 20.2252C33.1902 20.8214 32.8658 21.4234 32.5595 22.03L33.0059 22.2553ZM35.0152 18.7593L35.4346 19.0315C35.7938 18.4782 36.1701 17.9311 36.5636 17.3914L36.1596 17.0968L35.7556 16.8023C35.3513 17.3567 34.9648 17.9186 34.5958 18.487L35.0152 18.7593ZM37.392 15.4996L37.7794 15.8156C38.195 15.3061 38.6271 14.8044 39.0757 14.3114L38.7059 13.9749L38.3361 13.6383C37.8753 14.1447 37.4315 14.6601 37.0045 15.1835L37.392 15.4996ZM40.1087 12.5149L40.4598 12.871C40.9262 12.4112 41.4084 11.9604 41.9063 11.5194L41.5748 11.1451L41.2434 10.7708C40.732 11.2236 40.2369 11.6866 39.7577 12.1589L40.1087 12.5149ZM43.1285 9.84203L43.4394 10.2336C43.9513 9.82707 44.4781 9.43054 45.0199 9.04475L44.7299 8.63745L44.4399 8.23016C43.8838 8.6261 43.3431 9.03313 42.8176 9.45047L43.1285 9.84203ZM46.4102 7.50602L46.6786 7.92788C47.2303 7.57689 47.7961 7.23658 48.3761 6.90761L48.1294 6.47269L47.8827 6.03778C47.288 6.37507 46.7077 6.7241 46.1418 7.08416L46.4102 7.50602ZM49.9156 5.51812L50.1402 5.96483C50.724 5.67128 51.321 5.3888 51.9314 5.11798L51.7286 4.66095L51.5258 4.20392C50.9008 4.48124 50.2892 4.7706 49.691 5.0714L49.9156 5.51812ZM53.6016 3.88275L53.7825 4.34887C54.3904 4.11296 55.0104 3.88822 55.6429 3.67517L55.4832 3.20134L55.3236 2.7275C54.677 2.94534 54.0427 3.17522 53.4207 3.41662L53.6016 3.88275ZM57.4279 2.59429L57.5663 3.07475C58.1901 2.89505 58.8251 2.72636 59.4713 2.56913L59.3531 2.0833L59.2349 1.59747C58.5752 1.75797 57.9268 1.93024 57.2895 2.11383L57.4279 2.59429ZM61.3459 1.64199L61.444 2.13227C62.0805 2.00489 62.7273 1.8883 63.3844 1.78289L63.3052 1.2892L63.2261 0.795511C62.5564 0.902933 61.8969 1.02179 61.2478 1.15171L61.3459 1.64199ZM65.3115 1.00609L65.3722 1.5024C66.0246 1.42266 66.6867 1.35365 67.3585 1.29571L67.3156 0.797556L67.2726 0.299405C66.5891 0.358355 65.9152 0.428593 65.2509 0.509781L65.3115 1.00609ZM69.3147 0.659362L69.3408 1.15868C70.0107 1.12363 70.6898 1.09932 71.3782 1.08607L71.3685 0.58616L71.3589 0.0862524C70.6597 0.099716 69.9696 0.124416 69.2886 0.160044L69.3147 0.659362ZM73.344 0.578237L73.3385 1.07821C73.9999 1.08548 74.6694 1.10272 75.3471 1.13021L75.3673 0.630617L75.3876 0.131027C74.7002 0.10315 74.0208 0.0856476 73.3495 0.0782672L73.344 0.578237ZM77.3967 0.741883L77.3624 1.2407C78.0107 1.28537 78.6662 1.3392 79.329 1.40241L79.3765 0.904669L79.4239 0.406928C78.7526 0.342892 78.0883 0.28834 77.4311 0.243066L77.3967 0.741883ZM81.3992 1.12405L81.3389 1.62041C81.9961 1.70017 82.6601 1.78896 83.331 1.88699L83.4033 1.39225L83.4756 0.897502C82.7968 0.798315 82.1247 0.708442 81.4594 0.627695L81.3992 1.12405ZM85.3677 1.70241L85.2841 2.19537C85.9416 2.30681 86.6053 2.42695 87.2755 2.55597L87.37 2.06499L87.4645 1.574C86.7872 1.4436 86.1161 1.32213 85.4513 1.20944L85.3677 1.70241ZM89.3595 2.47008L89.2545 2.95895C89.8903 3.09539 90.5316 3.23967 91.1785 3.39194L91.2931 2.90524L91.4076 2.41854C90.7544 2.26478 90.1067 2.11905 89.4644 1.98122L89.3595 2.47008ZM93.2599 3.38846L93.136 3.87285C93.7916 4.04062 94.4528 4.21645 95.1196 4.40049L95.2527 3.91851L95.3857 3.43653C94.7129 3.25084 94.0456 3.0734 93.3839 2.90406L93.2599 3.38846ZM97.1441 4.45819L97.0028 4.93781C97.6354 5.12416 98.2729 5.31778 98.9153 5.51878L99.0646 5.0416L99.2139 4.56441C98.5662 4.36175 97.9234 4.16651 97.2853 3.97856L97.1441 4.45819Z" fill="#040405"/>
</svg>
