<svg width="20" height="20" viewBox="0 0 20 20" fill="none" xmlns="http://www.w3.org/2000/svg">
<path opacity="0.4" d="M4 0H16C18.2091 0 20 1.79086 20 4V16C20 18.2091 18.2091 20 16 20H4C1.79086 20 0 18.2091 0 16V4C0 1.79086 1.79086 0 4 0Z" fill="#115A36"/>
<path d="M15 8C15 8.55228 14.5523 9 14 9C13.4477 9 13 8.55228 13 8C13 7.44772 13.4477 7 14 7C14.5523 7 15 7.44772 15 8Z" fill="#115A36"/>
<path d="M7 8C7 8.55228 6.55228 9 6 9C5.44772 9 5 8.55228 5 8C5 7.44772 5.44772 7 6 7C6.55228 7 7 7.44772 7 8Z" fill="#115A36"/>
<path fill-rule="evenodd" clip-rule="evenodd" d="M7.49455 12.4362C7.1849 12.1645 6.71354 12.1934 6.43945 12.5017C6.16426 12.8113 6.19215 13.2854 6.50174 13.5606L7.00001 13C6.50174 13.5606 6.5015 13.5604 6.50174 13.5606L6.5027 13.5614L6.50376 13.5624L6.50622 13.5645L6.51243 13.5699L6.53 13.5849C6.54398 13.5967 6.56252 13.612 6.58552 13.6303C6.6315 13.6668 6.6955 13.7154 6.77679 13.7719C6.93912 13.8849 7.17203 14.0306 7.46968 14.1749C8.06501 14.4635 8.92676 14.75 10 14.75C11.0733 14.75 11.935 14.4635 12.5303 14.1749C12.828 14.0306 13.0609 13.8849 13.2232 13.7719C13.3045 13.7154 13.3685 13.6668 13.4145 13.6303C13.4375 13.612 13.456 13.5967 13.47 13.5849L13.4876 13.5699L13.4938 13.5645L13.4963 13.5624L13.4973 13.5614C13.4976 13.5612 13.4983 13.5606 13 13L13.4983 13.5606C13.8079 13.2854 13.8358 12.8113 13.5606 12.5017C13.2865 12.1934 12.8151 12.1645 12.5055 12.4362L12.5046 12.4369C12.5012 12.4398 12.4929 12.4466 12.4815 12.4557C12.4587 12.4739 12.4201 12.5034 12.3666 12.5406C12.2594 12.6152 12.0939 12.7195 11.8759 12.8251C11.44 13.0365 10.8018 13.25 10 13.25C9.19825 13.25 8.56 13.0365 8.12409 12.8251C7.90611 12.7195 7.74058 12.6152 7.63338 12.5406C7.57991 12.5034 7.54136 12.4739 7.5185 12.4557C7.50708 12.4466 7.49961 12.4404 7.4962 12.4376C7.49547 12.4369 7.49491 12.4365 7.49455 12.4362C7.49456 12.4362 7.49455 12.4362 7.49455 12.4362ZM12.5055 12.4362L12.5046 12.4369L12.5034 12.438L12.5026 12.4387C12.5037 12.4377 12.5044 12.4371 12.5055 12.4362Z" fill="#115A36"/>
</svg>
