<svg width="12" height="12" viewBox="0 0 12 12" fill="none" xmlns="http://www.w3.org/2000/svg">
<path fill-rule="evenodd" clip-rule="evenodd" d="M0.281506 0.164376C-0.0419401 0.423133 -0.0943812 0.895102 0.164376 1.21855L3.78956 5.75003L0.164376 10.2815C-0.0943816 10.605 -0.0419406 11.0769 0.281506 11.3357C0.604952 11.5944 1.07692 11.542 1.33568 11.2185L5.33568 6.21855C5.55481 5.94464 5.55481 5.55542 5.33568 5.28151L1.33568 0.281506C1.07692 -0.0419401 0.604953 -0.0943811 0.281506 0.164376Z" fill="#115A36"/>
<path opacity="0.4" fill-rule="evenodd" clip-rule="evenodd" d="M6.28151 0.164376C5.95806 0.423133 5.90562 0.895102 6.16438 1.21855L9.78956 5.75003L6.16438 10.2815C5.90562 10.605 5.95806 11.0769 6.28151 11.3357C6.60495 11.5944 7.07692 11.542 7.33568 11.2185L11.3357 6.21855C11.5548 5.94464 11.5548 5.55542 11.3357 5.28151L7.33568 0.281506C7.07692 -0.0419401 6.60495 -0.0943811 6.28151 0.164376Z" fill="#115A36"/>
</svg>
