<svg width="14" height="20" viewBox="0 0 14 20" fill="none" xmlns="http://www.w3.org/2000/svg">
<path d="M3 16H11V16C11 18.2091 9.20914 20 7 20V20C4.79086 20 3 18.2091 3 16V16Z" fill="#115A36"/>
<path opacity="0.4" d="M3 16H11V13.7887C11 13.1349 11.3334 12.5363 11.8085 12.0871C13.158 10.8111 14 9.00387 14 7C14 3.13401 10.866 0 7 0C3.13401 0 0 3.13401 0 7C0 9.00387 0.842013 10.8111 2.19153 12.0871C2.66659 12.5363 3 13.1349 3 13.7887V16Z" fill="#115A36"/>
<path fill-rule="evenodd" clip-rule="evenodd" d="M4.46967 6.46967C4.76256 6.17678 5.23744 6.17678 5.53033 6.46967L7 7.93934L8.46967 6.46967C8.76256 6.17678 9.23744 6.17678 9.53033 6.46967C9.82322 6.76256 9.82322 7.23744 9.53033 7.53033L7.75 9.31066V17C7.75 17.4142 7.41421 17.75 7 17.75C6.58579 17.75 6.25 17.4142 6.25 17V9.31066L4.46967 7.53033C4.17678 7.23744 4.17678 6.76256 4.46967 6.46967Z" fill="#115A36"/>
</svg>
