<svg width="19" height="20" viewBox="0 0 19 20" fill="none" xmlns="http://www.w3.org/2000/svg">
<path fill-rule="evenodd" clip-rule="evenodd" d="M12.8661 8.28033C13.159 7.98744 13.159 7.51256 12.8661 7.21967C12.5732 6.92678 12.0984 6.92678 11.8055 7.21967L10.5126 8.51256C9.82915 9.19598 9.82915 10.304 10.5126 10.9874L11.8055 12.2803C12.0983 12.5732 12.5732 12.5732 12.8661 12.2803C13.159 11.9874 13.159 11.5126 12.8661 11.2197L12.1464 10.5L17.3358 10.5C17.75 10.5 18.0858 10.1642 18.0858 9.75C18.0858 9.33579 17.75 9 17.3358 9L12.1464 9L12.8661 8.28033Z" fill="#115A36"/>
<path fill-rule="evenodd" clip-rule="evenodd" d="M8 2.51611L11 2.51612C12.5188 2.51612 13.75 3.74734 13.75 5.26612C13.75 5.68033 13.4142 6.01612 13 6.01612C12.5858 6.01612 12.25 5.68033 12.25 5.26612C12.25 4.57576 11.6904 4.01612 11 4.01612L8 4.01611V2.51611ZM13 14.5161C13.4142 14.5161 13.75 14.8519 13.75 15.2661C13.75 16.7849 12.5188 18.0161 11 18.0161H8V16.5161H11C11.6904 16.5161 12.25 15.9565 12.25 15.2661C12.25 14.8519 12.5858 14.5161 13 14.5161Z" fill="#115A36"/>
<path opacity="0.4" d="M0 3.99676C0 3.27511 0.381946 2.60121 1.01783 2.20091L4.44642 0.366124C5.9654 -0.590105 8.00002 0.438116 8.00002 2.16198V17.838C8.00002 19.5619 5.9654 20.5901 4.44642 19.6339L1.01785 17.7959C0.381963 17.3956 1.71661e-05 16.7217 1.71661e-05 16L0 3.99676Z" fill="#115A36"/>
</svg>
